{"glyphs":{"0":{"ha":800,"x_min":54,"x_max":799,"o":"m 799 681 q 766 414 799 547 q 675 185 733 282 q 534 36 617 88 q 342 -17 452 -17 q 132 72 210 -17 q 54 315 54 160 q 113 648 54 486 q 272 899 172 809 q 518 989 373 989 q 724 905 650 989 q 799 681 799 822 m 589 689 q 566 792 589 759 q 504 825 543 825 q 388 750 439 825 q 301 535 338 675 q 264 293 264 394 q 290 185 264 221 q 357 149 316 149 q 469 227 422 149 q 553 443 517 304 q 589 689 589 581 z "},"1":{"ha":800,"x_min":197,"x_max":673,"o":"m 249 0 l 414 775 l 197 730 l 235 904 l 673 989 l 464 0 l 249 0 z "},"2":{"ha":800,"x_min":3,"x_max":778,"o":"m 275 178 l 657 178 l 620 0 l 3 0 l 18 73 q 116 270 40 179 q 358 463 192 361 q 488 553 449 519 q 546 624 527 588 q 564 705 564 660 q 528 788 564 758 q 427 818 492 818 q 176 732 307 818 l 218 928 q 343 972 271 955 q 485 989 415 989 q 701 923 624 989 q 778 743 778 858 q 754 607 778 665 q 689 506 730 550 q 593 425 648 461 q 479 351 539 388 q 328 248 374 288 q 275 178 282 208 z "},"3":{"ha":800,"x_min":24,"x_max":765,"o":"m 765 758 q 697 587 765 657 q 513 497 629 516 l 513 494 q 644 423 598 478 q 690 285 690 368 q 643 126 690 195 q 505 20 595 58 q 286 -17 415 -17 q 24 39 142 -17 l 61 212 q 167 164 110 182 q 281 147 224 147 q 425 184 373 147 q 476 290 476 222 q 288 416 476 416 l 204 416 l 239 581 l 342 581 q 494 618 439 581 q 550 722 550 655 q 514 799 550 772 q 414 825 478 825 q 207 777 312 825 l 244 950 q 484 989 365 989 q 690 927 616 989 q 765 758 765 866 z "},"4":{"ha":800,"x_min":-12,"x_max":778,"o":"m 771 972 l 641 359 l 778 359 l 744 199 l 607 199 l 565 0 l 370 0 l 412 199 l -12 199 l 23 367 q 336 677 190 517 q 572 972 481 838 l 771 972 m 214 359 l 446 359 l 518 699 q 214 359 399 542 z "},"5":{"ha":800,"x_min":34,"x_max":799,"o":"m 762 798 l 404 798 l 363 603 q 408 606 387 606 q 626 534 548 606 q 705 336 705 463 q 649 153 705 237 q 500 26 593 68 q 283 -17 407 -17 q 142 -3 214 -17 q 34 32 70 10 l 71 205 q 169 164 106 182 q 281 147 232 147 q 393 169 347 147 q 465 229 439 191 q 490 311 490 267 q 447 411 490 380 q 311 441 404 441 q 142 431 221 441 l 258 972 l 799 972 l 762 798 z "},"6":{"ha":800,"x_min":75,"x_max":811,"o":"m 773 783 q 610 825 703 825 q 481 792 543 825 q 370 686 418 760 q 300 521 322 613 l 302 521 q 396 597 339 568 q 514 625 452 625 q 687 553 624 625 q 750 355 750 481 q 705 170 750 256 q 579 34 660 84 q 394 -16 498 -16 q 159 81 244 -16 q 75 349 75 178 q 146 678 75 527 q 341 909 217 829 q 621 989 465 989 q 811 958 735 989 l 773 783 m 545 336 q 515 433 545 399 q 429 467 485 467 q 324 416 365 467 q 283 293 283 366 q 316 188 283 225 q 401 151 348 151 q 504 206 463 151 q 545 336 545 260 z "},"7":{"ha":800,"x_min":113,"x_max":863,"o":"m 336 0 l 113 0 q 306 393 187 197 q 600 798 425 588 l 147 798 l 184 972 l 863 972 l 837 849 q 597 518 682 647 q 449 263 513 390 q 336 0 385 137 z "},"8":{"ha":800,"x_min":26,"x_max":819,"o":"m 26 250 q 90 427 26 356 q 273 526 153 498 q 168 709 168 593 q 209 852 168 789 q 327 952 250 916 q 514 989 404 989 q 737 924 654 989 q 819 747 819 859 q 760 586 819 652 q 596 494 701 519 q 739 286 739 430 q 691 131 739 201 q 556 23 644 62 q 355 -16 469 -16 q 178 18 252 -16 q 65 110 104 51 q 26 250 26 170 m 239 264 q 274 172 239 206 q 368 138 309 138 q 478 182 435 138 q 521 297 521 225 q 487 386 521 352 q 397 419 454 419 q 281 377 323 419 q 239 264 239 335 m 372 693 q 401 613 372 640 q 476 586 431 586 q 572 626 534 586 q 611 722 611 666 q 582 802 611 773 q 502 831 553 831 q 407 793 442 831 q 372 693 372 756 z "},"9":{"ha":800,"x_min":47,"x_max":783,"o":"m 783 625 q 743 373 783 494 q 631 165 703 253 q 464 31 559 78 q 235 -16 369 -16 q 122 -6 171 -16 q 47 16 73 4 l 78 189 q 156 160 109 172 q 244 149 203 149 q 443 226 363 149 q 558 452 523 304 l 555 452 q 350 346 472 346 q 172 421 239 346 q 106 618 106 496 q 155 810 106 721 q 284 945 203 900 q 468 990 364 990 q 699 891 614 990 q 783 625 783 792 m 578 677 q 545 780 578 737 q 461 822 513 822 q 356 768 397 822 q 315 637 315 715 q 346 539 315 575 q 428 503 376 503 q 536 552 494 503 q 578 677 578 602 z "},"\r":{"ha":68,"x_min":0,"x_max":0,"o":""}," ":{"ha":382,"x_min":0,"x_max":0,"o":""},"!":{"ha":481,"x_min":65,"x_max":482,"o":"m 314 302 l 140 302 l 257 972 l 482 972 l 314 302 m 315 102 q 305 54 315 75 q 278 17 295 33 q 237 -7 260 1 q 186 -16 213 -16 q 138 -7 160 -16 q 100 15 116 1 q 74 48 83 29 q 65 90 65 68 q 75 139 65 117 q 103 176 85 161 q 144 200 121 191 q 196 208 168 208 q 243 200 222 208 q 281 178 265 192 q 306 144 297 163 q 315 102 315 125 z "},"\"":{"ha":685,"x_min":205,"x_max":652,"o":"m 631 684 l 494 684 l 473 985 l 652 985 l 631 684 m 363 684 l 225 684 l 205 985 l 383 985 l 363 684 z "},"#":{"ha":794,"x_min":43,"x_max":815,"o":"m 789 603 l 664 603 l 627 435 l 766 435 l 736 313 l 602 313 l 549 78 l 412 78 l 463 313 l 307 313 l 257 78 l 121 78 l 170 313 l 43 313 l 68 435 l 196 435 l 232 603 l 94 603 l 118 725 l 257 725 l 307 966 l 446 966 l 396 725 l 551 725 l 603 966 l 741 966 l 690 725 l 815 725 l 789 603 m 370 603 l 332 435 l 489 435 l 526 603 l 370 603 z "},"$":{"ha":800,"x_min":43,"x_max":775,"o":"m 741 762 q 654 799 702 782 q 550 823 607 815 l 493 555 q 656 440 600 507 q 711 293 711 373 q 694 182 711 235 q 637 88 677 129 q 533 21 597 47 q 374 -8 469 -5 l 345 -142 l 248 -142 l 275 -5 q 206 4 240 -3 q 142 20 172 12 q 86 38 111 29 q 43 56 60 47 l 79 227 q 131 200 102 212 q 189 177 159 187 q 250 159 219 167 q 309 149 280 152 l 364 408 q 274 459 315 432 q 203 520 233 486 q 157 595 174 553 q 140 689 140 637 q 161 800 140 748 q 225 891 182 852 q 333 954 268 930 q 485 979 397 977 l 510 1099 l 608 1099 l 582 975 q 634 968 608 973 q 687 957 661 964 q 735 943 713 950 q 775 928 758 935 l 741 762 m 452 822 q 396 811 420 821 q 356 786 372 802 q 333 749 340 770 q 325 707 325 729 q 346 643 325 667 q 403 595 366 618 l 452 822 m 528 268 q 524 296 528 283 q 512 320 520 309 q 489 344 503 332 q 454 368 475 356 l 406 147 q 460 160 437 149 q 498 188 484 171 q 520 226 513 205 q 528 268 528 247 z "},"%":{"ha":1206,"x_min":115,"x_max":1143,"o":"m 1143 285 q 1137 220 1143 254 q 1117 153 1131 186 q 1081 89 1103 119 q 1030 36 1060 59 q 960 0 1000 14 q 872 -14 921 -14 q 769 6 811 -14 q 702 55 728 25 q 665 123 676 85 q 653 196 653 160 q 659 258 653 225 q 679 325 665 292 q 714 388 693 358 q 767 442 736 418 q 838 479 798 465 q 929 493 878 493 q 1020 478 980 493 q 1087 436 1060 463 q 1129 371 1115 409 q 1143 285 1143 332 m 290 0 l 123 0 l 964 972 l 1131 972 l 290 0 m 606 779 q 591 680 606 732 q 543 583 576 627 q 458 509 510 538 q 334 479 407 479 q 231 499 273 479 q 163 549 189 519 q 126 617 138 580 q 115 690 115 654 q 122 753 115 720 q 142 819 128 786 q 177 882 155 852 q 229 935 199 912 q 300 972 260 958 q 392 986 341 986 q 483 971 443 986 q 550 929 522 956 q 591 864 577 903 q 606 779 606 826 m 997 282 q 993 315 997 298 q 981 345 989 332 q 959 367 972 358 q 924 375 945 375 q 868 357 891 375 q 829 312 844 339 q 806 254 814 286 q 799 196 799 223 q 804 160 799 177 q 818 131 808 144 q 842 112 827 119 q 876 104 857 104 q 928 121 906 104 q 966 163 951 137 q 989 220 981 189 q 997 282 997 252 m 460 775 q 456 809 460 792 q 444 839 452 826 q 421 861 435 852 q 386 869 407 869 q 330 851 353 869 q 291 807 307 833 q 269 749 276 780 q 261 690 261 718 q 266 654 261 671 q 280 625 271 637 q 305 605 290 612 q 339 597 319 597 q 391 614 369 597 q 429 656 414 631 q 452 714 444 682 q 460 775 460 745 z "},"&":{"ha":1113,"x_min":-1,"x_max":1128,"o":"m 913 -16 q 845 -5 876 -16 q 788 23 814 5 q 741 65 762 41 q 700 116 720 89 q 638 73 674 96 q 555 30 602 50 q 454 -3 509 10 q 334 -16 398 -16 q 194 4 256 -16 q 89 60 132 24 q 22 147 45 96 q -1 261 -1 198 q 25 379 -1 328 q 93 468 51 430 q 190 533 136 507 q 302 580 245 560 q 274 609 288 592 q 248 648 260 627 q 230 696 237 670 q 222 750 222 722 q 245 851 222 807 q 309 926 267 896 q 409 973 350 957 q 539 989 467 989 q 650 975 600 989 q 736 934 701 960 q 790 870 771 907 q 810 787 810 833 q 791 702 810 738 q 741 639 772 665 q 671 594 710 612 q 590 560 631 575 q 636 527 612 549 q 684 477 661 505 q 728 417 707 449 q 762 355 748 386 q 838 437 804 393 q 895 530 871 481 q 932 630 919 578 q 945 736 945 682 q 945 749 945 743 q 944 760 945 755 l 1126 760 q 1128 730 1128 745 q 1116 630 1128 680 q 1081 532 1103 580 q 1030 438 1059 484 q 970 353 1002 393 q 905 278 938 313 q 840 216 871 243 q 896 163 867 179 q 960 148 925 148 q 1020 154 992 148 q 1078 170 1048 160 l 1050 5 q 988 -10 1022 -5 q 913 -16 955 -16 m 362 150 q 499 177 431 150 q 626 252 567 205 q 535 398 589 338 q 421 488 480 458 q 353 458 389 476 q 287 415 317 440 q 238 357 258 390 q 219 279 219 323 q 230 227 219 251 q 259 186 240 203 q 304 159 278 169 q 362 150 331 150 m 468 648 q 516 665 490 655 q 564 688 542 674 q 600 723 585 703 q 614 771 614 743 q 591 825 614 804 q 531 846 567 846 q 486 840 508 846 q 447 821 464 833 q 420 789 431 808 q 410 744 410 770 q 427 687 410 711 q 468 648 444 663 z "},"'":{"ha":407,"x_min":203,"x_max":380,"o":"m 358 685 l 222 685 l 203 985 l 380 985 l 358 685 z "},"(":{"ha":514,"x_min":106,"x_max":648,"o":"m 648 972 q 502 801 568 889 q 389 617 436 713 q 316 415 342 521 q 290 192 290 310 q 296 88 290 141 q 313 -17 302 35 q 343 -120 325 -70 q 386 -214 361 -170 l 220 -214 q 170 -116 191 -170 q 134 -7 149 -63 q 113 105 120 49 q 106 214 106 162 q 130 432 106 328 q 201 632 155 536 q 313 812 247 727 q 464 972 380 897 l 648 972 z "},")":{"ha":514,"x_min":-135,"x_max":408,"o":"m 408 545 q 384 326 408 431 q 313 127 359 222 q 200 -53 267 32 q 50 -214 134 -138 l -135 -214 q 11 -43 -55 -131 q 125 141 77 45 q 198 342 172 237 q 224 566 224 448 q 218 669 224 616 q 201 775 212 722 q 171 878 189 827 q 127 972 153 928 l 294 972 q 344 875 323 928 q 380 766 366 822 q 401 653 394 709 q 408 545 408 596 z "},"*":{"ha":632,"x_min":111,"x_max":648,"o":"m 463 689 l 597 546 l 472 461 l 379 633 l 286 461 l 163 546 l 297 689 l 111 714 l 160 851 l 329 778 l 300 972 l 458 972 l 429 778 l 600 851 l 648 714 l 463 689 z "},"+":{"ha":983,"x_min":175,"x_max":835,"o":"m 574 329 l 574 68 l 436 68 l 436 329 l 175 329 l 175 467 l 436 467 l 436 728 l 574 728 l 574 467 l 835 467 l 835 329 l 574 329 z "},",":{"ha":376,"x_min":-74,"x_max":285,"o":"m 102 -172 l -74 -172 l 83 171 l 285 171 l 102 -172 z "},"-":{"ha":561,"x_min":81,"x_max":484,"o":"m 452 296 l 81 296 l 113 446 l 484 446 l 452 296 z "},".":{"ha":376,"x_min":9,"x_max":260,"o":"m 260 98 q 250 51 260 73 q 222 15 239 30 q 181 -9 205 -1 q 131 -17 158 -17 q 82 -9 104 -17 q 44 13 60 -1 q 19 46 28 27 q 9 89 9 66 q 20 136 9 115 q 47 173 30 158 q 89 197 65 189 q 140 205 113 205 q 188 197 166 205 q 226 175 210 189 q 251 141 242 161 q 260 98 260 121 z "},"/":{"ha":616,"x_min":-153,"x_max":777,"o":"m 62 -161 l -153 -161 l 561 972 l 777 972 l 62 -161 z "},":":{"ha":376,"x_min":9,"x_max":364,"o":"m 364 596 q 354 548 364 570 q 326 512 344 527 q 284 488 308 496 q 233 479 260 479 q 185 488 208 479 q 148 510 163 496 q 123 543 132 524 q 114 585 114 562 q 124 633 114 611 q 151 670 134 655 q 192 694 168 686 q 244 703 216 703 q 292 694 270 703 q 330 672 314 686 q 355 638 346 658 q 364 596 364 619 m 260 98 q 250 51 260 73 q 222 15 239 30 q 181 -9 205 -1 q 131 -17 158 -17 q 82 -9 104 -17 q 44 13 60 -1 q 19 46 28 27 q 9 89 9 66 q 20 136 9 115 q 47 173 30 158 q 89 197 65 189 q 140 205 113 205 q 188 197 166 205 q 226 175 210 189 q 251 141 242 161 q 260 98 260 121 z "},";":{"ha":376,"x_min":-93,"x_max":364,"o":"m 364 596 q 354 548 364 570 q 326 512 344 527 q 284 488 308 496 q 233 479 260 479 q 185 488 208 479 q 148 510 163 496 q 123 543 132 524 q 114 585 114 562 q 124 633 114 611 q 151 670 134 655 q 192 694 168 686 q 244 703 216 703 q 292 694 270 703 q 330 672 314 686 q 355 638 346 658 q 364 596 364 619 m 81 -172 l -93 -172 l 62 171 l 265 171 l 81 -172 z "},"<":{"ha":983,"x_min":155,"x_max":789,"o":"m 155 342 l 155 453 l 789 755 l 789 593 l 338 399 l 338 396 l 789 214 l 789 55 l 155 342 z "},"=":{"ha":983,"x_min":175,"x_max":835,"o":"m 175 475 l 175 614 l 835 614 l 835 475 l 175 475 m 175 180 l 175 318 l 835 318 l 835 180 l 175 180 z "},">":{"ha":983,"x_min":208,"x_max":843,"o":"m 208 55 l 208 216 l 661 397 l 661 399 l 208 593 l 208 755 l 843 454 l 843 344 l 208 55 z "},"?":{"ha":624,"x_min":100,"x_max":675,"o":"m 675 768 q 664 692 675 729 q 630 621 653 656 q 569 552 606 586 q 479 486 532 519 q 421 445 445 465 q 383 402 398 425 q 358 353 368 379 q 343 294 349 327 l 167 294 q 186 376 176 338 q 215 447 197 414 q 257 509 232 480 q 319 562 282 537 q 383 609 356 588 q 427 650 410 631 q 453 689 444 669 q 461 729 461 708 q 454 766 461 749 q 432 795 446 783 q 395 816 417 808 q 345 823 373 823 q 235 807 289 823 q 138 762 182 790 l 176 950 q 223 968 197 960 q 279 983 250 977 q 339 993 308 989 q 400 997 370 997 q 529 977 477 997 q 614 925 582 957 q 661 851 646 892 q 675 768 675 810 m 350 102 q 340 54 350 75 q 312 17 330 33 q 271 -7 295 1 q 220 -16 248 -16 q 172 -7 194 -16 q 134 15 150 1 q 109 48 118 29 q 100 90 100 68 q 110 139 100 117 q 137 176 119 161 q 178 200 155 191 q 231 208 202 208 q 278 200 256 208 q 316 178 300 192 q 341 144 332 163 q 350 102 350 125 z "},"@":{"ha":1325,"x_min":104,"x_max":1261,"o":"m 1261 550 q 1251 444 1261 496 q 1220 344 1240 392 q 1169 256 1200 296 q 1099 185 1139 215 q 1009 139 1059 156 q 900 122 959 122 q 829 132 859 122 q 783 158 800 142 q 757 192 765 174 q 749 227 749 210 q 749 238 749 234 q 751 250 749 241 l 747 250 q 665 156 711 189 q 557 122 618 122 q 482 139 515 122 q 428 187 450 157 q 394 258 406 217 q 383 346 383 298 q 393 437 383 391 q 423 526 404 484 q 471 605 443 568 q 536 669 499 642 q 616 712 572 696 q 710 728 660 728 q 759 721 738 728 q 795 704 781 715 q 820 681 810 694 q 833 654 829 667 l 836 654 l 852 715 l 1006 715 q 987 653 998 690 q 965 572 977 615 q 941 485 953 529 q 920 402 929 441 q 904 334 910 363 q 899 293 899 305 q 910 254 899 264 q 945 243 922 243 q 1008 267 977 243 q 1064 330 1040 290 q 1103 424 1088 370 q 1118 538 1118 478 q 1099 657 1118 599 q 1036 762 1080 716 q 921 835 992 807 q 745 863 849 863 q 552 827 642 863 q 398 725 463 791 q 295 567 332 659 q 257 364 257 475 q 279 218 257 286 q 349 100 301 151 q 473 22 397 50 q 656 -7 549 -7 q 765 -1 713 -7 q 859 15 817 5 q 932 34 901 24 q 981 53 964 45 l 957 -78 q 912 -93 942 -85 q 840 -110 882 -102 q 747 -122 798 -117 q 639 -127 696 -127 q 410 -93 509 -127 q 242 6 310 -58 q 139 160 174 71 q 104 361 104 250 q 125 529 104 448 q 186 679 146 609 q 284 804 227 748 q 414 901 341 861 q 573 963 486 941 q 757 985 659 985 q 982 950 886 985 q 1139 857 1077 916 q 1231 719 1201 798 q 1261 550 1261 640 m 794 532 q 773 591 794 570 q 720 611 753 611 q 648 587 680 611 q 592 526 615 564 q 556 443 568 489 q 543 351 543 397 q 564 271 543 299 q 619 243 584 243 q 674 261 648 243 q 722 312 700 280 q 760 386 743 343 q 787 476 777 429 q 792 505 791 491 q 794 532 794 519 z "},"A":{"ha":977,"x_min":-69,"x_max":892,"o":"m 668 0 l 640 216 l 292 216 l 178 0 l -69 0 l 492 972 l 753 972 l 892 0 l 668 0 m 589 713 q 588 737 588 724 q 588 762 587 750 q 589 784 588 774 q 590 799 589 794 l 586 799 q 581 783 585 793 q 573 763 578 774 q 563 739 569 751 q 551 715 557 727 l 374 385 l 624 385 l 589 713 z "},"B":{"ha":900,"x_min":33,"x_max":879,"o":"m 879 753 q 864 668 879 707 q 820 597 849 629 q 747 543 790 566 q 646 510 703 521 l 646 507 q 726 483 692 500 q 784 438 761 465 q 819 378 808 412 q 831 307 831 345 q 805 185 831 241 q 728 88 779 130 q 599 23 676 47 q 419 0 522 0 l 33 0 l 240 972 l 585 972 q 720 956 664 972 q 811 910 776 939 q 863 840 846 880 q 879 753 879 800 m 648 710 q 641 752 648 734 q 618 784 634 771 q 578 804 603 797 q 517 811 553 811 l 427 811 l 376 581 l 479 581 q 550 590 519 581 q 603 616 581 599 q 637 657 625 633 q 648 710 648 681 m 599 306 q 564 387 599 357 q 458 418 528 418 l 343 418 l 288 161 l 410 161 q 496 173 460 161 q 554 203 532 184 q 588 249 577 223 q 599 306 599 275 z "},"C":{"ha":882,"x_min":71,"x_max":936,"o":"m 890 737 q 847 759 870 748 q 795 778 823 770 q 735 792 768 787 q 665 798 703 798 q 510 767 577 798 q 396 686 442 737 q 326 568 350 635 q 302 427 302 501 q 321 317 302 365 q 373 238 339 270 q 454 189 407 205 q 561 172 502 172 q 631 177 598 172 q 692 191 663 182 q 748 210 722 199 q 798 233 774 221 l 751 26 q 641 -6 701 5 q 504 -17 580 -17 q 321 13 402 -17 q 185 99 241 43 q 100 232 130 155 q 71 406 71 310 q 87 555 71 482 q 136 693 103 628 q 219 812 169 758 q 336 905 269 866 q 489 967 404 945 q 679 989 575 989 q 755 985 718 989 q 825 974 791 981 q 886 960 858 968 q 936 945 914 952 l 890 737 z "},"D":{"ha":1046,"x_min":33,"x_max":1017,"o":"m 1017 579 q 1001 430 1017 503 q 954 292 985 357 q 874 174 922 228 q 761 82 826 121 q 612 22 695 43 q 427 0 528 0 l 33 0 l 240 972 l 582 972 q 770 943 689 972 q 906 862 851 914 q 989 738 961 810 q 1017 579 1017 666 m 785 562 q 769 660 785 616 q 723 732 754 703 q 643 778 691 762 q 529 794 595 794 l 422 794 l 292 178 l 425 178 q 574 205 508 178 q 688 283 641 233 q 760 405 734 334 q 785 562 785 475 z "},"E":{"ha":736,"x_min":33,"x_max":800,"o":"m 762 794 l 422 794 l 376 575 l 693 575 l 654 396 l 339 396 l 292 178 l 654 178 l 616 0 l 33 0 l 240 972 l 800 972 l 762 794 z "},"F":{"ha":724,"x_min":33,"x_max":803,"o":"m 765 791 l 422 791 l 372 557 l 688 557 l 648 376 l 334 376 l 254 0 l 33 0 l 240 972 l 803 972 l 765 791 z "},"G":{"ha":985,"x_min":75,"x_max":972,"o":"m 929 733 q 880 761 908 747 q 820 784 852 774 q 750 800 787 793 q 673 806 713 806 q 520 778 589 806 q 405 701 452 751 q 331 581 357 651 q 306 425 306 511 q 323 315 306 363 q 371 233 340 266 q 448 182 403 199 q 547 164 492 164 q 608 169 584 164 q 652 179 632 173 l 693 376 l 496 376 l 533 551 l 949 551 l 844 58 q 781 31 815 44 q 705 7 746 18 q 618 -11 665 -4 q 517 -17 571 -17 q 330 14 412 -17 q 191 102 248 45 q 105 239 135 159 q 75 415 75 319 q 92 563 75 491 q 143 699 109 635 q 227 816 176 763 q 345 908 277 869 q 497 967 412 946 q 684 989 582 989 q 771 984 730 989 q 850 970 813 979 q 917 952 886 962 q 972 933 948 943 l 929 733 z "},"H":{"ha":1061,"x_min":33,"x_max":1082,"o":"m 875 0 l 654 0 l 737 393 l 338 393 l 254 0 l 33 0 l 240 972 l 461 972 l 378 585 l 778 585 l 861 972 l 1082 972 l 875 0 z "},"I":{"ha":440,"x_min":33,"x_max":460,"o":"m 254 0 l 33 0 l 239 972 l 460 972 l 254 0 z "},"J":{"ha":615,"x_min":-58,"x_max":642,"o":"m 517 389 q 463 220 497 295 q 376 92 428 145 q 253 11 323 39 q 89 -17 182 -17 q 52 -14 73 -17 q 10 -7 31 -12 q -29 2 -11 -3 q -58 12 -47 7 l -18 215 q 6 199 -8 207 q 36 185 20 191 q 68 176 52 180 q 100 172 85 172 q 225 226 176 172 q 297 395 273 280 l 421 972 l 642 972 l 517 389 z "},"K":{"ha":904,"x_min":33,"x_max":1023,"o":"m 1023 972 q 972 915 1007 952 q 894 831 938 877 q 802 735 850 785 q 710 640 753 686 q 631 556 666 594 q 581 498 597 519 q 610 436 589 476 q 656 349 630 397 q 712 249 682 301 q 767 150 741 197 q 814 62 793 102 q 843 0 834 22 l 576 0 q 555 51 570 18 q 518 125 539 84 q 475 210 498 165 q 431 295 452 254 q 394 369 410 336 q 372 419 378 401 q 362 445 367 431 q 355 468 357 460 l 353 468 l 254 0 l 33 0 l 240 972 l 461 972 l 366 521 l 368 521 q 386 543 376 531 q 401 564 395 555 q 443 613 415 581 q 506 685 471 645 q 580 768 541 724 q 653 851 618 811 q 716 923 688 890 q 755 972 743 955 l 1023 972 z "},"L":{"ha":711,"x_min":33,"x_max":652,"o":"m 614 0 l 33 0 l 240 972 l 461 972 l 293 180 l 652 180 l 614 0 z "},"M":{"ha":1208,"x_min":33,"x_max":1227,"o":"m 1021 0 l 824 0 l 947 582 q 1000 790 968 675 l 995 790 q 975 747 985 768 q 954 706 964 725 q 935 671 944 686 q 920 646 926 656 l 659 292 l 506 292 l 405 640 q 398 672 401 650 q 395 718 395 694 l 395 790 l 389 790 q 371 673 380 726 q 354 583 361 619 l 230 0 l 33 0 l 239 972 l 500 972 l 600 635 q 608 600 604 618 q 615 563 612 581 q 619 527 618 544 q 621 496 621 509 l 624 496 q 640 529 631 511 q 657 567 648 548 q 677 605 667 587 q 697 636 687 623 l 945 972 l 1227 972 l 1021 0 z "},"N":{"ha":1109,"x_min":33,"x_max":1129,"o":"m 924 0 l 724 0 l 419 618 q 410 637 415 626 q 401 659 406 648 q 392 680 396 670 q 386 699 388 690 l 382 699 q 374 642 378 673 q 363 581 370 611 l 239 0 l 33 0 l 239 972 l 456 972 l 747 378 q 756 360 751 370 q 766 338 761 349 q 775 316 771 327 q 782 297 780 305 l 785 297 q 787 320 785 307 q 790 345 788 332 q 794 370 792 358 q 799 392 797 382 l 922 972 l 1129 972 l 924 0 z "},"O":{"ha":1054,"x_min":75,"x_max":1025,"o":"m 1025 571 q 1015 454 1025 513 q 984 339 1004 395 q 934 233 964 284 q 864 140 904 182 q 790 75 830 104 q 703 26 750 46 q 601 -6 656 5 q 482 -17 546 -17 q 310 15 386 -17 q 182 103 235 47 q 103 235 130 159 q 75 401 75 312 q 86 526 75 465 q 119 644 97 587 q 174 752 141 701 q 250 846 207 803 q 323 904 284 878 q 408 949 363 930 q 506 979 454 968 q 618 989 558 989 q 783 960 708 989 q 911 878 858 932 q 995 746 965 824 q 1025 571 1025 669 m 793 564 q 779 662 793 618 q 739 735 765 705 q 676 782 713 766 q 593 798 640 798 q 490 772 538 798 q 403 703 441 747 q 362 640 380 675 q 332 566 345 605 q 314 485 320 526 q 307 404 307 444 q 321 306 307 349 q 361 233 335 262 q 423 188 387 203 q 504 172 459 172 q 610 197 559 172 q 699 269 661 221 q 740 333 722 298 q 769 408 758 369 q 787 486 781 446 q 793 564 793 526 z "},"P":{"ha":875,"x_min":33,"x_max":893,"o":"m 893 696 q 868 558 893 624 q 790 444 843 493 q 656 365 737 394 q 461 335 574 335 l 325 335 l 254 0 l 33 0 l 240 972 l 574 972 q 717 951 656 972 q 816 893 777 930 q 874 805 855 856 q 893 696 893 755 m 661 681 q 623 771 661 737 q 511 804 585 804 l 425 804 l 361 501 l 461 501 q 551 516 513 501 q 613 555 589 530 q 649 612 637 580 q 661 681 661 645 z "},"Q":{"ha":1054,"x_min":75,"x_max":1025,"o":"m 1025 568 q 980 325 1025 440 q 851 126 936 210 q 660 9 767 41 l 880 -249 l 599 -249 l 447 -16 q 251 46 335 -8 q 121 193 166 101 q 75 400 75 285 q 141 694 75 561 q 329 908 207 827 q 619 989 450 989 q 914 875 804 989 q 1025 568 1025 762 m 793 562 q 740 735 793 673 q 596 798 688 798 q 451 749 517 798 q 347 606 386 701 q 307 404 307 511 q 360 233 307 294 q 504 172 414 172 q 648 219 583 172 q 753 361 713 267 q 793 562 793 456 z "},"R":{"ha":889,"x_min":33,"x_max":885,"o":"m 885 725 q 863 613 885 663 q 802 527 840 564 q 711 467 763 490 q 600 436 659 444 l 600 433 q 672 382 642 420 q 717 281 702 344 l 785 0 l 550 0 l 497 250 q 454 341 485 311 q 371 372 424 372 l 334 372 l 254 0 l 33 0 l 240 972 l 572 972 q 717 952 657 972 q 814 898 777 932 q 868 819 851 864 q 885 725 885 774 m 652 689 q 618 777 652 745 q 518 808 585 808 l 427 808 l 368 538 l 457 538 q 544 550 507 538 q 604 584 581 563 q 640 632 628 604 q 652 689 652 659 z "},"S":{"ha":746,"x_min":20,"x_max":761,"o":"m 724 747 q 677 773 703 760 q 623 795 652 785 q 562 810 594 804 q 496 817 530 817 q 431 806 457 817 q 389 780 404 795 q 366 746 373 764 q 359 713 359 728 q 367 672 359 690 q 389 636 374 653 q 429 601 404 618 q 489 561 454 583 q 571 504 535 532 q 631 442 606 475 q 669 370 656 409 q 682 283 682 332 q 676 222 682 256 q 654 156 669 189 q 611 91 638 122 q 542 36 583 60 q 443 -2 500 12 q 307 -17 385 -17 q 223 -11 264 -17 q 145 4 182 -5 q 76 26 108 14 q 20 52 44 39 l 57 244 q 112 210 82 226 q 173 181 141 193 q 240 162 205 169 q 310 155 275 155 q 376 164 349 155 q 420 187 403 172 q 444 222 437 202 q 452 264 452 241 q 445 304 452 286 q 421 339 437 322 q 378 373 405 355 q 313 414 351 391 q 237 464 271 437 q 179 523 203 490 q 141 596 155 556 q 127 686 127 637 q 149 797 127 743 q 214 894 170 851 q 329 963 259 937 q 494 989 398 989 q 572 984 534 989 q 643 972 609 980 q 707 956 677 965 q 761 936 736 946 l 724 747 z "},"T":{"ha":815,"x_min":111,"x_max":922,"o":"m 884 794 l 610 794 l 441 0 l 221 0 l 389 794 l 111 794 l 150 972 l 922 972 l 884 794 z "},"U":{"ha":1004,"x_min":102,"x_max":1035,"o":"m 911 396 q 859 224 890 300 q 774 94 827 147 q 644 12 722 40 q 453 -17 566 -17 q 307 5 372 -17 q 196 70 241 28 q 126 173 151 113 q 102 311 102 234 q 107 389 102 347 q 121 468 113 431 l 229 972 l 450 972 l 340 467 q 327 395 333 431 q 321 334 321 359 q 333 264 321 294 q 366 214 345 234 q 416 183 387 193 q 478 172 445 172 q 550 184 517 172 q 610 222 583 195 q 656 292 636 248 q 690 400 677 336 l 814 972 l 1035 972 l 911 396 z "},"V":{"ha":926,"x_min":135,"x_max":1048,"o":"m 501 0 l 260 0 l 135 972 l 359 972 l 425 300 q 428 251 427 276 q 424 205 428 227 l 429 205 q 445 250 435 225 q 469 302 455 274 l 807 972 l 1048 972 l 501 0 z "},"W":{"ha":1400,"x_min":136,"x_max":1516,"o":"m 1051 0 l 818 0 l 777 631 q 777 655 776 641 q 780 684 778 669 q 783 713 781 699 q 787 737 785 727 l 785 737 q 776 712 781 726 q 766 683 771 698 q 755 654 760 668 q 745 631 749 641 l 436 0 l 186 0 l 136 972 l 367 972 l 374 328 q 373 301 374 316 q 370 271 372 286 q 366 243 368 256 q 363 221 364 230 l 367 221 q 374 245 370 231 q 385 274 379 259 q 397 304 391 290 q 408 329 404 319 l 721 972 l 953 972 l 985 321 q 985 299 985 311 q 984 273 985 286 q 982 246 983 259 q 979 222 981 233 l 982 222 q 989 245 985 232 q 999 273 994 259 q 1009 301 1004 288 q 1018 325 1014 315 l 1287 972 l 1516 972 l 1051 0 z "},"X":{"ha":909,"x_min":-75,"x_max":1029,"o":"m 629 481 l 822 0 l 574 0 l 476 309 q 472 326 473 316 q 469 347 470 336 q 467 367 468 357 q 467 383 467 377 l 464 383 q 450 351 458 372 q 429 313 441 330 l 196 0 l -75 0 l 342 501 l 154 972 l 410 972 l 496 673 q 499 655 498 665 q 502 633 501 644 q 504 613 503 623 q 504 597 504 604 l 507 597 q 513 611 509 603 q 521 630 516 620 q 531 650 526 640 q 542 668 536 660 l 774 972 l 1029 972 l 629 481 z "},"Y":{"ha":844,"x_min":131,"x_max":975,"o":"m 526 353 l 453 0 l 232 0 l 306 349 l 131 972 l 368 972 l 446 603 q 452 560 451 580 q 454 525 453 541 l 456 525 q 472 564 463 544 q 492 600 481 583 l 729 972 l 975 972 l 526 353 z "},"Z":{"ha":843,"x_min":-47,"x_max":942,"o":"m 916 850 l 298 178 l 774 178 l 736 0 l -47 0 l -21 126 l 604 794 l 157 794 l 195 972 l 942 972 l 916 850 z "},"[":{"ha":514,"x_min":36,"x_max":610,"o":"m 582 836 l 433 836 l 237 -85 l 386 -85 l 357 -221 l 36 -221 l 289 972 l 610 972 l 582 836 z "},"\\":{"ha":607,"x_min":115,"x_max":533,"o":"m 350 -161 l 115 972 l 301 972 l 533 -161 l 350 -161 z "},"]":{"ha":514,"x_min":-94,"x_max":478,"o":"m 225 -221 l -94 -221 l -65 -85 l 81 -85 l 277 836 l 129 836 l 157 972 l 478 972 l 225 -221 z "},"^":{"ha":983,"x_min":170,"x_max":878,"o":"m 714 414 l 519 811 l 515 811 l 334 414 l 170 414 l 461 989 l 571 989 l 878 414 l 714 414 z "},"_":{"ha":576,"x_min":-119,"x_max":473,"o":"m -119 -201 l -103 -121 l 473 -121 l 457 -201 l -119 -201 z "},"`":{"ha":610,"x_min":197,"x_max":518,"o":"m 374 804 l 197 1025 l 376 1025 l 518 804 l 374 804 z "},"a":{"ha":823,"x_min":41,"x_max":803,"o":"m 708 229 q 699 178 703 208 q 691 116 694 149 q 685 53 687 84 q 682 0 682 22 l 465 0 q 466 26 465 10 q 469 59 467 42 q 472 91 470 75 q 475 118 473 107 l 472 118 q 431 67 452 92 q 385 24 410 43 q 327 -6 359 5 q 254 -17 296 -17 q 164 1 203 -17 q 97 54 124 20 q 56 139 70 89 q 41 252 41 189 q 48 330 41 283 q 74 428 56 376 q 126 529 93 479 q 211 621 159 580 q 337 686 263 661 q 510 711 410 711 q 588 708 549 711 q 664 700 627 705 q 737 688 702 695 q 803 675 772 682 l 708 229 m 562 554 q 528 559 547 557 q 492 561 509 561 q 410 545 445 561 q 348 505 374 530 q 304 448 322 479 q 276 383 287 416 q 261 319 266 350 q 257 264 257 288 q 262 217 257 239 q 278 180 267 196 q 305 156 289 165 q 342 147 321 147 q 411 170 380 147 q 464 227 441 192 q 502 306 486 262 q 526 392 517 349 l 562 554 z "},"b":{"ha":823,"x_min":25,"x_max":782,"o":"m 782 452 q 774 360 782 411 q 746 258 766 310 q 692 156 726 205 q 607 68 658 107 q 485 6 555 30 q 321 -17 414 -17 q 241 -12 281 -17 q 162 3 201 -7 q 89 27 124 13 q 25 58 54 41 l 231 1028 l 447 1028 l 382 722 q 375 690 379 708 q 366 653 370 671 q 357 618 361 635 q 350 590 353 602 l 355 590 q 397 639 375 616 q 447 677 420 661 q 505 703 473 694 q 572 711 536 711 q 657 695 618 711 q 723 646 695 679 q 766 565 751 614 q 782 452 782 516 m 567 428 q 545 515 567 483 q 475 547 524 547 q 414 528 442 547 q 363 478 386 509 q 323 406 340 446 q 297 321 307 365 l 261 151 q 300 139 276 144 q 351 134 324 134 q 415 146 386 134 q 468 181 444 159 q 511 232 492 203 q 542 293 529 260 q 561 361 554 326 q 567 428 567 395 z "},"c":{"ha":642,"x_min":41,"x_max":650,"o":"m 611 504 q 551 534 588 522 q 472 547 515 547 q 382 524 422 547 q 315 465 342 501 q 272 382 287 428 q 257 293 257 337 q 290 185 257 223 q 387 147 322 147 q 430 151 408 147 q 473 162 452 155 q 515 178 495 170 q 551 197 535 187 l 518 33 q 420 -4 472 9 q 315 -17 368 -17 q 196 4 248 -17 q 111 63 145 25 q 59 154 76 101 q 41 269 41 206 q 55 383 41 328 q 93 487 68 438 q 155 577 118 536 q 240 648 192 618 q 346 695 288 678 q 471 711 404 711 q 530 708 502 711 q 581 698 557 704 q 621 685 604 692 q 650 672 639 678 l 611 504 z "},"d":{"ha":823,"x_min":41,"x_max":876,"o":"m 708 229 q 699 178 703 208 q 691 116 694 149 q 685 53 687 84 q 682 0 682 22 l 465 0 q 466 25 465 9 q 469 58 467 41 q 472 91 471 75 q 475 117 474 107 l 472 117 q 428 62 451 87 q 379 20 406 38 q 323 -7 353 3 q 256 -17 292 -17 q 166 1 205 -17 q 98 52 126 18 q 56 135 71 85 q 41 249 41 185 q 72 424 41 340 q 160 572 102 508 q 302 673 218 635 q 492 711 385 711 q 547 709 519 711 q 593 703 575 706 l 663 1028 l 876 1028 l 708 229 m 562 553 q 528 559 547 557 q 492 561 509 561 q 410 545 445 561 q 348 504 374 530 q 304 447 322 479 q 276 381 287 414 q 261 318 266 349 q 257 264 257 287 q 262 217 257 239 q 278 180 268 196 q 306 156 289 165 q 345 147 322 147 q 411 169 382 147 q 464 227 441 191 q 502 307 486 262 q 528 396 517 351 l 562 553 z "},"e":{"ha":722,"x_min":41,"x_max":713,"o":"m 713 515 q 690 417 713 462 q 614 340 667 372 q 473 289 561 307 q 253 268 385 270 q 252 261 252 264 q 252 254 252 258 q 258 212 252 233 q 282 174 265 191 q 326 147 298 157 q 393 136 353 136 q 447 141 418 136 q 505 154 475 145 q 565 174 535 162 q 619 200 594 186 l 586 40 q 538 19 565 29 q 479 1 511 9 q 412 -12 448 -7 q 339 -17 376 -17 q 204 6 260 -17 q 112 68 148 29 q 58 159 75 107 q 41 271 41 212 q 71 439 41 359 q 155 580 100 519 q 287 676 210 640 q 458 711 363 711 q 575 695 527 711 q 654 651 623 679 q 699 589 684 624 q 713 515 713 553 m 509 513 q 490 554 509 538 q 437 571 471 571 q 380 558 408 571 q 330 523 353 545 q 291 468 307 500 q 267 400 275 437 q 449 428 389 399 q 509 513 509 457 z "},"f":{"ha":521,"x_min":7,"x_max":671,"o":"m 637 861 q 596 874 618 869 q 551 880 573 880 q 477 854 503 880 q 439 771 452 827 l 422 694 l 581 694 l 547 536 l 386 536 l 221 -231 l 7 -231 l 171 536 l 53 536 l 87 694 l 204 694 l 227 794 q 333 983 255 921 q 543 1044 410 1044 q 613 1039 578 1044 q 671 1026 648 1034 l 637 861 z "},"g":{"ha":823,"x_min":-22,"x_max":803,"o":"m 677 83 q 627 -83 659 -7 q 541 -212 595 -158 q 404 -296 486 -266 q 203 -326 322 -326 q 81 -312 137 -326 q -22 -275 26 -298 l 16 -103 q 109 -150 58 -132 q 216 -168 160 -168 q 309 -154 269 -168 q 377 -112 349 -140 q 425 -43 406 -84 q 456 52 444 -2 l 468 113 l 465 113 q 427 63 448 86 q 380 22 406 39 q 324 -6 355 4 q 254 -17 293 -17 q 162 2 201 -17 q 95 56 122 22 q 55 139 68 91 q 41 245 41 187 q 54 361 41 304 q 92 470 66 418 q 155 566 117 522 q 243 643 193 610 q 357 693 294 675 q 496 711 420 711 q 579 708 538 711 q 661 700 621 705 q 736 689 701 695 q 803 676 772 682 l 677 83 m 562 554 q 526 559 547 557 q 482 561 505 561 q 394 538 435 561 q 323 475 353 515 q 275 380 292 435 q 257 264 257 326 q 262 217 257 239 q 278 180 267 196 q 305 156 289 165 q 342 147 321 147 q 392 158 369 147 q 433 188 414 169 q 466 231 452 206 q 492 282 481 255 q 512 337 504 309 q 526 390 521 365 l 562 554 z "},"h":{"ha":831,"x_min":11,"x_max":781,"o":"m 781 529 q 779 502 781 519 q 773 467 777 485 q 767 431 770 448 q 761 401 764 414 l 676 0 l 461 0 l 545 396 q 553 441 549 418 q 557 476 557 464 q 539 529 557 510 q 489 547 522 547 q 433 531 463 547 q 377 486 404 514 q 330 421 351 458 q 300 342 309 384 l 228 0 l 11 0 l 229 1028 l 446 1028 l 346 561 l 349 561 q 404 621 374 593 q 468 668 434 648 q 537 700 501 688 q 607 711 572 711 q 736 664 692 711 q 781 529 781 617 z "},"i":{"ha":441,"x_min":54,"x_max":433,"o":"m 433 918 q 423 871 433 892 q 396 834 413 850 q 355 811 378 819 q 304 803 332 803 q 257 811 279 803 q 219 832 235 819 q 194 865 203 846 q 184 907 184 884 q 194 954 184 933 q 221 990 204 975 q 262 1014 239 1006 q 314 1022 286 1022 q 361 1014 340 1022 q 399 992 383 1006 q 424 960 415 979 q 433 918 433 941 m 363 6 q 335 -1 351 3 q 301 -7 319 -4 q 263 -12 283 -10 q 225 -14 244 -14 q 148 -2 180 -14 q 94 32 115 10 q 63 82 73 53 q 54 147 54 112 q 55 180 54 162 q 60 219 57 199 q 66 259 62 239 q 74 299 70 280 q 83 341 77 311 q 98 412 90 372 q 116 497 106 452 q 134 581 125 541 q 149 652 142 621 q 158 694 155 683 l 375 694 l 292 304 q 281 251 287 280 q 275 199 275 221 q 291 163 275 174 q 328 153 307 153 q 364 157 346 153 q 397 167 382 161 q 380 86 388 126 q 363 6 372 47 z "},"j":{"ha":365,"x_min":-233,"x_max":433,"o":"m 433 918 q 423 871 433 892 q 396 834 413 850 q 355 811 378 819 q 304 803 332 803 q 257 811 279 803 q 219 832 235 819 q 194 865 203 846 q 184 907 184 884 q 194 954 184 933 q 221 990 204 975 q 262 1014 239 1006 q 314 1022 286 1022 q 361 1014 340 1022 q 399 992 383 1006 q 424 960 415 979 q 433 918 433 941 m 235 36 q 193 -103 219 -37 q 124 -218 167 -169 q 21 -297 82 -268 q -125 -326 -40 -326 q -184 -320 -155 -326 q -233 -304 -214 -314 l -199 -140 q -184 -149 -193 -144 q -166 -156 -176 -153 q -146 -161 -156 -159 q -127 -163 -136 -163 q -41 -121 -77 -163 q 14 14 -6 -80 l 158 694 l 375 694 l 235 36 z "},"k":{"ha":781,"x_min":11,"x_max":843,"o":"m 518 367 l 697 0 l 458 0 l 306 361 l 302 361 l 227 0 l 11 0 l 229 1028 l 446 1028 l 310 393 l 313 393 l 589 694 l 843 694 l 518 367 z "},"l":{"ha":441,"x_min":54,"x_max":446,"o":"m 363 6 q 335 -1 351 3 q 301 -7 319 -4 q 263 -12 283 -10 q 225 -14 244 -14 q 148 -2 180 -14 q 94 32 115 10 q 63 82 73 53 q 54 147 54 112 q 55 180 54 162 q 60 219 57 199 q 66 259 62 239 q 74 299 70 280 q 83 342 76 308 q 101 427 90 376 q 125 538 112 477 q 152 664 138 600 q 178 789 165 728 q 202 901 191 850 q 220 985 213 951 q 229 1028 227 1019 l 446 1028 l 292 304 q 281 251 287 280 q 275 199 275 221 q 291 163 275 174 q 328 153 307 153 q 364 157 346 153 q 397 167 382 161 q 380 86 388 126 q 363 6 372 47 z "},"m":{"ha":1265,"x_min":11,"x_max":1215,"o":"m 1215 529 q 1213 502 1215 519 q 1208 467 1211 485 q 1202 431 1205 448 q 1196 401 1198 414 l 1111 0 l 896 0 l 981 396 q 989 441 985 418 q 993 476 993 464 q 977 529 993 510 q 926 547 960 547 q 871 530 901 547 q 816 484 842 512 q 770 418 790 455 q 742 343 750 382 l 671 0 l 454 0 l 539 396 q 547 441 543 418 q 551 476 551 464 q 535 529 551 510 q 485 547 518 547 q 429 530 458 547 q 374 483 400 512 q 329 418 349 454 q 301 343 309 381 l 228 0 l 11 0 l 114 476 q 126 539 120 507 q 137 599 132 570 q 145 653 142 628 q 151 694 149 677 l 363 694 q 358 655 361 675 q 354 615 356 634 q 349 582 351 596 q 346 561 347 567 l 349 561 q 403 621 374 593 q 465 668 433 648 q 532 700 498 688 q 602 711 567 711 q 724 669 683 711 q 772 553 766 627 q 829 617 798 588 q 894 667 859 646 q 966 700 928 688 q 1042 711 1003 711 q 1172 664 1128 711 q 1215 529 1215 617 z "},"n":{"ha":831,"x_min":11,"x_max":781,"o":"m 781 529 q 779 502 781 519 q 773 467 777 485 q 767 431 770 448 q 761 401 764 414 l 676 0 l 461 0 l 545 396 q 553 441 549 418 q 557 476 557 464 q 540 528 557 509 q 490 547 524 547 q 432 530 463 547 q 376 484 402 513 q 329 419 349 456 q 301 343 309 382 l 229 0 l 11 0 l 114 476 q 126 539 120 507 q 137 599 132 570 q 145 653 142 628 q 151 694 149 677 l 363 694 q 358 655 361 675 q 354 615 356 634 q 349 582 351 596 q 346 561 347 567 l 349 561 q 402 620 372 592 q 466 667 432 647 q 535 700 499 688 q 607 711 571 711 q 737 664 693 711 q 781 529 781 616 z "},"o":{"ha":799,"x_min":41,"x_max":757,"o":"m 757 419 q 747 320 757 371 q 718 221 738 269 q 665 129 697 172 q 587 53 633 85 q 481 2 541 21 q 345 -17 421 -17 q 210 5 267 -17 q 115 67 153 28 q 60 160 78 106 q 41 277 41 214 q 52 379 41 327 q 83 479 62 431 q 138 569 104 527 q 217 643 171 612 q 322 693 263 675 q 456 711 382 711 q 584 691 528 711 q 679 632 640 670 q 737 539 717 593 q 757 419 757 486 m 541 416 q 534 469 541 445 q 514 510 527 493 q 481 537 500 528 q 437 547 463 547 q 361 523 395 547 q 304 460 328 498 q 269 373 281 421 q 257 277 257 325 q 286 181 257 215 q 361 147 315 147 q 438 171 405 147 q 495 233 472 195 q 529 319 517 271 q 541 416 541 368 z "},"p":{"ha":823,"x_min":-58,"x_max":782,"o":"m 782 454 q 770 340 782 397 q 733 230 758 283 q 673 133 709 178 q 587 54 636 87 q 477 2 538 21 q 342 -17 416 -17 q 282 -13 315 -17 q 227 -3 250 -9 l 158 -319 l -58 -319 l 109 465 q 118 517 113 486 q 128 581 123 548 q 137 644 133 613 q 142 694 141 674 l 353 694 q 351 668 352 684 q 347 635 349 652 q 343 603 345 618 q 339 576 340 587 l 342 576 q 385 629 361 605 q 437 672 408 654 q 500 701 466 690 q 574 711 534 711 q 658 694 620 711 q 724 645 696 677 q 767 564 751 612 q 782 454 782 516 m 567 429 q 563 474 567 453 q 547 512 558 496 q 519 538 536 528 q 476 547 502 547 q 408 525 438 547 q 354 468 377 503 q 315 390 331 433 q 290 304 299 347 l 254 146 q 274 141 262 143 q 297 137 285 139 q 320 135 309 136 q 340 134 332 134 q 432 158 391 134 q 504 224 474 183 q 550 319 534 265 q 567 429 567 372 z "},"q":{"ha":823,"x_min":41,"x_max":802,"o":"m 591 -319 l 376 -319 l 437 -28 q 445 5 441 -14 q 454 43 450 24 q 463 79 458 62 q 471 107 468 96 l 468 107 q 426 58 449 81 q 377 19 404 35 q 321 -7 351 2 q 256 -17 290 -17 q 165 1 205 -17 q 98 54 125 19 q 56 138 71 88 q 41 250 41 187 q 51 344 41 293 q 81 446 60 395 q 137 545 102 497 q 223 630 172 593 q 344 689 275 667 q 504 711 414 711 q 598 707 554 711 q 681 697 643 703 q 749 683 719 690 q 802 669 780 675 l 591 -319 m 561 551 q 527 558 545 555 q 488 561 509 561 q 411 546 445 561 q 351 507 377 532 q 308 452 326 483 q 278 388 290 420 q 262 324 267 355 q 257 267 257 292 q 262 219 257 241 q 277 181 267 197 q 304 156 288 165 q 343 147 320 147 q 393 158 370 147 q 433 186 415 168 q 466 228 452 204 q 492 277 481 252 q 511 330 503 303 q 525 380 519 357 l 561 551 z "},"r":{"ha":555,"x_min":11,"x_max":607,"o":"m 564 497 l 562 497 q 526 511 548 505 q 485 517 504 517 q 413 499 445 517 q 357 450 381 481 q 316 379 332 420 q 289 292 299 338 l 228 0 l 11 0 l 106 443 q 119 509 113 475 q 131 575 125 543 q 141 639 137 608 q 149 694 146 669 l 361 694 q 356 654 359 675 q 352 613 354 633 q 347 578 349 594 q 343 554 345 563 l 346 554 q 434 672 388 632 q 542 711 481 711 q 576 708 559 711 q 607 703 593 705 l 564 497 z "},"s":{"ha":610,"x_min":3,"x_max":587,"o":"m 554 521 q 521 536 540 528 q 480 549 502 543 q 437 559 459 555 q 393 564 414 564 q 322 545 344 564 q 301 498 301 526 q 322 453 301 471 q 378 418 343 435 q 449 378 418 398 q 500 335 479 359 q 530 282 520 311 q 541 214 541 252 q 524 131 541 172 q 469 57 507 90 q 369 3 431 24 q 216 -17 307 -17 q 161 -14 191 -17 q 104 -7 132 -12 q 49 5 75 -2 q 3 20 23 12 l 35 183 q 75 164 52 174 q 124 147 98 155 q 178 134 151 139 q 233 129 206 129 q 309 146 284 129 q 334 195 334 164 q 315 240 334 220 q 249 281 296 259 q 181 319 210 299 q 131 362 151 338 q 100 415 111 386 q 90 481 90 444 q 105 561 90 519 q 156 635 121 602 q 249 690 191 669 q 392 711 307 711 q 445 709 418 711 q 498 703 472 707 q 547 693 524 699 q 587 682 570 688 l 554 521 z "},"t":{"ha":521,"x_min":43,"x_max":564,"o":"m 526 536 l 364 536 l 309 277 q 305 258 307 268 q 301 237 303 248 q 298 218 300 227 q 297 203 297 209 q 311 163 297 176 q 355 150 324 150 q 376 152 363 150 q 402 157 389 154 q 427 164 415 161 q 447 171 439 168 l 414 12 q 384 3 401 7 q 345 -6 366 -2 q 301 -13 324 -10 q 257 -16 279 -16 q 171 -2 205 -16 q 116 34 136 11 q 86 89 95 58 q 78 157 78 120 q 79 182 78 168 q 83 211 81 196 q 89 241 85 226 q 94 269 92 256 l 150 536 l 43 536 l 81 694 l 183 694 l 218 857 l 444 913 l 399 694 l 564 694 l 526 536 z "},"u":{"ha":831,"x_min":45,"x_max":812,"o":"m 713 231 q 701 167 707 200 q 692 104 696 134 q 685 46 688 73 q 681 0 682 20 l 464 0 q 468 40 466 20 q 473 78 471 60 q 478 111 476 96 q 481 131 480 125 l 478 131 q 421 71 452 98 q 358 24 391 43 q 291 -6 326 5 q 220 -17 256 -17 q 89 31 134 -17 q 45 165 45 79 q 47 193 45 176 q 52 228 49 210 q 58 263 55 246 q 64 293 61 281 l 149 694 l 364 694 l 281 302 q 276 279 278 292 q 272 256 273 267 q 269 235 270 244 q 268 220 268 225 q 284 172 268 190 q 332 154 300 154 q 397 173 366 154 q 455 222 429 192 q 499 291 481 253 q 526 367 518 329 l 596 694 l 812 694 l 713 231 z "},"v":{"ha":741,"x_min":78,"x_max":810,"o":"m 408 0 l 170 0 l 78 694 l 292 694 l 319 310 q 322 279 321 297 q 323 241 323 260 q 325 202 324 221 q 323 168 325 182 l 326 168 q 339 200 332 182 q 355 236 347 217 q 371 273 363 254 q 387 309 380 292 l 574 694 l 810 694 l 408 0 z "},"w":{"ha":1104,"x_min":79,"x_max":1160,"o":"m 814 0 l 591 0 l 575 411 q 577 458 575 432 q 581 500 578 484 l 578 500 q 571 478 575 490 q 563 454 568 467 q 554 431 559 442 q 546 411 550 420 l 353 0 l 126 0 l 79 694 l 285 694 l 285 243 q 283 203 285 227 q 278 164 281 180 l 282 164 q 289 182 285 171 q 296 204 292 193 q 304 228 300 216 q 313 248 309 239 l 524 694 l 730 694 l 743 244 q 743 225 743 237 q 742 202 743 214 q 740 179 741 190 q 737 163 739 169 l 742 163 q 747 180 744 170 q 755 203 751 191 q 763 227 759 216 q 770 244 767 237 l 951 694 l 1160 694 l 814 0 z "},"x":{"ha":761,"x_min":-71,"x_max":832,"o":"m 529 349 l 684 0 l 446 0 l 383 182 q 373 215 378 197 q 364 250 368 233 l 361 250 q 340 216 351 233 q 319 184 330 198 l 182 0 l -71 0 l 239 351 l 90 694 l 329 694 l 386 511 q 397 473 393 494 q 404 439 402 452 l 407 439 q 429 474 415 454 q 453 509 442 494 l 589 694 l 832 694 l 529 349 z "},"y":{"ha":747,"x_min":-109,"x_max":815,"o":"m 374 -61 q 302 -171 339 -121 q 222 -254 265 -220 q 126 -308 178 -289 q 7 -326 73 -326 q -48 -322 -16 -326 q -109 -307 -81 -317 l -72 -142 q -37 -157 -58 -152 q 5 -163 -16 -163 q 80 -144 45 -163 q 140 -83 115 -125 l 196 4 l 61 694 l 286 694 l 335 272 q 338 222 337 249 q 336 179 338 196 l 339 179 q 355 221 345 196 q 378 272 364 246 l 590 694 l 815 694 l 374 -61 z "},"z":{"ha":675,"x_min":-57,"x_max":720,"o":"m 696 586 l 285 158 l 607 158 l 574 0 l -57 0 l -39 90 l 399 536 l 92 536 l 125 694 l 720 694 l 696 586 z "},"{":{"ha":514,"x_min":56,"x_max":583,"o":"m 557 844 q 506 838 528 844 q 468 817 484 831 q 441 779 452 802 q 422 721 430 755 l 386 553 q 334 425 370 477 q 243 355 298 372 l 243 353 q 290 305 271 337 q 309 222 309 273 q 300 144 309 186 l 268 -1 q 263 -26 264 -14 q 262 -47 262 -38 q 350 -125 262 -125 l 323 -252 q 211 -237 256 -252 q 139 -197 166 -222 q 100 -138 112 -172 q 89 -65 89 -104 q 92 -28 89 -47 q 98 12 94 -9 l 134 174 q 138 198 137 186 q 139 220 139 209 q 117 282 139 262 q 56 302 94 302 l 83 429 q 167 456 136 429 q 210 542 198 483 l 245 713 q 278 814 258 772 q 322 885 297 856 q 376 931 347 914 q 439 958 406 948 q 509 970 473 967 q 583 972 545 972 l 557 844 z "},"|":{"ha":453,"x_min":155,"x_max":326,"o":"m 155 -326 l 155 1063 l 326 1063 l 326 -326 l 155 -326 z "},"}":{"ha":514,"x_min":-72,"x_max":456,"o":"m 429 294 q 344 267 374 294 q 301 182 314 239 l 265 11 q 233 -91 253 -48 q 189 -162 214 -134 q 135 -209 164 -191 q 72 -235 105 -226 q 2 -248 38 -245 q -72 -250 -34 -250 l -45 -122 q 6 -115 -16 -122 q 44 -94 28 -109 q 72 -56 60 -79 q 90 3 83 -32 l 125 171 q 177 299 142 246 q 268 368 213 351 l 268 371 q 222 418 241 387 q 203 501 203 450 q 205 537 203 518 q 212 579 207 556 l 243 724 q 248 748 246 736 q 249 770 249 760 q 161 847 249 847 l 187 974 q 300 960 254 974 q 372 921 345 945 q 411 862 399 896 q 422 790 422 829 q 420 751 422 772 q 412 710 418 730 l 378 550 q 373 526 374 537 q 372 504 372 515 q 395 440 372 461 q 456 419 417 419 l 429 294 z "},"~":{"ha":983,"x_min":140,"x_max":860,"o":"m 860 524 q 844 423 859 469 q 802 345 829 378 q 736 295 774 313 q 648 277 697 277 q 600 281 622 277 q 557 293 578 286 q 516 312 536 301 q 472 336 496 323 q 420 365 447 351 q 367 379 394 379 q 329 370 345 379 q 302 346 313 361 q 287 312 292 331 q 281 271 281 292 l 140 271 q 156 366 142 321 q 196 445 170 411 q 261 498 222 479 q 355 518 301 518 q 403 514 381 518 q 444 503 425 510 q 481 486 463 496 q 517 467 499 477 q 553 445 537 454 q 584 428 570 435 q 611 417 598 421 q 639 414 625 414 q 673 422 658 414 q 698 445 688 431 q 714 480 709 460 q 721 524 720 500 l 860 524 z "},"Ä":{"ha":977,"x_min":-69,"x_max":897,"o":"m 668 0 l 640 216 l 292 216 l 178 0 l -69 0 l 492 972 l 753 972 l 892 0 l 668 0 m 589 713 q 588 737 588 724 q 588 762 587 750 q 589 784 588 774 q 590 799 589 794 l 586 799 q 581 783 585 793 q 573 763 578 774 q 563 739 569 751 q 551 715 557 727 l 374 385 l 624 385 l 589 713 m 897 1155 q 890 1118 897 1135 q 869 1088 883 1101 q 837 1068 856 1076 q 793 1061 817 1061 q 750 1068 770 1061 q 718 1088 731 1076 q 696 1119 704 1101 q 689 1155 689 1136 q 697 1192 689 1175 q 719 1221 705 1209 q 752 1240 733 1233 q 793 1246 771 1246 q 836 1240 817 1246 q 868 1221 854 1233 q 890 1192 882 1208 q 897 1155 897 1175 m 587 1155 q 580 1118 587 1135 q 559 1088 572 1101 q 526 1068 545 1076 q 484 1061 507 1061 q 441 1068 460 1061 q 407 1088 421 1076 q 386 1119 393 1101 q 378 1155 378 1136 q 386 1192 378 1175 q 408 1221 394 1209 q 442 1240 422 1233 q 484 1246 461 1246 q 526 1240 507 1246 q 558 1221 545 1233 q 580 1192 572 1208 q 587 1155 587 1175 z "},"Å":{"ha":977,"x_min":-69,"x_max":892,"o":"m 668 0 l 640 216 l 293 216 l 178 0 l -69 0 l 484 957 q 460 997 468 974 q 452 1046 452 1020 q 467 1116 452 1086 q 507 1165 482 1146 q 562 1194 531 1185 q 624 1203 593 1203 q 694 1192 663 1203 q 748 1160 726 1180 q 782 1111 770 1139 q 794 1048 794 1082 q 784 995 794 1019 q 755 953 773 970 l 892 0 l 668 0 m 694 1048 q 675 1095 694 1076 q 621 1114 655 1114 q 591 1108 604 1114 q 570 1093 578 1102 q 556 1072 561 1084 q 551 1048 551 1061 q 570 1000 551 1020 q 621 981 588 981 q 649 986 636 981 q 673 1000 663 991 q 689 1022 683 1009 q 694 1048 694 1034 m 587 711 q 586 735 586 722 q 586 759 585 747 q 587 779 587 770 q 589 793 588 788 l 583 793 q 573 760 581 783 q 551 714 564 737 l 373 385 l 624 385 l 587 711 z "},"Ç":{"ha":882,"x_min":71,"x_max":936,"o":"m 890 737 q 847 759 870 748 q 795 778 823 770 q 735 792 768 787 q 665 798 703 798 q 510 767 577 798 q 396 686 442 737 q 326 568 350 635 q 302 427 302 501 q 321 317 302 365 q 373 238 339 270 q 454 189 407 205 q 561 172 502 172 q 631 177 598 172 q 692 191 663 182 q 748 210 722 199 q 798 233 774 221 l 751 26 q 641 -6 701 5 q 504 -17 580 -17 q 321 13 402 -17 q 185 99 241 43 q 100 232 130 155 q 71 406 71 310 q 87 555 71 482 q 136 693 103 628 q 219 812 169 758 q 336 905 269 866 q 489 967 404 945 q 679 989 575 989 q 755 985 718 989 q 825 974 791 981 q 886 960 858 968 q 936 945 914 952 l 890 737 m 630 -155 q 616 -214 630 -186 q 574 -263 603 -241 q 503 -297 546 -284 q 401 -310 460 -310 q 362 -309 380 -310 q 326 -306 343 -307 l 347 -212 q 398 -218 376 -218 q 468 -204 443 -218 q 493 -165 493 -189 q 418 -122 493 -122 q 403 -122 410 -122 q 386 -123 395 -122 l 415 0 l 519 0 l 507 -56 q 556 -63 534 -57 q 595 -82 579 -70 q 621 -113 612 -94 q 630 -155 630 -131 z "},"É":{"ha":736,"x_min":33,"x_max":821,"o":"m 762 794 l 422 794 l 376 575 l 693 575 l 654 396 l 339 396 l 292 178 l 654 178 l 616 0 l 33 0 l 240 972 l 800 972 l 762 794 m 571 1061 l 412 1061 l 625 1282 l 821 1282 l 571 1061 z "},"Ñ":{"ha":1109,"x_min":33,"x_max":1129,"o":"m 924 0 l 724 0 l 419 618 q 410 637 415 626 q 401 659 406 648 q 392 680 396 670 q 386 699 388 690 l 382 699 q 374 642 378 673 q 363 581 370 611 l 239 0 l 33 0 l 239 972 l 456 972 l 747 378 q 756 360 751 370 q 766 338 761 349 q 775 316 771 327 q 782 297 780 305 l 785 297 q 787 320 785 307 q 790 345 788 332 q 794 370 792 358 q 799 392 797 382 l 922 972 l 1129 972 l 924 0 m 968 1266 q 945 1181 961 1217 q 905 1122 928 1145 q 853 1086 882 1098 q 791 1074 824 1074 q 733 1083 757 1074 q 690 1102 709 1092 q 655 1121 671 1112 q 618 1130 638 1130 q 588 1124 601 1130 q 566 1109 575 1118 q 552 1087 557 1099 q 545 1062 547 1075 l 440 1062 q 459 1138 445 1103 q 497 1199 474 1173 q 550 1239 519 1224 q 619 1253 581 1253 q 675 1244 653 1253 q 716 1225 698 1236 q 752 1206 734 1215 q 793 1198 770 1198 q 839 1216 821 1198 q 863 1266 858 1234 l 968 1266 z "},"Ö":{"ha":1054,"x_min":75,"x_max":1025,"o":"m 1025 571 q 1015 454 1025 513 q 984 339 1004 395 q 934 233 964 284 q 864 140 904 182 q 790 75 830 104 q 703 26 750 46 q 601 -6 656 5 q 482 -17 546 -17 q 310 15 386 -17 q 182 103 235 47 q 103 235 130 159 q 75 401 75 312 q 86 526 75 465 q 119 644 97 587 q 174 752 141 701 q 250 846 207 803 q 323 904 284 878 q 408 949 363 930 q 506 979 454 968 q 618 989 558 989 q 783 960 708 989 q 911 878 858 932 q 995 746 965 824 q 1025 571 1025 669 m 793 564 q 779 662 793 618 q 739 735 765 705 q 676 782 713 766 q 593 798 640 798 q 490 772 538 798 q 403 703 441 747 q 362 640 380 675 q 332 566 345 605 q 314 485 320 526 q 307 404 307 444 q 321 306 307 349 q 361 233 335 262 q 423 188 387 203 q 504 172 459 172 q 610 197 559 172 q 699 269 661 221 q 740 333 722 298 q 769 408 758 369 q 787 486 781 446 q 793 564 793 526 m 899 1157 q 891 1120 899 1137 q 871 1090 884 1103 q 838 1070 857 1078 q 795 1063 819 1063 q 752 1070 771 1063 q 719 1090 732 1078 q 698 1121 705 1103 q 690 1157 690 1138 q 698 1194 690 1177 q 720 1223 706 1211 q 753 1242 734 1235 q 795 1249 772 1249 q 837 1242 818 1249 q 870 1223 856 1235 q 891 1194 884 1211 q 899 1157 899 1177 m 589 1157 q 581 1120 589 1137 q 560 1090 574 1103 q 528 1070 547 1078 q 485 1063 509 1063 q 442 1070 462 1063 q 409 1090 422 1078 q 387 1121 395 1103 q 379 1157 379 1138 q 387 1194 379 1177 q 410 1223 395 1211 q 443 1242 424 1235 q 485 1249 463 1249 q 527 1242 508 1249 q 560 1223 546 1235 q 581 1194 574 1211 q 589 1157 589 1177 z "},"Ü":{"ha":1004,"x_min":102,"x_max":1035,"o":"m 911 396 q 859 224 890 300 q 774 94 827 147 q 644 12 722 40 q 453 -17 566 -17 q 307 5 372 -17 q 196 70 241 28 q 126 173 151 113 q 102 311 102 234 q 107 389 102 347 q 121 468 113 431 l 229 972 l 450 972 l 340 467 q 327 395 333 431 q 321 334 321 359 q 333 264 321 294 q 366 214 345 234 q 416 183 387 193 q 478 172 445 172 q 550 184 517 172 q 610 222 583 195 q 656 292 636 248 q 690 400 677 336 l 814 972 l 1035 972 l 911 396 m 908 1156 q 901 1119 908 1137 q 880 1089 894 1102 q 847 1069 867 1077 q 804 1062 828 1062 q 761 1069 781 1062 q 728 1090 742 1077 q 707 1120 715 1103 q 700 1156 700 1137 q 708 1194 700 1177 q 730 1222 715 1211 q 763 1241 744 1234 q 804 1248 782 1248 q 846 1241 827 1248 q 879 1222 865 1234 q 901 1193 893 1210 q 908 1156 908 1176 m 598 1156 q 591 1119 598 1137 q 570 1089 583 1102 q 537 1069 556 1077 q 494 1062 518 1062 q 452 1069 471 1062 q 418 1090 432 1077 q 396 1120 404 1103 q 389 1156 389 1137 q 397 1194 389 1177 q 419 1222 405 1211 q 453 1241 433 1234 q 494 1248 472 1248 q 536 1241 517 1248 q 569 1222 555 1234 q 591 1193 583 1210 q 598 1156 598 1176 z "},"á":{"ha":823,"x_min":41,"x_max":803,"o":"m 708 229 q 699 178 703 208 q 691 116 694 149 q 685 53 687 84 q 682 0 682 22 l 465 0 q 466 26 465 10 q 469 59 467 42 q 472 91 470 75 q 475 118 473 107 l 472 118 q 431 67 452 92 q 385 24 410 43 q 327 -6 359 5 q 254 -17 296 -17 q 164 1 203 -17 q 97 54 124 20 q 56 139 70 89 q 41 252 41 189 q 48 330 41 283 q 74 428 56 376 q 126 529 93 479 q 211 621 159 580 q 337 686 263 661 q 510 711 410 711 q 588 708 549 711 q 664 700 627 705 q 737 688 702 695 q 803 675 772 682 l 708 229 m 562 554 q 528 559 547 557 q 492 561 509 561 q 410 545 445 561 q 348 505 374 530 q 304 448 322 479 q 276 383 287 416 q 261 319 266 350 q 257 264 257 288 q 262 217 257 239 q 278 180 267 196 q 305 156 289 165 q 342 147 321 147 q 411 170 380 147 q 464 227 441 192 q 502 306 486 262 q 526 392 517 349 l 562 554 m 517 804 l 358 804 l 572 1025 l 768 1025 l 517 804 z "},"à":{"ha":823,"x_min":41,"x_max":803,"o":"m 708 229 q 699 178 703 208 q 691 116 694 149 q 685 53 687 84 q 682 0 682 22 l 465 0 q 466 26 465 10 q 469 59 467 42 q 472 91 470 75 q 475 118 473 107 l 472 118 q 431 67 452 92 q 385 24 410 43 q 327 -6 359 5 q 254 -17 296 -17 q 164 1 203 -17 q 97 54 124 20 q 56 139 70 89 q 41 252 41 189 q 48 330 41 283 q 74 428 56 376 q 126 529 93 479 q 211 621 159 580 q 337 686 263 661 q 510 711 410 711 q 588 708 549 711 q 664 700 627 705 q 737 688 702 695 q 803 675 772 682 l 708 229 m 562 554 q 528 559 547 557 q 492 561 509 561 q 410 545 445 561 q 348 505 374 530 q 304 448 322 479 q 276 383 287 416 q 261 319 266 350 q 257 264 257 288 q 262 217 257 239 q 278 180 267 196 q 305 156 289 165 q 342 147 321 147 q 411 170 380 147 q 464 227 441 192 q 502 306 486 262 q 526 392 517 349 l 562 554 m 521 804 l 345 1025 l 524 1025 l 665 804 l 521 804 z "},"â":{"ha":823,"x_min":41,"x_max":803,"o":"m 708 229 q 699 178 703 208 q 691 116 694 149 q 685 53 687 84 q 682 0 682 22 l 465 0 q 466 26 465 10 q 469 59 467 42 q 472 91 470 75 q 475 118 473 107 l 472 118 q 431 67 452 92 q 385 24 410 43 q 327 -6 359 5 q 254 -17 296 -17 q 164 1 203 -17 q 97 54 124 20 q 56 139 70 89 q 41 252 41 189 q 48 330 41 283 q 74 428 56 376 q 126 529 93 479 q 211 621 159 580 q 337 686 263 661 q 510 711 410 711 q 588 708 549 711 q 664 700 627 705 q 737 688 702 695 q 803 675 772 682 l 708 229 m 562 554 q 528 559 547 557 q 492 561 509 561 q 410 545 445 561 q 348 505 374 530 q 304 448 322 479 q 276 383 287 416 q 261 319 266 350 q 257 264 257 288 q 262 217 257 239 q 278 180 267 196 q 305 156 289 165 q 342 147 321 147 q 411 170 380 147 q 464 227 441 192 q 502 306 486 262 q 526 392 517 349 l 562 554 m 607 804 l 528 933 l 395 804 l 252 804 l 457 1026 l 627 1026 l 741 804 l 607 804 z "},"ä":{"ha":823,"x_min":41,"x_max":803,"o":"m 708 229 q 699 178 703 208 q 691 116 694 149 q 685 53 687 84 q 682 0 682 22 l 465 0 q 466 26 465 10 q 469 59 467 42 q 472 91 470 75 q 475 118 473 107 l 472 118 q 431 67 452 92 q 385 24 410 43 q 327 -6 359 5 q 254 -17 296 -17 q 164 1 203 -17 q 97 54 124 20 q 56 139 70 89 q 41 252 41 189 q 48 330 41 283 q 74 428 56 376 q 126 529 93 479 q 211 621 159 580 q 337 686 263 661 q 510 711 410 711 q 588 708 549 711 q 664 700 627 705 q 737 688 702 695 q 803 675 772 682 l 708 229 m 562 554 q 528 559 547 557 q 492 561 509 561 q 410 545 445 561 q 348 505 374 530 q 304 448 322 479 q 276 383 287 416 q 261 319 266 350 q 257 264 257 288 q 262 217 257 239 q 278 180 267 196 q 305 156 289 165 q 342 147 321 147 q 411 170 380 147 q 464 227 441 192 q 502 306 486 262 q 526 392 517 349 l 562 554 m 769 899 q 762 862 769 879 q 741 832 755 844 q 708 812 728 819 q 665 804 689 804 q 622 812 642 804 q 589 832 603 819 q 568 862 576 845 q 561 899 561 880 q 569 936 561 919 q 591 965 576 953 q 624 983 605 977 q 665 990 643 990 q 707 983 688 990 q 740 964 726 977 q 762 935 754 952 q 769 899 769 918 m 459 899 q 452 862 459 879 q 431 832 444 844 q 398 812 417 819 q 355 804 379 804 q 313 812 332 804 q 279 832 293 819 q 257 862 265 845 q 250 899 250 880 q 258 936 250 919 q 280 965 266 953 q 314 983 294 977 q 355 990 333 990 q 397 983 378 990 q 430 964 416 977 q 452 935 444 952 q 459 899 459 918 z "},"ã":{"ha":823,"x_min":41,"x_max":803,"o":"m 708 229 q 699 178 703 208 q 691 116 694 149 q 685 53 687 84 q 682 0 682 22 l 465 0 q 466 26 465 10 q 469 59 467 42 q 472 91 470 75 q 475 118 473 107 l 472 118 q 431 67 452 92 q 385 24 410 43 q 327 -6 359 5 q 254 -17 296 -17 q 164 1 203 -17 q 97 54 124 20 q 56 139 70 89 q 41 252 41 189 q 48 330 41 283 q 74 428 56 376 q 126 529 93 479 q 211 621 159 580 q 337 686 263 661 q 510 711 410 711 q 588 708 549 711 q 664 700 627 705 q 737 688 702 695 q 803 675 772 682 l 708 229 m 562 554 q 528 559 547 557 q 492 561 509 561 q 410 545 445 561 q 348 505 374 530 q 304 448 322 479 q 276 383 287 416 q 261 319 266 350 q 257 264 257 288 q 262 217 257 239 q 278 180 267 196 q 305 156 289 165 q 342 147 321 147 q 411 170 380 147 q 464 227 441 192 q 502 306 486 262 q 526 392 517 349 l 562 554 m 779 1008 q 756 924 772 960 q 716 864 740 888 q 664 828 693 840 q 603 817 635 817 q 544 825 568 817 q 502 844 520 834 q 466 863 483 854 q 429 872 450 872 q 399 866 412 872 q 378 851 387 861 q 363 829 369 842 q 356 804 358 817 l 252 804 q 271 881 256 846 q 308 941 286 916 q 362 981 331 966 q 431 996 393 996 q 487 987 465 996 q 528 968 509 978 q 564 949 546 958 q 604 940 581 940 q 651 958 632 940 q 674 1008 669 976 l 779 1008 z "},"å":{"ha":823,"x_min":41,"x_max":803,"o":"m 708 229 q 699 178 703 208 q 691 116 694 149 q 685 53 687 84 q 682 0 682 22 l 465 0 q 466 26 465 10 q 469 59 467 42 q 472 91 470 75 q 475 118 473 107 l 472 118 q 431 67 452 92 q 385 24 410 43 q 327 -6 359 5 q 254 -17 296 -17 q 164 1 203 -17 q 97 54 124 20 q 56 139 70 89 q 41 252 41 189 q 48 330 41 283 q 74 428 56 376 q 126 529 93 479 q 211 621 159 580 q 337 686 263 661 q 510 711 410 711 q 588 708 549 711 q 664 700 627 705 q 737 688 702 695 q 803 675 772 682 l 708 229 m 562 554 q 528 559 547 557 q 492 561 509 561 q 410 545 445 561 q 348 505 374 530 q 304 448 322 479 q 276 383 287 416 q 261 319 266 350 q 257 264 257 288 q 262 217 257 239 q 278 180 267 196 q 305 156 289 165 q 342 147 321 147 q 411 170 380 147 q 464 227 441 192 q 502 306 486 262 q 526 392 517 349 l 562 554 m 692 935 q 678 870 692 898 q 641 823 664 842 q 588 794 618 804 q 527 785 558 785 q 465 795 494 785 q 414 824 435 805 q 380 870 393 843 q 368 930 368 897 q 382 997 368 968 q 419 1043 396 1025 q 471 1071 442 1062 q 530 1080 500 1080 q 597 1069 567 1080 q 648 1039 627 1059 q 681 993 669 1020 q 692 935 692 966 m 597 933 q 578 978 597 959 q 527 997 559 997 q 499 991 511 997 q 479 976 487 985 q 466 956 471 967 q 462 933 462 945 q 479 888 462 906 q 527 869 496 869 q 577 887 557 869 q 597 933 597 905 z "},"ç":{"ha":642,"x_min":41,"x_max":650,"o":"m 611 504 q 551 534 588 522 q 472 547 515 547 q 382 524 422 547 q 315 465 342 501 q 272 382 287 428 q 257 293 257 337 q 290 185 257 223 q 387 147 322 147 q 430 151 408 147 q 473 162 452 155 q 515 178 495 170 q 551 197 535 187 l 518 33 q 420 -4 472 9 q 315 -17 368 -17 q 196 4 248 -17 q 111 63 145 25 q 59 154 76 101 q 41 269 41 206 q 55 383 41 328 q 93 487 68 438 q 155 577 118 536 q 240 648 192 618 q 346 695 288 678 q 471 711 404 711 q 530 708 502 711 q 581 698 557 704 q 621 685 604 692 q 650 672 639 678 l 611 504 m 446 -155 q 432 -214 446 -186 q 390 -263 418 -241 q 318 -297 361 -284 q 216 -310 275 -310 q 177 -309 196 -310 q 142 -306 159 -307 l 163 -212 q 214 -218 191 -218 q 283 -204 258 -218 q 309 -165 309 -189 q 233 -122 309 -122 q 218 -122 226 -122 q 201 -123 211 -122 l 231 0 l 335 0 l 322 -56 q 372 -63 349 -57 q 411 -82 395 -70 q 436 -113 427 -94 q 446 -155 446 -131 z "},"é":{"ha":722,"x_min":41,"x_max":728,"o":"m 713 515 q 690 417 713 462 q 614 340 667 372 q 473 289 561 307 q 253 268 385 270 q 252 261 252 264 q 252 254 252 258 q 258 212 252 233 q 282 174 265 191 q 326 147 298 157 q 393 136 353 136 q 447 141 418 136 q 505 154 475 145 q 565 174 535 162 q 619 200 594 186 l 586 40 q 538 19 565 29 q 479 1 511 9 q 412 -12 448 -7 q 339 -17 376 -17 q 204 6 260 -17 q 112 68 148 29 q 58 159 75 107 q 41 271 41 212 q 71 439 41 359 q 155 580 100 519 q 287 676 210 640 q 458 711 363 711 q 575 695 527 711 q 654 651 623 679 q 699 589 684 624 q 713 515 713 553 m 509 513 q 490 554 509 538 q 437 571 471 571 q 380 558 408 571 q 330 523 353 545 q 291 468 307 500 q 267 400 275 437 q 449 428 389 399 q 509 513 509 457 m 478 804 l 319 804 l 532 1025 l 728 1025 l 478 804 z "},"è":{"ha":722,"x_min":41,"x_max":713,"o":"m 713 515 q 690 417 713 462 q 614 340 667 372 q 473 289 561 307 q 253 268 385 270 q 252 261 252 264 q 252 254 252 258 q 258 212 252 233 q 282 174 265 191 q 326 147 298 157 q 393 136 353 136 q 447 141 418 136 q 505 154 475 145 q 565 174 535 162 q 619 200 594 186 l 586 40 q 538 19 565 29 q 479 1 511 9 q 412 -12 448 -7 q 339 -17 376 -17 q 204 6 260 -17 q 112 68 148 29 q 58 159 75 107 q 41 271 41 212 q 71 439 41 359 q 155 580 100 519 q 287 676 210 640 q 458 711 363 711 q 575 695 527 711 q 654 651 623 679 q 699 589 684 624 q 713 515 713 553 m 509 513 q 490 554 509 538 q 437 571 471 571 q 380 558 408 571 q 330 523 353 545 q 291 468 307 500 q 267 400 275 437 q 449 428 389 399 q 509 513 509 457 m 448 804 l 272 1025 l 451 1025 l 593 804 l 448 804 z "},"ê":{"ha":722,"x_min":41,"x_max":713,"o":"m 713 515 q 690 417 713 462 q 614 340 667 372 q 473 289 561 307 q 253 268 385 270 q 252 261 252 264 q 252 254 252 258 q 258 212 252 233 q 282 174 265 191 q 326 147 298 157 q 393 136 353 136 q 447 141 418 136 q 505 154 475 145 q 565 174 535 162 q 619 200 594 186 l 586 40 q 538 19 565 29 q 479 1 511 9 q 412 -12 448 -7 q 339 -17 376 -17 q 204 6 260 -17 q 112 68 148 29 q 58 159 75 107 q 41 271 41 212 q 71 439 41 359 q 155 580 100 519 q 287 676 210 640 q 458 711 363 711 q 575 695 527 711 q 654 651 623 679 q 699 589 684 624 q 713 515 713 553 m 509 513 q 490 554 509 538 q 437 571 471 571 q 380 558 408 571 q 330 523 353 545 q 291 468 307 500 q 267 400 275 437 q 449 428 389 399 q 509 513 509 457 m 572 804 l 493 933 l 359 804 l 216 804 l 422 1026 l 591 1026 l 705 804 l 572 804 z "},"ë":{"ha":722,"x_min":41,"x_max":721,"o":"m 713 515 q 690 417 713 462 q 614 340 667 372 q 473 289 561 307 q 253 268 385 270 q 252 261 252 264 q 252 254 252 258 q 258 212 252 233 q 282 174 265 191 q 326 147 298 157 q 393 136 353 136 q 447 141 418 136 q 505 154 475 145 q 565 174 535 162 q 619 200 594 186 l 586 40 q 538 19 565 29 q 479 1 511 9 q 412 -12 448 -7 q 339 -17 376 -17 q 204 6 260 -17 q 112 68 148 29 q 58 159 75 107 q 41 271 41 212 q 71 439 41 359 q 155 580 100 519 q 287 676 210 640 q 458 711 363 711 q 575 695 527 711 q 654 651 623 679 q 699 589 684 624 q 713 515 713 553 m 509 513 q 490 554 509 538 q 437 571 471 571 q 380 558 408 571 q 330 523 353 545 q 291 468 307 500 q 267 400 275 437 q 449 428 389 399 q 509 513 509 457 m 721 899 q 714 862 721 879 q 693 832 707 844 q 660 812 680 819 q 617 804 641 804 q 574 812 593 804 q 541 832 555 819 q 520 862 528 845 q 513 899 513 880 q 520 936 513 919 q 543 965 528 953 q 576 983 557 977 q 617 990 595 990 q 659 983 640 990 q 692 964 678 977 q 713 935 706 952 q 721 899 721 918 m 411 899 q 404 862 411 879 q 382 832 396 844 q 350 812 369 819 q 307 804 331 804 q 264 812 284 804 q 231 832 245 819 q 209 862 217 845 q 201 899 201 880 q 210 936 201 919 q 232 965 218 953 q 266 983 246 977 q 307 990 285 990 q 349 983 330 990 q 382 964 368 977 q 404 935 396 952 q 411 899 411 918 z "},"í":{"ha":441,"x_min":54,"x_max":542,"o":"m 363 6 q 335 -1 351 3 q 301 -7 319 -4 q 263 -12 283 -10 q 225 -14 244 -14 q 148 -2 180 -14 q 94 32 115 10 q 63 82 73 53 q 54 147 54 112 q 55 180 54 162 q 60 219 57 199 q 66 259 62 239 q 74 299 70 280 q 83 341 77 311 q 98 412 90 372 q 116 497 106 452 q 134 581 125 541 q 149 652 142 621 q 158 694 155 683 l 375 694 l 292 304 q 281 251 287 280 q 275 199 275 221 q 291 163 275 174 q 328 153 307 153 q 364 157 346 153 q 397 167 382 161 q 380 86 388 126 q 363 6 372 47 m 292 804 l 132 804 l 346 1025 l 542 1025 l 292 804 z "},"ì":{"ha":441,"x_min":54,"x_max":443,"o":"m 363 6 q 335 -1 351 3 q 301 -7 319 -4 q 263 -12 283 -10 q 225 -14 244 -14 q 148 -2 180 -14 q 94 32 115 10 q 63 82 73 53 q 54 147 54 112 q 55 180 54 162 q 60 219 57 199 q 66 259 62 239 q 74 299 70 280 q 83 341 77 311 q 98 412 90 372 q 116 497 106 452 q 134 581 125 541 q 149 652 142 621 q 158 694 155 683 l 375 694 l 292 304 q 281 251 287 280 q 275 199 275 221 q 291 163 275 174 q 328 153 307 153 q 364 157 346 153 q 397 167 382 161 q 380 86 388 126 q 363 6 372 47 m 298 804 l 122 1025 l 301 1025 l 443 804 l 298 804 z "},"î":{"ha":441,"x_min":35,"x_max":524,"o":"m 363 6 q 335 -1 351 3 q 301 -7 319 -4 q 263 -12 283 -10 q 225 -14 244 -14 q 148 -2 180 -14 q 94 32 115 10 q 63 82 73 53 q 54 147 54 112 q 55 180 54 162 q 60 219 57 199 q 66 259 62 239 q 74 299 70 280 q 83 341 77 311 q 98 412 90 372 q 116 497 106 452 q 134 581 125 541 q 149 652 142 621 q 158 694 155 683 l 375 694 l 292 304 q 281 251 287 280 q 275 199 275 221 q 291 163 275 174 q 328 153 307 153 q 364 157 346 153 q 397 167 382 161 q 380 86 388 126 q 363 6 372 47 m 390 804 l 311 933 l 178 804 l 35 804 l 240 1026 l 410 1026 l 524 804 l 390 804 z "},"ï":{"ha":441,"x_min":24,"x_max":544,"o":"m 363 6 q 335 -1 351 3 q 301 -7 319 -4 q 263 -12 283 -10 q 225 -14 244 -14 q 148 -2 180 -14 q 94 32 115 10 q 63 82 73 53 q 54 147 54 112 q 55 180 54 162 q 60 219 57 199 q 66 259 62 239 q 74 299 70 280 q 83 341 77 311 q 98 412 90 372 q 116 497 106 452 q 134 581 125 541 q 149 652 142 621 q 158 694 155 683 l 375 694 l 292 304 q 281 251 287 280 q 275 199 275 221 q 291 163 275 174 q 328 153 307 153 q 364 157 346 153 q 397 167 382 161 q 380 86 388 126 q 363 6 372 47 m 544 899 q 537 862 544 879 q 516 832 530 844 q 483 812 503 819 q 440 804 464 804 q 397 812 416 804 q 364 832 378 819 q 343 862 351 845 q 336 899 336 880 q 343 936 336 919 q 366 965 351 953 q 399 983 380 977 q 440 990 418 990 q 482 983 463 990 q 515 964 501 977 q 536 935 529 952 q 544 899 544 918 m 234 899 q 227 862 234 879 q 205 832 219 844 q 173 812 192 819 q 130 804 154 804 q 87 812 107 804 q 54 832 68 819 q 32 862 40 845 q 24 899 24 880 q 33 936 24 919 q 55 965 41 953 q 89 983 69 977 q 130 990 108 990 q 172 983 153 990 q 205 964 191 977 q 227 935 219 952 q 234 899 234 918 z "},"ñ":{"ha":831,"x_min":11,"x_max":781,"o":"m 781 529 q 779 502 781 519 q 773 467 777 485 q 767 431 770 448 q 761 401 764 414 l 676 0 l 461 0 l 545 396 q 553 441 549 418 q 557 476 557 464 q 540 528 557 509 q 490 547 524 547 q 432 530 463 547 q 376 484 402 513 q 329 419 349 456 q 301 343 309 382 l 229 0 l 11 0 l 114 476 q 126 539 120 507 q 137 599 132 570 q 145 653 142 628 q 151 694 149 677 l 363 694 q 358 655 361 675 q 354 615 356 634 q 349 582 351 596 q 346 561 347 567 l 349 561 q 402 620 372 592 q 466 667 432 647 q 535 700 499 688 q 607 711 571 711 q 737 664 693 711 q 781 529 781 616 m 768 1008 q 745 924 761 960 q 705 864 728 888 q 653 828 682 840 q 591 817 624 817 q 533 825 557 817 q 490 844 509 834 q 455 863 471 854 q 418 872 438 872 q 388 866 401 872 q 366 851 375 861 q 352 829 357 842 q 345 804 347 817 l 240 804 q 259 881 245 846 q 297 941 274 916 q 350 981 319 966 q 419 996 381 996 q 475 987 453 996 q 516 968 498 978 q 552 949 534 958 q 593 940 570 940 q 639 958 621 940 q 663 1008 658 976 l 768 1008 z "},"ó":{"ha":799,"x_min":41,"x_max":757,"o":"m 757 419 q 747 320 757 371 q 718 221 738 269 q 665 129 697 172 q 587 53 633 85 q 481 2 541 21 q 345 -17 421 -17 q 210 5 267 -17 q 115 67 153 28 q 60 160 78 106 q 41 277 41 214 q 52 379 41 327 q 83 479 62 431 q 138 569 104 527 q 217 643 171 612 q 322 693 263 675 q 456 711 382 711 q 584 691 528 711 q 679 632 640 670 q 737 539 717 593 q 757 419 757 486 m 541 416 q 534 469 541 445 q 514 510 527 493 q 481 537 500 528 q 437 547 463 547 q 361 523 395 547 q 304 460 328 498 q 269 373 281 421 q 257 277 257 325 q 286 181 257 215 q 361 147 315 147 q 438 171 405 147 q 495 233 472 195 q 529 319 517 271 q 541 416 541 368 m 484 804 l 325 804 l 538 1025 l 734 1025 l 484 804 z "},"ò":{"ha":799,"x_min":41,"x_max":757,"o":"m 757 419 q 747 320 757 371 q 718 221 738 269 q 665 129 697 172 q 587 53 633 85 q 481 2 541 21 q 345 -17 421 -17 q 210 5 267 -17 q 115 67 153 28 q 60 160 78 106 q 41 277 41 214 q 52 379 41 327 q 83 479 62 431 q 138 569 104 527 q 217 643 171 612 q 322 693 263 675 q 456 711 382 711 q 584 691 528 711 q 679 632 640 670 q 737 539 717 593 q 757 419 757 486 m 541 416 q 534 469 541 445 q 514 510 527 493 q 481 537 500 528 q 437 547 463 547 q 361 523 395 547 q 304 460 328 498 q 269 373 281 421 q 257 277 257 325 q 286 181 257 215 q 361 147 315 147 q 438 171 405 147 q 495 233 472 195 q 529 319 517 271 q 541 416 541 368 m 464 804 l 288 1025 l 467 1025 l 608 804 l 464 804 z "},"ô":{"ha":799,"x_min":41,"x_max":757,"o":"m 757 419 q 747 320 757 371 q 718 221 738 269 q 665 129 697 172 q 587 53 633 85 q 481 2 541 21 q 345 -17 421 -17 q 210 5 267 -17 q 115 67 153 28 q 60 160 78 106 q 41 277 41 214 q 52 379 41 327 q 83 479 62 431 q 138 569 104 527 q 217 643 171 612 q 322 693 263 675 q 456 711 382 711 q 584 691 528 711 q 679 632 640 670 q 737 539 717 593 q 757 419 757 486 m 541 416 q 534 469 541 445 q 514 510 527 493 q 481 537 500 528 q 437 547 463 547 q 361 523 395 547 q 304 460 328 498 q 269 373 281 421 q 257 277 257 325 q 286 181 257 215 q 361 147 315 147 q 438 171 405 147 q 495 233 472 195 q 529 319 517 271 q 541 416 541 368 m 572 804 l 494 933 l 360 804 l 217 804 l 422 1026 l 592 1026 l 706 804 l 572 804 z "},"ö":{"ha":799,"x_min":41,"x_max":757,"o":"m 757 419 q 747 320 757 371 q 718 221 738 269 q 665 129 697 172 q 587 53 633 85 q 481 2 541 21 q 345 -17 421 -17 q 210 5 267 -17 q 115 67 153 28 q 60 160 78 106 q 41 277 41 214 q 52 379 41 327 q 83 479 62 431 q 138 569 104 527 q 217 643 171 612 q 322 693 263 675 q 456 711 382 711 q 584 691 528 711 q 679 632 640 670 q 737 539 717 593 q 757 419 757 486 m 541 416 q 534 469 541 445 q 514 510 527 493 q 481 537 500 528 q 437 547 463 547 q 361 523 395 547 q 304 460 328 498 q 269 373 281 421 q 257 277 257 325 q 286 181 257 215 q 361 147 315 147 q 438 171 405 147 q 495 233 472 195 q 529 319 517 271 q 541 416 541 368 m 736 899 q 729 862 736 879 q 709 832 722 844 q 676 812 695 819 q 633 804 656 804 q 590 812 609 804 q 557 832 570 819 q 536 862 543 845 q 528 899 528 880 q 536 936 528 919 q 558 965 544 953 q 591 983 572 977 q 633 990 610 990 q 675 983 656 990 q 708 964 694 977 q 729 935 722 952 q 736 899 736 918 m 427 899 q 419 862 427 879 q 398 832 412 844 q 366 812 385 819 q 323 804 347 804 q 280 812 300 804 q 247 832 260 819 q 225 862 233 845 q 217 899 217 880 q 225 936 217 919 q 248 965 233 953 q 281 983 262 977 q 323 990 300 990 q 365 983 346 990 q 398 964 384 977 q 419 935 412 952 q 427 899 427 918 z "},"õ":{"ha":799,"x_min":41,"x_max":757,"o":"m 757 419 q 747 320 757 371 q 718 221 738 269 q 665 129 697 172 q 587 53 633 85 q 481 2 541 21 q 345 -17 421 -17 q 210 5 267 -17 q 115 67 153 28 q 60 160 78 106 q 41 277 41 214 q 52 379 41 327 q 83 479 62 431 q 138 569 104 527 q 217 643 171 612 q 322 693 263 675 q 456 711 382 711 q 584 691 528 711 q 679 632 640 670 q 737 539 717 593 q 757 419 757 486 m 541 416 q 534 469 541 445 q 514 510 527 493 q 481 537 500 528 q 437 547 463 547 q 361 523 395 547 q 304 460 328 498 q 269 373 281 421 q 257 277 257 325 q 286 181 257 215 q 361 147 315 147 q 438 171 405 147 q 495 233 472 195 q 529 319 517 271 q 541 416 541 368 m 743 1008 q 720 924 736 960 q 680 864 703 888 q 628 828 656 840 q 566 817 599 817 q 508 825 532 817 q 465 844 484 834 q 430 863 446 854 q 393 872 413 872 q 363 866 376 872 q 341 851 350 861 q 327 829 332 842 q 319 804 321 817 l 215 804 q 234 881 220 846 q 272 941 249 916 q 325 981 294 966 q 394 996 356 996 q 450 987 428 996 q 491 968 473 978 q 527 949 509 958 q 568 940 545 940 q 614 958 595 940 q 637 1008 633 976 l 743 1008 z "},"ú":{"ha":831,"x_min":45,"x_max":812,"o":"m 713 231 q 701 167 707 200 q 692 104 696 134 q 685 46 688 73 q 681 0 682 20 l 464 0 q 468 40 466 20 q 473 78 471 60 q 478 111 476 96 q 481 131 480 125 l 478 131 q 421 71 452 98 q 358 24 391 43 q 291 -6 326 5 q 220 -17 256 -17 q 89 31 134 -17 q 45 165 45 79 q 47 193 45 176 q 52 228 49 210 q 58 263 55 246 q 64 293 61 281 l 149 694 l 364 694 l 281 302 q 276 279 278 292 q 272 256 273 267 q 269 235 270 244 q 268 220 268 225 q 284 172 268 190 q 332 154 300 154 q 397 173 366 154 q 455 222 429 192 q 499 291 481 253 q 526 367 518 329 l 596 694 l 812 694 l 713 231 m 514 804 l 355 804 l 568 1025 l 764 1025 l 514 804 z "},"ù":{"ha":831,"x_min":45,"x_max":812,"o":"m 713 231 q 701 167 707 200 q 692 104 696 134 q 685 46 688 73 q 681 0 682 20 l 464 0 q 468 40 466 20 q 473 78 471 60 q 478 111 476 96 q 481 131 480 125 l 478 131 q 421 71 452 98 q 358 24 391 43 q 291 -6 326 5 q 220 -17 256 -17 q 89 31 134 -17 q 45 165 45 79 q 47 193 45 176 q 52 228 49 210 q 58 263 55 246 q 64 293 61 281 l 149 694 l 364 694 l 281 302 q 276 279 278 292 q 272 256 273 267 q 269 235 270 244 q 268 220 268 225 q 284 172 268 190 q 332 154 300 154 q 397 173 366 154 q 455 222 429 192 q 499 291 481 253 q 526 367 518 329 l 596 694 l 812 694 l 713 231 m 487 804 l 311 1025 l 490 1025 l 631 804 l 487 804 z "},"û":{"ha":831,"x_min":45,"x_max":812,"o":"m 713 231 q 701 167 707 200 q 692 104 696 134 q 685 46 688 73 q 681 0 682 20 l 464 0 q 468 40 466 20 q 473 78 471 60 q 478 111 476 96 q 481 131 480 125 l 478 131 q 421 71 452 98 q 358 24 391 43 q 291 -6 326 5 q 220 -17 256 -17 q 89 31 134 -17 q 45 165 45 79 q 47 193 45 176 q 52 228 49 210 q 58 263 55 246 q 64 293 61 281 l 149 694 l 364 694 l 281 302 q 276 279 278 292 q 272 256 273 267 q 269 235 270 244 q 268 220 268 225 q 284 172 268 190 q 332 154 300 154 q 397 173 366 154 q 455 222 429 192 q 499 291 481 253 q 526 367 518 329 l 596 694 l 812 694 l 713 231 m 600 804 l 521 933 l 387 804 l 244 804 l 450 1026 l 619 1026 l 733 804 l 600 804 z "},"ü":{"ha":831,"x_min":45,"x_max":812,"o":"m 713 231 q 701 167 707 200 q 692 104 696 134 q 685 46 688 73 q 681 0 682 20 l 464 0 q 468 40 466 20 q 473 78 471 60 q 478 111 476 96 q 481 131 480 125 l 478 131 q 421 71 452 98 q 358 24 391 43 q 291 -6 326 5 q 220 -17 256 -17 q 89 31 134 -17 q 45 165 45 79 q 47 193 45 176 q 52 228 49 210 q 58 263 55 246 q 64 293 61 281 l 149 694 l 364 694 l 281 302 q 276 279 278 292 q 272 256 273 267 q 269 235 270 244 q 268 220 268 225 q 284 172 268 190 q 332 154 300 154 q 397 173 366 154 q 455 222 429 192 q 499 291 481 253 q 526 367 518 329 l 596 694 l 812 694 l 713 231 m 764 899 q 757 862 764 879 q 736 832 750 844 q 704 812 723 819 q 661 804 684 804 q 617 812 637 804 q 585 832 598 819 q 564 862 571 845 q 556 899 556 880 q 564 936 556 919 q 586 965 572 953 q 619 983 600 977 q 661 990 638 990 q 703 983 684 990 q 735 964 722 977 q 757 935 749 952 q 764 899 764 918 m 454 899 q 447 862 454 879 q 426 832 439 844 q 393 812 412 819 q 351 804 374 804 q 308 812 328 804 q 274 832 288 819 q 253 862 260 845 q 245 899 245 880 q 253 936 245 919 q 275 965 261 953 q 309 983 290 977 q 351 990 328 990 q 393 983 374 990 q 426 964 412 977 q 447 935 439 952 q 454 899 454 918 z "},"†":{"ha":564,"x_min":68,"x_max":620,"o":"m 587 589 l 407 609 l 276 137 l 189 137 l 258 609 l 68 589 l 101 742 l 296 722 l 328 972 l 490 972 l 417 722 l 620 742 l 587 589 z "},"°":{"ha":528,"x_min":164,"x_max":550,"o":"m 550 799 q 535 724 550 759 q 493 663 519 689 q 432 622 467 637 q 357 607 397 607 q 282 622 317 607 q 221 663 247 637 q 179 724 195 689 q 164 799 164 759 q 179 873 164 839 q 221 934 195 908 q 282 974 247 960 q 357 989 317 989 q 432 974 397 989 q 493 934 467 960 q 535 873 519 908 q 550 799 550 839 m 444 799 q 437 833 444 817 q 418 861 430 849 q 390 880 406 873 q 357 886 374 886 q 322 880 338 886 q 295 861 307 873 q 276 833 283 849 q 269 799 269 817 q 276 765 269 781 q 295 736 283 749 q 322 717 307 724 q 357 710 338 710 q 390 717 374 710 q 418 736 406 724 q 437 765 430 749 q 444 799 444 781 z "},"¢":{"ha":800,"x_min":118,"x_max":758,"o":"m 722 618 q 674 645 703 633 q 610 661 644 656 l 526 271 q 597 288 563 276 q 663 319 631 300 l 627 153 q 567 125 601 137 q 493 109 533 114 l 464 -25 l 354 -25 l 382 103 q 268 131 317 108 q 185 191 218 153 q 135 278 152 228 q 118 387 118 328 q 164 596 118 505 q 290 746 211 686 q 404 804 340 783 q 536 828 468 825 l 566 964 l 675 964 l 644 823 q 713 809 683 818 q 758 790 743 801 l 722 618 m 500 657 q 393 599 436 642 q 344 519 361 566 q 326 415 326 473 q 333 364 326 387 q 353 325 340 342 q 382 296 365 308 q 419 278 399 285 l 500 657 z "},"£":{"ha":800,"x_min":8,"x_max":807,"o":"m 770 775 q 744 792 759 784 q 711 806 729 800 q 675 816 694 812 q 636 819 656 819 q 535 781 574 819 q 479 660 496 742 l 460 562 l 637 562 l 606 415 l 428 415 l 412 346 q 365 240 400 286 q 278 165 330 195 l 703 165 l 668 0 l 8 0 l 41 155 q 156 217 116 173 q 211 334 195 261 l 229 415 l 111 415 l 142 562 l 260 562 l 286 686 q 332 810 300 754 q 409 905 363 865 q 517 967 456 945 q 652 989 578 989 q 742 979 701 989 q 807 956 783 968 l 770 775 z "},"§":{"ha":675,"x_min":21,"x_max":673,"o":"m 644 827 q 608 845 629 836 q 564 861 587 854 q 518 871 541 867 q 475 875 495 875 q 433 871 452 875 q 400 859 414 867 q 378 837 386 850 q 370 806 370 824 q 379 769 370 785 q 404 741 388 753 q 442 716 420 728 q 489 690 464 704 q 596 607 561 652 q 631 501 631 563 q 615 426 631 460 q 578 367 600 392 q 530 323 555 341 q 484 296 505 306 q 512 244 501 272 q 524 182 524 216 q 506 98 524 138 q 453 26 489 58 q 363 -24 418 -5 q 235 -43 309 -43 q 177 -39 208 -43 q 118 -30 147 -36 q 63 -15 89 -24 q 21 4 38 -6 l 54 154 q 93 132 71 142 q 140 113 115 121 q 192 99 165 104 q 244 94 218 94 q 294 101 273 94 q 329 117 315 107 q 349 141 342 127 q 355 168 355 154 q 344 206 355 189 q 316 237 333 222 q 277 263 298 251 q 233 286 255 275 q 185 319 208 300 q 145 360 162 337 q 117 411 127 383 q 107 471 107 438 q 121 545 107 513 q 155 600 134 577 q 200 639 176 623 q 248 665 225 655 q 214 720 229 690 q 200 787 200 749 q 222 884 200 842 q 283 955 244 926 q 373 997 321 983 q 485 1011 425 1011 q 531 1009 507 1011 q 581 1002 556 1006 q 630 990 606 998 q 673 974 654 983 l 644 827 m 468 471 q 465 492 468 481 q 454 515 463 503 q 428 540 445 527 q 383 568 412 553 q 361 581 372 574 q 336 596 351 587 q 287 559 308 583 q 267 505 267 536 q 270 477 267 489 q 281 453 273 465 q 306 430 290 441 q 347 403 322 418 q 372 389 359 395 q 399 372 385 382 q 425 389 412 379 q 447 412 437 399 q 462 439 456 425 q 468 471 468 454 z "},"•":{"ha":586,"x_min":113,"x_max":486,"o":"m 486 378 q 471 305 486 339 q 431 246 456 271 q 371 205 406 220 q 298 191 337 191 q 227 205 260 191 q 168 246 193 220 q 127 305 142 271 q 113 378 113 339 q 127 450 113 416 q 168 509 142 484 q 227 549 193 534 q 298 564 260 564 q 371 549 337 564 q 431 509 406 534 q 471 450 456 484 q 486 378 486 416 z "},"¶":{"ha":707,"x_min":94,"x_max":673,"o":"m 595 863 l 595 0 l 475 0 l 475 863 l 396 863 l 396 0 l 277 0 l 277 567 q 205 585 238 569 q 147 628 172 601 q 108 692 122 655 q 94 772 94 729 q 110 855 94 818 q 154 918 126 892 q 218 958 181 944 q 296 972 254 972 l 673 972 l 673 863 l 595 863 z "},"ß":{"ha":838,"x_min":-4,"x_max":827,"o":"m 827 807 q 815 730 827 764 q 786 668 804 695 q 744 619 768 640 q 694 583 720 598 q 642 557 668 568 q 595 541 616 547 l 595 538 q 683 506 645 528 q 747 452 722 484 q 786 382 773 421 q 799 298 799 343 q 778 182 799 239 q 712 81 757 125 q 600 10 668 37 q 437 -17 532 -17 q 392 -15 415 -17 q 349 -10 370 -14 q 312 -2 329 -7 q 282 7 294 2 l 319 178 q 367 156 339 164 q 428 147 395 147 q 493 160 465 147 q 540 195 521 173 q 569 245 559 216 q 579 306 579 274 q 569 362 579 336 q 536 409 559 389 q 478 441 514 429 q 389 453 441 453 l 421 606 q 496 622 462 609 q 555 657 530 635 q 593 710 580 680 q 607 781 607 741 q 601 819 607 801 q 582 851 594 837 q 551 872 569 865 q 509 880 532 880 q 419 841 455 880 q 364 713 382 802 l 212 0 l -4 0 l 150 722 q 194 853 165 793 q 268 955 222 912 q 376 1021 313 998 q 526 1044 440 1044 q 665 1024 608 1044 q 758 969 722 1003 q 810 893 794 936 q 827 807 827 851 z "},"­":{"ha":561,"x_min":81,"x_max":484,"o":"m 452 296 l 81 296 l 113 446 l 484 446 l 452 296 z "},"®":{"ha":1214,"x_min":192,"x_max":1022,"o":"m 605 173 q 308 290 425 173 q 192 582 192 406 q 312 870 192 754 q 610 986 431 986 q 905 873 787 986 q 1018 582 1022 760 q 900 291 1018 410 q 605 173 781 173 m 606 911 q 366 817 460 911 q 271 580 271 722 q 367 342 271 436 q 606 248 463 248 q 842 342 746 248 q 939 579 939 437 q 844 817 939 723 q 606 911 749 911 m 819 338 l 678 338 l 637 465 q 577 530 615 530 l 545 530 l 545 338 l 426 338 l 426 839 l 600 839 q 800 696 800 839 q 683 564 800 594 l 683 562 q 760 483 732 551 l 819 338 m 545 741 l 545 621 l 597 621 q 673 683 673 621 q 586 741 673 741 l 545 741 z "},"©":{"ha":1215,"x_min":114,"x_max":1152,"o":"m 1152 488 q 1133 350 1152 416 q 1082 229 1115 285 q 1001 127 1048 173 q 896 50 954 82 q 771 0 838 18 q 631 -17 704 -17 q 423 20 518 -17 q 260 123 328 57 q 153 282 191 190 q 114 484 114 374 q 132 619 114 554 q 182 740 149 684 q 262 842 216 796 q 367 921 309 888 q 493 971 425 954 q 636 989 561 989 q 838 953 744 989 q 1002 851 932 917 q 1112 693 1072 785 q 1152 488 1152 601 m 1061 485 q 1029 656 1061 578 q 939 790 996 734 q 803 879 881 847 q 633 911 724 911 q 458 878 538 911 q 323 787 379 844 q 235 651 267 729 q 204 485 204 574 q 238 312 204 391 q 329 177 271 234 q 466 90 387 121 q 633 58 544 58 q 799 90 721 58 q 935 179 876 122 q 1027 314 994 235 q 1061 485 1061 392 m 842 200 q 759 168 806 181 q 656 154 712 154 q 524 178 585 154 q 420 245 464 203 q 352 346 376 288 q 328 472 328 404 q 354 617 328 553 q 428 726 381 681 q 539 794 475 770 q 677 818 604 818 q 768 807 727 818 q 840 781 810 795 l 840 621 q 768 658 812 644 q 675 672 724 672 q 608 661 641 672 q 549 625 575 649 q 508 566 524 602 q 492 481 492 530 q 507 403 492 437 q 547 345 522 368 q 607 308 573 321 q 679 296 641 296 q 723 299 701 296 q 767 310 745 303 q 807 326 788 317 q 842 347 827 336 l 842 200 z "},"™":{"ha":1071,"x_min":110,"x_max":1006,"o":"m 904 524 l 904 825 l 900 825 l 793 524 l 701 524 l 602 825 l 599 825 l 599 524 l 498 524 l 498 972 l 644 972 l 751 665 l 754 665 l 868 972 l 1006 972 l 1006 524 l 904 524 m 334 889 l 334 524 l 228 524 l 228 889 l 110 889 l 110 972 l 453 972 l 453 889 l 334 889 z "},"´":{"ha":610,"x_min":254,"x_max":664,"o":"m 414 804 l 254 804 l 468 1025 l 664 1025 l 414 804 z "},"¨":{"ha":610,"x_min":151,"x_max":671,"o":"m 671 899 q 664 862 671 879 q 643 832 656 844 q 610 812 629 819 q 567 804 591 804 q 524 812 543 804 q 491 832 505 819 q 470 862 477 845 q 463 899 463 880 q 470 936 463 919 q 492 965 478 953 q 526 983 507 977 q 567 990 545 990 q 609 983 590 990 q 642 964 628 977 q 663 935 656 952 q 671 899 671 918 m 361 899 q 353 862 361 879 q 332 832 346 844 q 300 812 319 819 q 257 804 281 804 q 214 812 234 804 q 181 832 195 819 q 159 862 167 845 q 151 899 151 880 q 159 936 151 919 q 182 965 168 953 q 215 983 196 977 q 257 990 235 990 q 299 983 280 990 q 332 964 318 977 q 353 935 346 952 q 361 899 361 918 z "},"≠":{"ha":983,"x_min":172,"x_max":832,"o":"m 468 180 l 374 0 l 208 0 l 302 180 l 172 180 l 172 318 l 375 318 l 457 475 l 172 475 l 172 614 l 529 614 l 629 806 l 793 806 l 694 614 l 832 614 l 832 475 l 623 475 l 541 318 l 832 318 l 832 180 l 468 180 z "},"Æ":{"ha":1311,"x_min":-97,"x_max":1360,"o":"m 1322 794 l 981 794 l 935 575 l 1251 575 l 1214 396 l 897 396 l 850 178 l 1213 178 l 1175 0 l 593 0 l 639 216 l 315 216 l 160 0 l -97 0 l 637 972 l 1360 972 l 1322 794 m 726 796 l 443 397 l 676 397 l 761 796 l 726 796 z "},"Ø":{"ha":1054,"x_min":28,"x_max":1053,"o":"m 953 828 q 1006 711 987 775 q 1025 568 1025 646 q 1014 450 1025 510 q 981 333 1003 390 q 927 223 960 276 q 850 126 894 170 q 693 21 784 60 q 479 -17 602 -17 q 334 7 399 -17 q 222 68 269 31 l 110 -52 l 28 29 l 144 150 q 93 266 111 203 q 75 401 75 328 q 119 643 75 528 q 252 844 163 758 q 324 903 285 877 q 408 948 363 929 q 505 977 453 967 q 618 987 557 987 q 760 966 696 987 q 872 908 823 944 l 972 1013 l 1053 933 l 953 828 m 739 768 q 678 804 715 790 q 599 818 642 818 q 537 811 566 818 q 483 791 508 804 q 435 761 457 778 q 397 724 414 743 q 355 661 374 696 q 321 583 335 625 q 298 496 307 541 q 290 404 290 450 q 293 358 290 379 q 301 315 296 336 l 739 768 m 810 566 q 794 663 810 620 l 354 205 q 417 164 381 178 q 498 150 454 150 q 607 173 558 150 q 696 239 656 197 q 745 307 724 268 q 781 389 766 346 q 802 478 795 433 q 810 566 810 524 z "},"∞":{"ha":1128,"x_min":61,"x_max":1097,"o":"m 1097 396 q 1078 292 1097 341 q 1023 207 1058 243 q 941 148 989 170 q 836 126 893 126 q 691 169 754 126 q 579 297 628 212 q 530 233 557 262 q 469 180 502 203 q 399 145 436 158 q 322 132 362 132 q 217 152 265 132 q 135 207 170 171 q 81 293 100 242 q 61 406 61 343 q 81 509 61 460 q 135 594 100 557 q 217 653 170 631 q 322 675 265 675 q 469 632 406 675 q 579 504 531 589 q 627 567 600 537 q 686 619 654 597 q 757 655 719 642 q 838 668 795 668 q 941 649 894 668 q 1023 594 989 630 q 1078 509 1058 559 q 1097 396 1097 458 m 942 397 q 933 448 942 425 q 908 490 924 472 q 868 517 891 507 q 815 528 844 528 q 731 496 771 528 q 652 397 690 465 q 726 301 687 334 q 817 268 766 268 q 868 278 845 268 q 907 305 891 288 q 933 346 924 322 q 942 397 942 370 m 507 404 q 433 501 471 468 q 342 534 394 534 q 290 525 313 534 q 251 497 267 515 q 225 456 235 479 q 216 404 216 432 q 225 353 216 377 q 251 312 235 330 q 291 285 268 295 q 343 275 315 275 q 428 306 387 275 q 507 404 469 336 z "},"±":{"ha":983,"x_min":171,"x_max":832,"o":"m 570 471 l 570 208 l 432 208 l 432 471 l 172 471 l 172 608 l 432 608 l 432 873 l 570 873 l 570 608 l 832 608 l 832 471 l 570 471 m 171 0 l 171 138 l 829 138 l 829 0 l 171 0 z "},"≤":{"ha":983,"x_min":182,"x_max":843,"o":"m 196 439 l 196 557 l 831 840 l 831 679 l 378 500 l 378 497 l 831 329 l 831 168 l 196 439 m 182 0 l 182 138 l 843 138 l 843 0 l 182 0 z "},"≥":{"ha":983,"x_min":182,"x_max":843,"o":"m 196 168 l 196 329 l 648 496 l 648 498 l 196 679 l 196 840 l 831 557 l 831 439 l 196 168 m 182 0 l 182 138 l 843 138 l 843 0 l 182 0 z "},"¥":{"ha":800,"x_min":49,"x_max":916,"o":"m 583 538 l 753 538 l 726 410 l 519 410 l 497 306 l 704 306 l 677 178 l 471 178 l 432 0 l 224 0 l 261 178 l 49 178 l 75 306 l 288 306 l 311 410 l 97 410 l 125 538 l 298 538 l 158 972 l 371 972 l 443 640 q 452 608 448 621 q 457 582 455 595 l 460 582 q 476 610 467 595 q 497 643 486 624 l 705 972 l 916 972 l 583 538 z "},"µ":{"ha":856,"x_min":-50,"x_max":812,"o":"m 478 131 q 433 73 457 100 q 382 26 410 46 q 322 -5 354 6 q 251 -17 290 -17 q 228 -16 241 -17 q 213 -14 215 -15 q 195 -96 205 -52 q 178 -177 186 -139 q 159 -264 168 -221 l -50 -264 l 149 694 l 364 694 l 283 318 q 279 296 281 309 q 275 272 277 284 q 271 251 273 260 q 270 235 270 241 q 272 202 270 217 q 281 176 275 186 q 300 160 288 165 q 332 154 312 154 q 395 172 364 154 q 453 221 427 191 q 499 292 479 252 q 529 378 519 333 l 596 694 l 812 694 l 727 296 q 719 249 722 275 q 716 210 716 224 q 731 174 716 186 q 768 161 745 161 q 789 163 778 161 q 812 168 800 165 l 777 5 q 750 -1 763 2 q 722 -6 738 -4 q 685 -9 707 -8 q 633 -11 664 -11 q 565 -2 593 -11 q 517 24 536 7 q 489 64 498 41 q 480 115 480 87 q 480 120 480 117 q 481 125 481 123 l 481 131 l 478 131 z "},"∂":{"ha":802,"x_min":49,"x_max":779,"o":"m 779 618 q 777 546 779 583 q 769 473 774 509 q 758 401 765 436 q 743 335 751 366 q 691 200 724 264 q 608 87 658 136 q 491 11 558 39 q 335 -17 423 -17 q 211 4 264 -17 q 121 62 157 24 q 67 153 85 100 q 49 269 49 205 q 59 370 49 319 q 89 468 68 421 q 138 556 109 515 q 206 627 167 597 q 293 674 245 657 q 397 692 340 692 q 500 668 457 692 q 574 596 543 644 l 576 596 l 576 623 q 568 718 576 675 q 541 791 560 760 q 490 839 522 822 q 410 856 458 856 q 361 851 387 856 q 311 840 336 847 q 265 824 287 833 q 228 807 243 815 l 271 977 q 312 992 290 985 q 360 1006 335 1000 q 411 1015 385 1011 q 464 1018 437 1018 q 619 986 558 1018 q 716 901 680 955 q 765 773 751 846 q 779 618 779 701 m 549 437 q 509 513 536 484 q 441 542 481 542 q 369 517 401 542 q 312 455 336 493 q 275 369 288 416 q 262 277 262 322 q 290 180 262 213 q 361 147 317 147 q 427 169 397 147 q 482 229 458 191 q 524 321 507 268 q 549 437 541 374 z "},"∑":{"ha":892,"x_min":57,"x_max":882,"o":"m 57 -319 l 57 -201 l 467 334 l 74 847 l 74 972 l 860 972 l 860 793 l 380 793 l 720 339 l 361 -143 l 882 -143 l 882 -319 l 57 -319 z "},"∏":{"ha":1099,"x_min":132,"x_max":1021,"o":"m 802 -319 l 802 781 l 351 781 l 351 -319 l 132 -319 l 132 972 l 1021 972 l 1021 -319 l 802 -319 z "},"∫":{"ha":800,"x_min":134,"x_max":710,"o":"m 710 864 q 674 875 695 870 q 631 880 654 880 q 555 851 582 880 q 528 768 528 823 l 528 -66 q 509 -170 528 -121 q 455 -254 491 -218 q 366 -311 419 -290 q 241 -332 312 -332 q 212 -331 227 -332 q 183 -328 197 -330 q 156 -323 168 -326 q 134 -318 143 -321 l 134 -151 q 168 -163 148 -158 q 211 -168 188 -168 q 288 -138 262 -168 q 314 -56 314 -109 l 314 781 q 332 884 314 836 q 387 967 351 932 q 477 1024 423 1003 q 602 1044 530 1044 q 661 1040 630 1044 q 710 1031 691 1036 l 710 864 z "},"ª":{"ha":652,"x_min":122,"x_max":684,"o":"m 616 646 q 610 610 614 631 q 604 566 607 589 q 599 522 601 544 q 597 485 597 500 l 436 485 q 437 503 436 492 q 438 526 437 514 q 441 549 439 538 q 443 568 442 560 l 440 568 q 368 499 410 526 q 271 472 326 472 q 211 483 238 472 q 163 518 183 494 q 133 577 144 541 q 122 661 122 612 q 127 715 122 683 q 146 784 132 748 q 183 857 159 821 q 244 921 207 892 q 334 968 281 950 q 458 986 387 986 q 516 984 486 986 q 576 978 546 982 q 634 970 606 975 q 684 961 662 966 l 616 646 m 503 871 q 476 876 491 874 q 450 878 462 878 q 395 867 419 878 q 352 840 370 857 q 320 801 333 823 q 300 756 308 779 q 288 712 292 734 q 285 673 285 690 q 299 614 285 638 q 346 590 313 590 q 395 607 373 590 q 434 649 417 624 q 462 705 450 675 q 479 762 473 735 l 503 871 z "},"º":{"ha":633,"x_min":114,"x_max":663,"o":"m 663 770 q 642 656 663 710 q 582 561 621 602 q 486 496 543 520 q 359 472 430 472 q 256 489 301 472 q 179 535 210 505 q 131 608 147 566 q 114 700 114 650 q 135 808 114 757 q 195 900 156 860 q 289 963 234 939 q 412 986 345 986 q 528 968 481 986 q 606 921 576 951 q 649 851 635 890 q 663 770 663 812 m 500 761 q 476 838 500 808 q 403 868 453 868 q 352 855 375 868 q 311 819 328 842 q 285 764 294 795 q 275 694 275 732 q 301 618 275 646 q 370 590 327 590 q 427 606 402 590 q 467 646 451 621 q 492 701 484 671 q 500 761 500 732 z "},"Ω":{"ha":1074,"x_min":-17,"x_max":1065,"o":"m 1065 609 q 1040 462 1065 529 q 974 340 1016 395 q 874 245 931 286 q 753 176 818 204 l 978 176 l 941 0 l 534 0 l 577 208 q 680 273 633 236 q 758 357 726 311 q 808 460 791 404 q 826 584 826 517 q 812 668 826 629 q 771 736 798 707 q 704 783 744 766 q 612 800 664 800 q 503 779 555 800 q 409 718 450 759 q 344 616 368 677 q 320 471 320 554 q 329 388 320 426 q 352 317 337 350 q 388 258 368 285 q 433 208 409 231 l 389 0 l -17 0 l 20 176 l 258 176 q 196 231 227 198 q 140 306 165 264 q 100 397 115 347 q 85 505 85 448 q 127 711 85 621 q 243 863 170 802 q 415 957 317 925 q 623 989 513 989 q 804 961 722 989 q 943 883 885 933 q 1033 764 1001 833 q 1065 609 1065 694 z "},"æ":{"ha":1194,"x_min":41,"x_max":1185,"o":"m 1185 515 q 1162 417 1185 462 q 1086 340 1139 372 q 944 289 1032 307 q 724 268 855 270 l 724 256 q 730 213 724 235 q 753 175 737 192 q 797 147 770 157 q 865 136 824 136 q 919 141 890 136 q 977 154 947 145 q 1037 174 1007 162 q 1092 200 1066 186 l 1059 40 q 1010 19 1038 29 q 951 1 983 9 q 884 -12 919 -7 q 811 -17 848 -17 q 644 24 713 -17 q 546 146 574 65 l 543 146 q 493 86 521 115 q 431 34 465 56 q 356 -3 397 11 q 265 -17 315 -17 q 174 1 215 -17 q 103 53 132 19 q 57 135 73 86 q 41 244 41 183 q 50 328 41 279 q 79 428 58 376 q 135 531 100 480 q 222 622 170 582 q 346 687 275 662 q 513 711 418 711 q 646 697 586 711 q 746 668 706 683 q 834 701 787 690 q 935 711 882 711 q 1043 696 996 711 q 1121 655 1090 682 q 1169 593 1153 629 q 1185 515 1185 557 m 979 513 q 961 554 979 538 q 909 571 942 571 q 853 559 880 571 q 804 524 827 547 q 765 470 781 502 q 739 400 748 439 q 920 428 861 399 q 979 513 979 458 m 590 547 q 555 557 576 553 q 514 561 534 561 q 427 545 465 561 q 360 504 389 530 q 312 446 332 478 q 280 379 292 413 q 262 314 268 346 q 257 258 257 282 q 276 177 257 208 q 330 147 295 147 q 383 163 357 147 q 432 209 408 180 q 477 278 455 238 q 518 366 498 318 q 529 397 521 373 q 547 449 536 420 q 568 505 557 477 q 590 547 580 532 z "},"ø":{"ha":799,"x_min":-14,"x_max":822,"o":"m 720 575 q 757 419 757 511 q 747 318 757 370 q 716 218 737 267 q 663 127 696 170 q 585 52 631 84 q 479 2 539 20 q 345 -17 420 -17 q 234 -2 283 -17 q 149 41 184 13 l 56 -45 l -14 36 l 78 122 q 50 195 59 156 q 41 277 41 234 q 51 378 41 327 q 82 478 61 430 q 137 569 104 526 q 215 643 170 611 q 321 693 261 675 q 456 711 381 711 q 562 696 515 711 q 646 654 609 682 l 753 754 l 822 672 l 720 575 m 514 530 q 441 559 487 559 q 353 537 392 559 q 288 478 315 515 q 247 393 261 441 q 233 290 233 344 q 234 280 233 285 q 235 269 235 275 l 514 530 m 564 407 q 564 419 564 413 q 562 432 564 426 l 282 168 q 315 144 296 153 q 358 135 335 135 q 447 157 409 135 q 511 216 486 178 q 550 302 537 253 q 564 407 564 352 z "},"¿":{"ha":624,"x_min":-53,"x_max":522,"o":"m 522 607 q 512 561 522 582 q 485 524 503 539 q 445 500 468 509 q 393 492 421 492 q 345 499 367 492 q 307 522 323 507 q 281 555 290 536 q 272 597 272 574 q 282 645 272 623 q 310 682 292 667 q 351 706 328 697 q 403 714 375 714 q 451 706 429 714 q 489 684 473 699 q 513 650 505 670 q 522 607 522 631 m 449 -252 q 401 -270 428 -261 q 345 -284 374 -278 q 284 -295 315 -291 q 222 -298 252 -298 q 97 -279 149 -298 q 12 -229 45 -260 q -37 -156 -22 -197 q -53 -69 -53 -114 q -42 7 -53 -30 q -7 79 -31 44 q 53 146 16 113 q 143 212 90 180 q 201 254 178 234 q 239 297 224 275 q 264 346 254 320 q 279 404 273 372 l 456 404 q 436 322 447 360 q 408 251 425 284 q 366 190 391 218 q 302 136 340 162 q 239 90 266 111 q 195 49 212 68 q 170 10 178 29 q 161 -31 161 -9 q 193 -101 161 -77 q 275 -125 224 -125 q 384 -107 330 -125 q 482 -62 438 -90 l 449 -252 z "}," ":{"ha":382,"x_min":0,"x_max":0,"o":""},"¡":{"ha":481,"x_min":-4,"x_max":411,"o":"m 411 607 q 401 561 411 582 q 374 524 391 539 q 333 500 357 509 q 282 492 310 492 q 234 499 256 492 q 196 522 212 507 q 171 555 180 536 q 161 597 161 574 q 172 645 161 623 q 199 682 182 667 q 240 706 216 697 q 292 714 264 714 q 339 706 317 714 q 377 684 361 699 q 402 650 393 670 q 411 607 411 631 m 220 -273 l -4 -273 l 164 397 l 338 397 l 220 -273 z "},"¬":{"ha":983,"x_min":165,"x_max":827,"o":"m 689 180 l 689 444 l 165 444 l 165 582 l 827 582 l 827 180 l 689 180 z "},"√":{"ha":903,"x_min":82,"x_max":832,"o":"m 555 -1 l 422 -1 l 205 494 l 82 494 l 82 608 l 319 608 l 484 222 l 699 1028 l 832 1028 l 555 -1 z "},"ƒ":{"ha":800,"x_min":37,"x_max":779,"o":"m 749 806 q 711 822 732 815 q 667 829 690 829 q 601 805 628 829 q 564 736 574 780 l 542 643 l 663 643 l 628 497 l 510 497 l 419 102 q 376 -34 401 22 q 316 -123 350 -89 q 241 -172 283 -157 q 149 -187 199 -187 q 90 -182 121 -187 q 37 -168 58 -176 l 60 -25 q 89 -38 75 -33 q 118 -43 102 -43 q 151 -37 136 -43 q 179 -16 166 -31 q 204 26 193 -1 q 225 97 216 54 l 315 497 l 225 497 l 260 643 l 347 643 l 371 743 q 468 920 396 859 q 647 981 539 981 q 719 974 683 981 q 779 956 754 966 l 749 806 z "},"≈":{"ha":983,"x_min":142,"x_max":861,"o":"m 861 676 q 844 576 859 621 q 802 498 829 530 q 736 447 775 465 q 648 429 698 429 q 600 434 622 429 q 557 446 578 438 q 517 465 537 454 q 473 489 496 476 q 421 518 448 505 q 368 532 394 532 q 330 523 346 532 q 303 500 314 515 q 287 466 292 485 q 281 425 282 447 l 142 425 q 157 520 144 475 q 196 598 170 565 q 262 651 222 632 q 357 671 302 671 q 404 667 382 671 q 445 655 426 663 q 483 639 465 648 q 518 619 500 629 q 555 598 538 607 q 585 582 571 589 q 613 572 600 575 q 640 568 626 568 q 673 576 659 568 q 699 599 688 585 q 716 633 710 614 q 722 676 722 653 l 861 676 m 861 372 q 844 272 859 317 q 802 194 829 227 q 736 143 775 161 q 648 125 698 125 q 600 129 622 125 q 557 142 578 134 q 517 161 537 150 q 473 186 496 172 q 421 215 448 201 q 368 229 394 229 q 330 220 346 229 q 303 196 314 212 q 287 161 292 181 q 281 119 282 141 l 142 119 q 157 215 144 170 q 196 294 170 260 q 262 348 222 328 q 357 368 302 368 q 404 364 382 368 q 445 353 426 360 q 483 336 465 346 q 518 317 500 327 q 555 295 538 304 q 585 278 571 285 q 613 268 600 271 q 640 264 626 264 q 673 272 659 264 q 699 295 688 281 q 716 330 710 310 q 722 372 722 349 l 861 372 z "},"Δ":{"ha":1024,"x_min":-22,"x_max":917,"o":"m 899 0 l -22 0 l -3 88 l 516 972 l 784 972 l 917 88 l 899 0 m 621 689 q 618 716 619 699 q 617 748 617 732 q 617 775 617 762 q 618 794 618 788 l 613 794 q 599 760 608 783 q 574 708 589 736 l 277 178 l 688 178 l 621 689 z "},"«":{"ha":814,"x_min":37,"x_max":819,"o":"m 557 353 l 725 134 l 547 134 l 374 364 l 627 595 l 819 595 l 557 353 m 221 353 l 389 134 l 212 134 l 37 364 l 292 595 l 484 595 l 221 353 z "},"»":{"ha":814,"x_min":-5,"x_max":777,"o":"m 522 136 l 330 136 l 593 378 l 425 597 l 602 597 l 777 367 l 522 136 m 187 136 l -5 136 l 257 378 l 89 597 l 267 597 l 440 367 l 187 136 z "},"…":{"ha":1270,"x_min":36,"x_max":1131,"o":"m 1131 102 q 1120 54 1131 75 q 1093 17 1110 33 q 1052 -7 1076 1 q 1002 -16 1029 -16 q 953 -7 975 -16 q 915 15 931 1 q 889 48 899 29 q 880 90 880 68 q 890 139 880 117 q 918 176 901 161 q 960 200 936 191 q 1011 208 983 208 q 1059 200 1037 208 q 1096 178 1080 192 q 1121 144 1112 163 q 1131 102 1131 125 m 708 102 q 698 54 708 75 q 671 17 688 33 q 630 -7 654 1 q 579 -16 606 -16 q 531 -7 553 -16 q 493 15 509 1 q 468 48 477 29 q 458 90 458 68 q 469 139 458 117 q 496 176 479 161 q 537 200 513 191 q 589 208 562 208 q 637 200 615 208 q 674 178 659 192 q 699 144 690 163 q 708 102 708 125 m 286 102 q 276 54 286 75 q 249 17 267 33 q 208 -7 232 1 q 157 -16 184 -16 q 110 -7 132 -16 q 71 15 87 1 q 45 48 55 29 q 36 90 36 68 q 46 139 36 117 q 74 176 56 161 q 115 200 92 191 q 167 208 139 208 q 215 200 193 208 q 253 178 237 192 q 277 144 269 163 q 286 102 286 125 z "},"À":{"ha":977,"x_min":-69,"x_max":892,"o":"m 668 0 l 640 216 l 292 216 l 178 0 l -69 0 l 492 972 l 753 972 l 892 0 l 668 0 m 589 713 q 588 737 588 724 q 588 762 587 750 q 589 784 588 774 q 590 799 589 794 l 586 799 q 581 783 585 793 q 573 763 578 774 q 563 739 569 751 q 551 715 557 727 l 374 385 l 624 385 l 589 713 m 626 1062 l 450 1282 l 629 1282 l 770 1062 l 626 1062 z "},"Ã":{"ha":977,"x_min":-69,"x_max":897,"o":"m 668 0 l 640 216 l 292 216 l 178 0 l -69 0 l 492 972 l 753 972 l 892 0 l 668 0 m 589 713 q 588 737 588 724 q 588 762 587 750 q 589 784 588 774 q 590 799 589 794 l 586 799 q 581 783 585 793 q 573 763 578 774 q 563 739 569 751 q 551 715 557 727 l 374 385 l 624 385 l 589 713 m 897 1267 q 874 1182 890 1218 q 834 1122 858 1146 q 782 1087 811 1099 q 721 1075 753 1075 q 662 1084 686 1075 q 620 1103 638 1093 q 584 1122 601 1113 q 547 1131 568 1131 q 517 1125 530 1131 q 496 1109 505 1119 q 481 1088 487 1100 q 474 1063 476 1076 l 370 1063 q 389 1139 374 1104 q 426 1199 404 1174 q 480 1239 449 1225 q 549 1254 511 1254 q 605 1245 583 1254 q 646 1226 627 1236 q 682 1207 664 1216 q 722 1198 699 1198 q 769 1216 750 1198 q 792 1267 787 1234 l 897 1267 z "},"Õ":{"ha":1054,"x_min":75,"x_max":1025,"o":"m 1025 571 q 1015 454 1025 513 q 984 339 1004 395 q 934 233 964 284 q 864 140 904 182 q 790 75 830 104 q 703 26 750 46 q 601 -6 656 5 q 482 -17 546 -17 q 310 15 386 -17 q 182 103 235 47 q 103 235 130 159 q 75 401 75 312 q 86 526 75 465 q 119 644 97 587 q 174 752 141 701 q 250 846 207 803 q 323 904 284 878 q 408 949 363 930 q 506 979 454 968 q 618 989 558 989 q 783 960 708 989 q 911 878 858 932 q 995 746 965 824 q 1025 571 1025 669 m 793 564 q 779 662 793 618 q 739 735 765 705 q 676 782 713 766 q 593 798 640 798 q 490 772 538 798 q 403 703 441 747 q 362 640 380 675 q 332 566 345 605 q 314 485 320 526 q 307 404 307 444 q 321 306 307 349 q 361 233 335 262 q 423 188 387 203 q 504 172 459 172 q 610 197 559 172 q 699 269 661 221 q 740 333 722 298 q 769 408 758 369 q 787 486 781 446 q 793 564 793 526 m 908 1265 q 885 1181 901 1217 q 845 1121 869 1145 q 793 1085 822 1097 q 732 1074 764 1074 q 673 1082 697 1074 q 630 1101 649 1091 q 595 1120 612 1112 q 558 1129 578 1129 q 528 1123 541 1129 q 507 1108 515 1118 q 492 1086 498 1099 q 485 1061 487 1074 l 380 1061 q 400 1138 385 1103 q 437 1198 414 1173 q 491 1238 460 1223 q 559 1253 522 1253 q 616 1244 593 1253 q 656 1225 638 1235 q 692 1206 675 1215 q 733 1197 710 1197 q 780 1215 761 1197 q 803 1265 798 1233 l 908 1265 z "},"Œ":{"ha":1272,"x_min":75,"x_max":1336,"o":"m 1297 794 l 957 794 l 911 575 l 1227 575 l 1190 396 l 873 396 l 827 178 l 1189 178 l 1152 0 l 661 0 q 618 -3 642 0 q 570 -8 595 -5 q 519 -14 545 -12 q 468 -17 493 -17 q 319 10 390 -17 q 194 91 248 37 q 107 223 140 144 q 75 407 75 302 q 85 531 75 470 q 116 648 96 591 q 169 755 137 705 q 245 848 201 806 q 319 908 280 882 q 402 952 357 934 q 498 979 447 970 q 608 989 549 989 q 668 986 639 989 q 724 981 698 984 q 774 975 751 978 q 815 972 797 972 l 1336 972 l 1297 794 m 733 775 q 681 791 714 785 q 596 798 647 798 q 490 773 539 798 q 406 705 441 748 q 365 643 383 678 q 334 569 347 608 q 314 486 321 529 q 307 401 307 444 q 321 307 307 349 q 360 235 334 264 q 422 189 385 205 q 505 172 458 172 q 563 177 537 172 q 610 187 589 182 l 733 775 z "},"œ":{"ha":1206,"x_min":41,"x_max":1196,"o":"m 1196 515 q 1173 417 1196 462 q 1097 340 1151 372 q 956 289 1044 307 q 736 268 867 270 q 734 260 734 264 q 734 253 734 256 q 741 213 734 233 q 764 175 748 192 q 808 147 781 158 q 876 136 835 136 q 930 141 901 136 q 989 154 959 145 q 1048 174 1019 162 q 1103 200 1078 186 l 1069 40 q 972 0 1029 17 q 843 -17 915 -17 q 754 -7 793 -17 q 686 20 715 3 q 635 59 656 37 q 602 104 614 81 l 599 104 q 487 15 555 47 q 339 -17 418 -17 q 205 8 261 -17 q 112 74 149 33 q 59 168 76 115 q 41 277 41 221 q 69 447 41 368 q 146 585 96 526 q 268 677 197 644 q 427 711 339 711 q 509 702 472 711 q 574 675 545 692 q 626 635 604 659 q 664 585 648 612 l 667 585 q 719 635 690 612 q 782 675 748 659 q 856 702 817 692 q 939 711 895 711 q 1059 694 1010 711 q 1139 648 1108 676 q 1182 585 1169 620 q 1196 515 1196 550 m 991 511 q 973 554 991 537 q 921 571 954 571 q 866 559 892 571 q 816 525 839 547 q 775 471 793 503 q 750 400 758 439 q 863 408 817 399 q 937 431 909 416 q 979 467 966 446 q 991 511 991 487 m 539 416 q 533 470 539 446 q 514 511 526 494 q 482 538 501 528 q 437 547 463 547 q 361 523 395 547 q 304 460 328 498 q 269 373 281 421 q 257 277 257 325 q 286 181 257 215 q 361 147 315 147 q 438 171 405 147 q 494 233 471 195 q 528 319 516 271 q 539 416 539 368 z "},"–":{"ha":694,"x_min":-14,"x_max":713,"o":"m -14 296 l 18 446 l 713 446 l 681 296 l -14 296 z "},"—":{"ha":1389,"x_min":-14,"x_max":1407,"o":"m -14 296 l 18 446 l 1407 446 l 1375 296 l -14 296 z "},"“":{"ha":685,"x_min":147,"x_max":707,"o":"m 600 684 l 429 684 l 574 985 l 707 985 l 600 684 m 319 684 l 147 684 l 292 985 l 425 985 l 319 684 z "},"”":{"ha":685,"x_min":168,"x_max":726,"o":"m 581 684 l 449 684 l 555 985 l 726 985 l 581 684 m 300 684 l 168 684 l 275 985 l 446 985 l 300 684 z "},"‘":{"ha":404,"x_min":147,"x_max":427,"o":"m 319 684 l 147 684 l 292 985 l 427 985 l 319 684 z "},"’":{"ha":404,"x_min":168,"x_max":446,"o":"m 300 684 l 168 684 l 275 985 l 446 985 l 300 684 z "},"÷":{"ha":983,"x_min":172,"x_max":833,"o":"m 600 668 q 592 628 600 646 q 571 598 584 610 q 541 580 557 587 q 507 574 524 574 q 470 581 488 574 q 439 601 452 588 q 418 631 426 614 q 411 667 411 648 q 418 704 411 686 q 437 736 425 722 q 468 757 450 749 q 507 765 486 765 q 546 758 528 765 q 575 738 563 751 q 594 707 587 725 q 600 668 600 690 m 172 329 l 172 467 l 833 467 l 833 329 l 172 329 m 597 125 q 589 85 597 102 q 568 56 581 68 q 538 38 555 44 q 504 32 522 32 q 467 39 484 32 q 436 58 450 46 q 416 87 423 71 q 408 123 408 104 q 415 161 408 143 q 434 193 422 179 q 465 214 447 206 q 504 222 482 222 q 543 215 526 222 q 572 194 560 208 q 591 163 585 181 q 597 125 597 146 z "},"◊":{"ha":815,"x_min":69,"x_max":786,"o":"m 465 0 l 387 0 l 69 485 l 387 972 l 465 972 l 786 486 l 465 0 m 428 806 l 225 486 l 428 167 l 631 486 l 428 806 z "},"ÿ":{"ha":747,"x_min":-109,"x_max":815,"o":"m 374 -61 q 302 -171 339 -121 q 222 -254 265 -220 q 126 -308 178 -289 q 7 -326 73 -326 q -48 -322 -16 -326 q -109 -307 -81 -317 l -72 -142 q -37 -157 -58 -152 q 5 -163 -16 -163 q 80 -144 45 -163 q 140 -83 115 -125 l 196 4 l 61 694 l 286 694 l 335 272 q 338 222 337 249 q 336 179 338 196 l 339 179 q 355 221 345 196 q 378 272 364 246 l 590 694 l 815 694 l 374 -61 m 713 899 q 706 862 713 879 q 685 832 699 844 q 652 812 671 819 q 609 804 633 804 q 566 812 585 804 q 533 832 547 819 q 512 862 519 845 q 505 899 505 880 q 512 936 505 919 q 534 965 520 953 q 568 983 549 977 q 609 990 587 990 q 651 983 632 990 q 684 964 670 977 q 705 935 698 952 q 713 899 713 918 m 403 899 q 395 862 403 879 q 374 832 388 844 q 342 812 361 819 q 299 804 323 804 q 256 812 276 804 q 223 832 237 819 q 201 862 209 845 q 193 899 193 880 q 201 936 193 919 q 224 965 210 953 q 257 983 238 977 q 299 990 277 990 q 341 983 322 990 q 374 964 360 977 q 395 935 388 952 q 403 899 403 918 z "},"Ÿ":{"ha":844,"x_min":131,"x_max":975,"o":"m 526 353 l 453 0 l 232 0 l 306 349 l 131 972 l 368 972 l 446 603 q 452 560 451 580 q 454 525 453 541 l 456 525 q 472 564 463 544 q 492 600 481 583 l 729 972 l 975 972 l 526 353 m 816 1158 q 809 1121 816 1138 q 788 1091 802 1103 q 755 1071 774 1078 q 712 1063 736 1063 q 669 1071 688 1063 q 636 1091 650 1078 q 615 1121 623 1104 q 608 1158 608 1139 q 615 1195 608 1178 q 637 1224 623 1212 q 671 1242 652 1236 q 712 1249 690 1249 q 754 1242 735 1249 q 787 1223 773 1236 q 808 1194 801 1211 q 816 1158 816 1177 m 506 1158 q 498 1121 506 1138 q 477 1091 491 1103 q 445 1071 464 1078 q 402 1063 426 1063 q 359 1071 379 1063 q 326 1091 340 1078 q 304 1121 312 1104 q 296 1158 296 1139 q 304 1195 296 1178 q 327 1224 313 1212 q 360 1242 341 1236 q 402 1249 380 1249 q 444 1242 425 1249 q 477 1223 463 1236 q 498 1194 491 1211 q 506 1158 506 1177 z "},"⁄":{"ha":447,"x_min":-235,"x_max":742,"o":"m -69 0 l -235 0 l 576 972 l 742 972 l -69 0 z "},"€":{"ha":800,"x_min":29,"x_max":861,"o":"m 825 765 q 792 790 810 778 q 755 811 775 802 q 711 825 734 820 q 660 831 688 831 q 566 818 609 831 q 489 780 524 804 q 429 722 455 756 q 385 646 403 688 l 707 646 l 682 532 l 342 532 q 332 478 336 505 q 326 424 328 451 l 659 424 l 635 309 l 330 309 q 354 233 337 265 q 395 181 371 201 q 451 150 420 160 q 519 140 483 140 q 615 155 570 140 q 710 197 661 169 l 679 24 q 584 -7 631 3 q 485 -17 538 -17 q 343 6 406 -17 q 236 73 281 30 q 165 175 191 115 q 134 309 140 235 l 29 309 l 53 424 l 129 424 q 134 477 132 450 q 143 532 137 505 l 77 532 l 100 646 l 175 646 q 249 785 203 722 q 357 894 295 848 q 497 964 420 939 q 667 989 575 989 q 727 985 698 989 q 782 977 757 982 q 828 964 808 971 q 861 949 848 957 l 825 765 z "},"‹":{"ha":478,"x_min":39,"x_max":485,"o":"m 222 353 l 390 134 l 212 134 l 39 364 l 292 595 l 485 595 l 222 353 z "},"›":{"ha":478,"x_min":-5,"x_max":440,"o":"m 187 136 l -5 136 l 257 378 l 89 597 l 267 597 l 440 367 l 187 136 z "},"ﬁ":{"ha":961,"x_min":7,"x_max":954,"o":"m 637 861 q 596 874 618 869 q 551 880 573 880 q 477 854 503 880 q 439 771 452 827 l 422 694 l 581 694 l 547 536 l 386 536 l 221 -231 l 7 -231 l 171 536 l 53 536 l 87 694 l 204 694 l 227 794 q 333 983 255 921 q 543 1044 410 1044 q 613 1039 578 1044 q 671 1026 648 1034 l 637 861 m 954 918 q 943 871 954 892 q 916 834 933 850 q 875 811 899 819 q 825 803 852 803 q 777 811 799 803 q 739 832 755 819 q 714 865 723 846 q 705 907 705 884 q 714 954 705 933 q 742 990 724 975 q 783 1014 759 1006 q 834 1022 806 1022 q 882 1014 860 1022 q 919 992 903 1006 q 944 960 935 979 q 954 918 954 941 m 883 6 q 855 -1 871 3 q 821 -7 839 -4 q 784 -12 803 -10 q 745 -14 764 -14 q 668 -2 700 -14 q 614 32 635 10 q 584 82 593 53 q 574 147 574 112 q 575 180 574 162 q 580 219 577 199 q 586 259 583 239 q 594 299 590 280 q 603 341 597 311 q 618 412 610 372 q 636 497 627 452 q 654 581 646 541 q 669 652 663 621 q 678 694 675 683 l 895 694 l 812 304 q 801 251 807 280 q 795 199 795 221 q 811 163 795 174 q 848 153 827 153 q 884 157 866 153 q 917 167 902 161 q 900 86 908 126 q 883 6 892 47 z "},"ﬂ":{"ha":961,"x_min":7,"x_max":966,"o":"m 637 861 q 596 874 618 869 q 551 880 573 880 q 477 854 503 880 q 439 771 452 827 l 422 694 l 581 694 l 547 536 l 386 536 l 221 -231 l 7 -231 l 171 536 l 53 536 l 87 694 l 204 694 l 227 794 q 333 983 255 921 q 543 1044 410 1044 q 613 1039 578 1044 q 671 1026 648 1034 l 637 861 m 883 6 q 855 -1 871 3 q 821 -7 839 -4 q 784 -12 803 -10 q 745 -14 764 -14 q 668 -2 700 -14 q 614 32 635 10 q 584 82 593 53 q 574 147 574 112 q 575 180 574 162 q 580 219 577 199 q 586 259 583 239 q 594 299 590 280 q 603 342 596 308 q 621 427 610 376 q 645 538 632 477 q 672 664 658 600 q 699 789 686 728 q 722 901 711 850 q 740 985 733 951 q 749 1028 747 1019 l 966 1028 l 812 304 q 801 251 807 280 q 795 199 795 221 q 811 163 795 174 q 848 153 827 153 q 884 157 866 153 q 917 167 902 161 q 900 86 908 126 q 883 6 892 47 z "},"‡":{"ha":564,"x_min":14,"x_max":629,"o":"m 532 327 l 334 347 l 314 137 l 152 137 l 220 347 l 14 327 l 46 480 l 224 460 l 267 555 l 264 650 l 78 629 l 111 783 l 309 762 l 329 972 l 491 972 l 423 762 l 629 783 l 597 629 l 419 650 l 377 555 l 379 460 l 565 480 l 532 327 z "},"·":{"ha":376,"x_min":83,"x_max":334,"o":"m 334 447 q 323 399 334 421 q 296 362 313 378 q 254 339 278 347 q 203 330 231 330 q 156 338 178 330 q 118 360 134 346 q 93 394 102 374 q 83 436 83 413 q 93 484 83 462 q 120 520 103 505 q 162 544 138 536 q 214 553 186 553 q 261 545 239 553 q 299 523 283 537 q 325 489 315 509 q 334 447 334 470 z "},"‚":{"ha":404,"x_min":-11,"x_max":265,"o":"m 121 -153 l -11 -153 l 96 149 l 265 149 l 121 -153 z "},"„":{"ha":685,"x_min":-11,"x_max":547,"o":"m 401 -154 l 269 -154 l 376 147 l 547 147 l 401 -154 m 121 -154 l -11 -154 l 96 147 l 265 147 l 121 -154 z "},"‰":{"ha":1757,"x_min":115,"x_max":1693,"o":"m 1693 285 q 1687 220 1693 254 q 1667 153 1681 186 q 1632 89 1653 119 q 1580 36 1610 59 q 1511 0 1550 14 q 1422 -14 1472 -14 q 1319 6 1361 -14 q 1252 55 1278 25 q 1215 123 1226 85 q 1203 196 1203 160 q 1210 258 1203 225 q 1230 325 1216 292 q 1265 388 1243 358 q 1317 442 1286 418 q 1389 479 1348 465 q 1480 493 1429 493 q 1571 478 1531 493 q 1638 436 1611 463 q 1679 371 1665 409 q 1693 285 1693 332 m 1143 285 q 1137 220 1143 254 q 1117 153 1131 186 q 1081 89 1103 119 q 1030 36 1060 59 q 960 0 1000 14 q 872 -14 921 -14 q 769 6 811 -14 q 702 55 728 25 q 665 123 676 85 q 653 196 653 160 q 659 258 653 225 q 679 325 665 292 q 714 388 693 358 q 767 442 736 418 q 838 479 798 465 q 929 493 878 493 q 1020 478 980 493 q 1087 436 1060 463 q 1129 371 1115 409 q 1143 285 1143 332 m 290 0 l 123 0 l 964 972 l 1131 972 l 290 0 m 606 779 q 591 680 606 732 q 543 583 576 627 q 458 509 510 538 q 334 479 407 479 q 231 499 273 479 q 163 549 189 519 q 126 617 138 580 q 115 690 115 654 q 122 753 115 720 q 142 819 128 786 q 177 882 155 852 q 229 935 199 912 q 300 972 260 958 q 392 986 341 986 q 483 971 443 986 q 550 929 522 956 q 591 864 577 903 q 606 779 606 826 m 1549 282 q 1545 315 1549 298 q 1533 345 1541 332 q 1510 367 1524 358 q 1474 375 1495 375 q 1418 357 1441 375 q 1380 312 1395 339 q 1357 254 1364 286 q 1350 196 1350 223 q 1355 160 1350 177 q 1369 131 1360 144 q 1393 112 1379 119 q 1428 104 1408 104 q 1480 121 1457 104 q 1518 163 1503 137 q 1541 220 1533 189 q 1549 282 1549 252 m 997 282 q 993 315 997 298 q 981 345 989 332 q 959 367 972 358 q 924 375 945 375 q 868 357 891 375 q 829 312 844 339 q 806 254 814 286 q 799 196 799 223 q 804 160 799 177 q 818 131 808 144 q 842 112 827 119 q 876 104 857 104 q 928 121 906 104 q 966 163 951 137 q 989 220 981 189 q 997 282 997 252 m 460 775 q 456 809 460 792 q 444 839 452 826 q 421 861 435 852 q 386 869 407 869 q 330 851 353 869 q 291 807 307 833 q 269 749 276 780 q 261 690 261 718 q 266 654 261 671 q 280 625 271 637 q 305 605 290 612 q 339 597 319 597 q 391 614 369 597 q 429 656 414 631 q 452 714 444 682 q 460 775 460 745 z "},"Â":{"ha":977,"x_min":-69,"x_max":892,"o":"m 668 0 l 640 216 l 292 216 l 178 0 l -69 0 l 492 972 l 753 972 l 892 0 l 668 0 m 589 713 q 588 737 588 724 q 588 762 587 750 q 589 784 588 774 q 590 799 589 794 l 586 799 q 581 783 585 793 q 573 763 578 774 q 563 739 569 751 q 551 715 557 727 l 374 385 l 624 385 l 589 713 m 735 1061 l 656 1190 l 523 1061 l 380 1061 l 585 1282 l 755 1282 l 869 1061 l 735 1061 z "},"Ê":{"ha":736,"x_min":33,"x_max":800,"o":"m 762 794 l 422 794 l 376 575 l 693 575 l 654 396 l 339 396 l 292 178 l 654 178 l 616 0 l 33 0 l 240 972 l 800 972 l 762 794 m 642 1061 l 564 1190 l 430 1061 l 287 1061 l 492 1283 l 662 1283 l 776 1061 l 642 1061 z "},"Á":{"ha":977,"x_min":-69,"x_max":892,"o":"m 668 0 l 640 216 l 292 216 l 178 0 l -69 0 l 492 972 l 753 972 l 892 0 l 668 0 m 589 713 q 588 737 588 724 q 588 762 587 750 q 589 784 588 774 q 590 799 589 794 l 586 799 q 581 783 585 793 q 573 763 578 774 q 563 739 569 751 q 551 715 557 727 l 374 385 l 624 385 l 589 713 m 640 1062 l 481 1062 l 694 1282 l 890 1282 l 640 1062 z "},"Ë":{"ha":736,"x_min":33,"x_max":800,"o":"m 762 794 l 422 794 l 376 575 l 693 575 l 654 396 l 339 396 l 292 178 l 654 178 l 616 0 l 33 0 l 240 972 l 800 972 l 762 794 m 798 1157 q 790 1120 798 1137 q 770 1090 783 1103 q 737 1070 756 1078 q 694 1063 718 1063 q 651 1070 670 1063 q 618 1090 631 1078 q 597 1121 604 1103 q 589 1157 589 1138 q 597 1194 589 1177 q 619 1223 605 1211 q 652 1242 633 1235 q 694 1249 671 1249 q 736 1242 717 1249 q 769 1223 755 1235 q 790 1194 783 1211 q 798 1157 798 1177 m 488 1157 q 480 1120 488 1137 q 459 1090 473 1103 q 427 1070 446 1078 q 384 1063 408 1063 q 341 1070 361 1063 q 308 1090 321 1078 q 286 1121 294 1103 q 278 1157 278 1138 q 286 1194 278 1177 q 309 1223 294 1211 q 342 1242 323 1235 q 384 1249 361 1249 q 426 1242 407 1249 q 459 1223 445 1235 q 480 1194 473 1211 q 488 1157 488 1177 z "},"È":{"ha":736,"x_min":33,"x_max":800,"o":"m 762 794 l 422 794 l 376 575 l 693 575 l 654 396 l 339 396 l 292 178 l 654 178 l 616 0 l 33 0 l 240 972 l 800 972 l 762 794 m 540 1061 l 363 1282 l 543 1282 l 684 1061 l 540 1061 z "},"Í":{"ha":440,"x_min":33,"x_max":618,"o":"m 254 0 l 33 0 l 239 972 l 460 972 l 254 0 m 368 1061 l 209 1061 l 422 1282 l 618 1282 l 368 1061 z "},"Î":{"ha":440,"x_min":33,"x_max":601,"o":"m 254 0 l 33 0 l 239 972 l 460 972 l 254 0 m 467 1061 l 389 1190 l 255 1061 l 112 1061 l 317 1283 l 487 1283 l 601 1061 l 467 1061 z "},"Ï":{"ha":440,"x_min":33,"x_max":625,"o":"m 254 0 l 33 0 l 239 972 l 460 972 l 254 0 m 625 1157 q 618 1120 625 1137 q 597 1090 611 1103 q 565 1070 584 1078 q 522 1063 545 1063 q 478 1070 498 1063 q 446 1090 459 1078 q 425 1121 432 1103 q 417 1157 417 1138 q 425 1194 417 1177 q 447 1223 433 1211 q 480 1242 461 1235 q 522 1249 499 1249 q 564 1242 545 1249 q 596 1223 583 1235 q 618 1194 610 1211 q 625 1157 625 1177 m 315 1157 q 308 1120 315 1137 q 287 1090 300 1103 q 254 1070 273 1078 q 212 1063 235 1063 q 169 1070 189 1063 q 135 1090 149 1078 q 114 1121 121 1103 q 106 1157 106 1138 q 114 1194 106 1177 q 136 1223 122 1211 q 170 1242 151 1235 q 212 1249 189 1249 q 254 1242 235 1249 q 287 1223 273 1235 q 308 1194 300 1211 q 315 1157 315 1177 z "},"Ì":{"ha":440,"x_min":33,"x_max":520,"o":"m 254 0 l 33 0 l 239 972 l 460 972 l 254 0 m 376 1062 l 199 1282 l 378 1282 l 520 1062 l 376 1062 z "},"Ó":{"ha":1054,"x_min":75,"x_max":1025,"o":"m 1025 571 q 1015 454 1025 513 q 984 339 1004 395 q 934 233 964 284 q 864 140 904 182 q 790 75 830 104 q 703 26 750 46 q 601 -6 656 5 q 482 -17 546 -17 q 310 15 386 -17 q 182 103 235 47 q 103 235 130 159 q 75 401 75 312 q 86 526 75 465 q 119 644 97 587 q 174 752 141 701 q 250 846 207 803 q 323 904 284 878 q 408 949 363 930 q 506 979 454 968 q 618 989 558 989 q 783 960 708 989 q 911 878 858 932 q 995 746 965 824 q 1025 571 1025 669 m 793 564 q 779 662 793 618 q 739 735 765 705 q 676 782 713 766 q 593 798 640 798 q 490 772 538 798 q 403 703 441 747 q 362 640 380 675 q 332 566 345 605 q 314 485 320 526 q 307 404 307 444 q 321 306 307 349 q 361 233 335 262 q 423 188 387 203 q 504 172 459 172 q 610 197 559 172 q 699 269 661 221 q 740 333 722 298 q 769 408 758 369 q 787 486 781 446 q 793 564 793 526 m 627 1062 l 468 1062 l 682 1282 l 878 1282 l 627 1062 z "},"Ô":{"ha":1054,"x_min":75,"x_max":1025,"o":"m 1025 571 q 1015 454 1025 513 q 984 339 1004 395 q 934 233 964 284 q 864 140 904 182 q 790 75 830 104 q 703 26 750 46 q 601 -6 656 5 q 482 -17 546 -17 q 310 15 386 -17 q 182 103 235 47 q 103 235 130 159 q 75 401 75 312 q 86 526 75 465 q 119 644 97 587 q 174 752 141 701 q 250 846 207 803 q 323 904 284 878 q 408 949 363 930 q 506 979 454 968 q 618 989 558 989 q 783 960 708 989 q 911 878 858 932 q 995 746 965 824 q 1025 571 1025 669 m 793 564 q 779 662 793 618 q 739 735 765 705 q 676 782 713 766 q 593 798 640 798 q 490 772 538 798 q 403 703 441 747 q 362 640 380 675 q 332 566 345 605 q 314 485 320 526 q 307 404 307 444 q 321 306 307 349 q 361 233 335 262 q 423 188 387 203 q 504 172 459 172 q 610 197 559 172 q 699 269 661 221 q 740 333 722 298 q 769 408 758 369 q 787 486 781 446 q 793 564 793 526 m 722 1063 l 643 1192 l 509 1063 l 366 1063 l 572 1284 l 741 1284 l 855 1063 l 722 1063 z "},"Ò":{"ha":1054,"x_min":75,"x_max":1025,"o":"m 1025 571 q 1015 454 1025 513 q 984 339 1004 395 q 934 233 964 284 q 864 140 904 182 q 790 75 830 104 q 703 26 750 46 q 601 -6 656 5 q 482 -17 546 -17 q 310 15 386 -17 q 182 103 235 47 q 103 235 130 159 q 75 401 75 312 q 86 526 75 465 q 119 644 97 587 q 174 752 141 701 q 250 846 207 803 q 323 904 284 878 q 408 949 363 930 q 506 979 454 968 q 618 989 558 989 q 783 960 708 989 q 911 878 858 932 q 995 746 965 824 q 1025 571 1025 669 m 793 564 q 779 662 793 618 q 739 735 765 705 q 676 782 713 766 q 593 798 640 798 q 490 772 538 798 q 403 703 441 747 q 362 640 380 675 q 332 566 345 605 q 314 485 320 526 q 307 404 307 444 q 321 306 307 349 q 361 233 335 262 q 423 188 387 203 q 504 172 459 172 q 610 197 559 172 q 699 269 661 221 q 740 333 722 298 q 769 408 758 369 q 787 486 781 446 q 793 564 793 526 m 615 1061 l 439 1282 l 618 1282 l 760 1061 l 615 1061 z "},"Ú":{"ha":1004,"x_min":102,"x_max":1035,"o":"m 911 396 q 859 224 890 300 q 774 94 827 147 q 644 12 722 40 q 453 -17 566 -17 q 307 5 372 -17 q 196 70 241 28 q 126 173 151 113 q 102 311 102 234 q 107 389 102 347 q 121 468 113 431 l 229 972 l 450 972 l 340 467 q 327 395 333 431 q 321 334 321 359 q 333 264 321 294 q 366 214 345 234 q 416 183 387 193 q 478 172 445 172 q 550 184 517 172 q 610 222 583 195 q 656 292 636 248 q 690 400 677 336 l 814 972 l 1035 972 l 911 396 m 668 1063 l 509 1063 l 722 1283 l 918 1283 l 668 1063 z "},"Û":{"ha":1004,"x_min":102,"x_max":1035,"o":"m 911 396 q 859 224 890 300 q 774 94 827 147 q 644 12 722 40 q 453 -17 566 -17 q 307 5 372 -17 q 196 70 241 28 q 126 173 151 113 q 102 311 102 234 q 107 389 102 347 q 121 468 113 431 l 229 972 l 450 972 l 340 467 q 327 395 333 431 q 321 334 321 359 q 333 264 321 294 q 366 214 345 234 q 416 183 387 193 q 478 172 445 172 q 550 184 517 172 q 610 222 583 195 q 656 292 636 248 q 690 400 677 336 l 814 972 l 1035 972 l 911 396 m 751 1061 l 673 1190 l 539 1061 l 396 1061 l 602 1283 l 771 1283 l 885 1061 l 751 1061 z "},"Ù":{"ha":1004,"x_min":102,"x_max":1035,"o":"m 911 396 q 859 224 890 300 q 774 94 827 147 q 644 12 722 40 q 453 -17 566 -17 q 307 5 372 -17 q 196 70 241 28 q 126 173 151 113 q 102 311 102 234 q 107 389 102 347 q 121 468 113 431 l 229 972 l 450 972 l 340 467 q 327 395 333 431 q 321 334 321 359 q 333 264 321 294 q 366 214 345 234 q 416 183 387 193 q 478 172 445 172 q 550 184 517 172 q 610 222 583 195 q 656 292 636 248 q 690 400 677 336 l 814 972 l 1035 972 l 911 396 m 635 1061 l 459 1282 l 638 1282 l 780 1061 l 635 1061 z "},"ı":{"ha":441,"x_min":54,"x_max":397,"o":"m 363 6 q 335 -1 351 3 q 301 -7 319 -4 q 263 -12 283 -10 q 225 -14 244 -14 q 148 -2 180 -14 q 94 32 115 10 q 63 82 73 53 q 54 147 54 112 q 55 180 54 162 q 60 219 57 199 q 66 259 62 239 q 74 299 70 280 q 83 341 77 311 q 98 412 90 372 q 116 497 106 452 q 134 581 125 541 q 149 652 142 621 q 158 694 155 683 l 375 694 l 292 304 q 281 251 287 280 q 275 199 275 221 q 291 163 275 174 q 328 153 307 153 q 364 157 346 153 q 397 167 382 161 q 380 86 388 126 q 363 6 372 47 z "},"ˆ":{"ha":610,"x_min":146,"x_max":635,"o":"m 501 804 l 422 933 l 289 804 l 146 804 l 351 1026 l 521 1026 l 635 804 l 501 804 z "},"˜":{"ha":610,"x_min":147,"x_max":675,"o":"m 675 1008 q 652 924 668 960 q 612 864 635 888 q 560 828 589 840 q 498 817 531 817 q 440 825 464 817 q 397 844 416 834 q 362 863 378 854 q 325 872 345 872 q 295 866 308 872 q 273 851 282 861 q 259 829 264 842 q 252 804 254 817 l 147 804 q 166 881 152 846 q 204 941 181 916 q 257 981 227 966 q 326 996 288 996 q 382 987 360 996 q 423 968 405 978 q 459 949 441 958 q 500 940 477 940 q 546 958 528 940 q 570 1008 565 976 l 675 1008 z "},"ˉ":{"ha":610,"x_min":192,"x_max":614,"o":"m 589 804 l 192 804 l 217 921 l 614 921 l 589 804 z "},"˘":{"ha":610,"x_min":224,"x_max":648,"o":"m 648 1013 q 612 928 635 966 q 558 862 590 890 q 487 820 527 835 q 397 804 446 804 q 330 815 361 804 q 274 846 298 825 q 237 896 251 866 q 224 966 224 926 q 225 989 224 978 q 231 1013 227 1000 l 340 1013 q 338 1001 339 1007 q 338 989 338 994 q 359 936 338 954 q 412 918 381 918 q 533 1013 500 918 l 648 1013 z "},"˙":{"ha":610,"x_min":310,"x_max":517,"o":"m 517 899 q 509 862 517 880 q 489 832 502 845 q 456 812 475 819 q 414 804 437 804 q 371 812 391 804 q 338 832 352 819 q 317 862 325 845 q 310 899 310 880 q 318 936 310 919 q 339 964 326 952 q 372 982 353 976 q 414 989 391 989 q 488 964 460 989 q 517 899 517 939 z "},"˚":{"ha":610,"x_min":260,"x_max":585,"o":"m 585 935 q 570 870 585 898 q 533 823 556 842 q 480 794 510 804 q 419 785 450 785 q 357 795 386 785 q 306 824 328 805 q 272 870 285 843 q 260 930 260 897 q 274 997 260 968 q 311 1043 288 1025 q 363 1071 334 1062 q 422 1080 393 1080 q 489 1069 459 1080 q 541 1039 519 1059 q 573 993 562 1020 q 585 935 585 966 m 489 933 q 470 978 489 959 q 419 997 452 997 q 391 991 404 997 q 371 976 379 985 q 358 956 363 967 q 354 933 354 945 q 371 888 354 906 q 419 869 388 869 q 469 887 449 869 q 489 933 489 905 z "},"¸":{"ha":610,"x_min":54,"x_max":358,"o":"m 358 -155 q 345 -214 358 -186 q 302 -263 331 -241 q 231 -297 274 -284 q 129 -310 188 -310 q 90 -309 109 -310 q 54 -306 71 -307 l 75 -212 q 126 -218 104 -218 q 196 -204 171 -218 q 221 -165 221 -189 q 146 -122 221 -122 q 131 -122 138 -122 q 114 -123 123 -122 l 143 0 l 248 0 l 235 -56 q 284 -63 262 -57 q 323 -82 307 -70 q 349 -113 340 -94 q 358 -155 358 -131 z "},"˝":{"ha":610,"x_min":149,"x_max":745,"o":"m 554 804 l 408 804 l 571 1025 l 745 1025 l 554 804 m 294 804 l 149 804 l 311 1025 l 482 1025 l 294 804 z "},"˛":{"ha":610,"x_min":46,"x_max":290,"o":"m 279 0 q 229 -51 249 -29 q 196 -91 208 -73 q 179 -121 184 -108 q 174 -147 174 -135 q 225 -196 174 -196 q 260 -191 241 -196 q 290 -179 279 -185 l 271 -275 q 233 -289 257 -283 q 179 -294 209 -294 q 119 -286 144 -294 q 77 -262 94 -277 q 54 -226 61 -247 q 46 -180 46 -205 q 78 -94 46 -136 q 176 0 109 -51 l 279 0 z "},"ˇ":{"ha":610,"x_min":199,"x_max":688,"o":"m 482 804 l 313 804 l 199 1026 l 332 1026 l 411 897 l 545 1026 l 688 1026 l 482 804 z "},"Ł":{"ha":711,"x_min":-16,"x_max":652,"o":"m 614 0 l 33 0 l 106 339 l -16 292 l 22 469 l 144 517 l 240 972 l 461 972 l 385 611 l 583 689 l 546 511 l 346 433 l 293 180 l 652 180 l 614 0 z "},"ł":{"ha":461,"x_min":20,"x_max":486,"o":"m 386 6 q 358 -1 374 3 q 324 -7 342 -4 q 287 -12 306 -10 q 248 -14 267 -14 q 171 -2 203 -14 q 117 32 138 10 q 86 82 96 53 q 77 147 77 112 q 78 180 77 162 q 83 219 80 199 q 89 259 85 239 q 97 299 93 280 q 101 317 98 304 q 108 349 104 330 l 20 301 l 54 472 l 144 521 q 167 627 155 572 q 190 736 179 682 q 212 840 201 790 q 231 928 222 889 q 245 994 239 968 q 252 1028 251 1021 l 469 1028 l 389 650 l 486 703 l 450 532 l 353 481 l 315 304 q 304 251 310 280 q 298 199 298 221 q 314 163 298 174 q 351 153 330 153 q 387 157 369 153 q 420 167 405 161 q 403 86 411 126 q 386 6 395 47 z "},"Š":{"ha":746,"x_min":20,"x_max":796,"o":"m 724 747 q 677 773 703 760 q 623 795 652 785 q 562 810 594 804 q 496 817 530 817 q 431 806 457 817 q 389 780 404 795 q 366 746 373 764 q 359 713 359 728 q 367 672 359 690 q 389 636 374 653 q 429 601 404 618 q 489 561 454 583 q 571 504 535 532 q 631 442 606 475 q 669 370 656 409 q 682 283 682 332 q 676 222 682 256 q 654 156 669 189 q 611 91 638 122 q 542 36 583 60 q 443 -2 500 12 q 307 -17 385 -17 q 223 -11 264 -17 q 145 4 182 -5 q 76 26 108 14 q 20 52 44 39 l 57 244 q 112 210 82 226 q 173 181 141 193 q 240 162 205 169 q 310 155 275 155 q 376 164 349 155 q 420 187 403 172 q 444 222 437 202 q 452 264 452 241 q 445 304 452 286 q 421 339 437 322 q 378 373 405 355 q 313 414 351 391 q 237 464 271 437 q 179 523 203 490 q 141 596 155 556 q 127 686 127 637 q 149 797 127 743 q 214 894 170 851 q 329 963 259 937 q 494 989 398 989 q 572 984 534 989 q 643 972 609 980 q 707 956 677 965 q 761 936 736 946 l 724 747 m 591 1063 l 421 1063 l 307 1284 l 440 1284 l 519 1156 l 653 1284 l 796 1284 l 591 1063 z "},"š":{"ha":610,"x_min":3,"x_max":696,"o":"m 554 521 q 521 536 540 528 q 480 549 502 543 q 437 559 459 555 q 393 564 414 564 q 322 545 344 564 q 301 498 301 526 q 322 453 301 471 q 378 418 343 435 q 449 378 418 398 q 500 335 479 359 q 530 282 520 311 q 541 214 541 252 q 524 131 541 172 q 469 57 507 90 q 369 3 431 24 q 216 -17 307 -17 q 161 -14 191 -17 q 104 -7 132 -12 q 49 5 75 -2 q 3 20 23 12 l 35 183 q 75 164 52 174 q 124 147 98 155 q 178 134 151 139 q 233 129 206 129 q 309 146 284 129 q 334 195 334 164 q 315 240 334 220 q 249 281 296 259 q 181 319 210 299 q 131 362 151 338 q 100 415 111 386 q 90 481 90 444 q 105 561 90 519 q 156 635 121 602 q 249 690 191 669 q 392 711 307 711 q 445 709 418 711 q 498 703 472 707 q 547 693 524 699 q 587 682 570 688 l 554 521 m 490 804 l 321 804 l 207 1026 l 340 1026 l 419 897 l 553 1026 l 696 1026 l 490 804 z "},"Ž":{"ha":843,"x_min":-47,"x_max":942,"o":"m 916 850 l 298 178 l 774 178 l 736 0 l -47 0 l -21 126 l 604 794 l 157 794 l 195 972 l 942 972 l 916 850 m 663 1063 l 493 1063 l 379 1284 l 512 1284 l 591 1156 l 725 1284 l 868 1284 l 663 1063 z "},"ž":{"ha":675,"x_min":-57,"x_max":737,"o":"m 696 586 l 285 158 l 607 158 l 574 0 l -57 0 l -39 90 l 399 536 l 92 536 l 125 694 l 720 694 l 696 586 m 532 804 l 362 804 l 248 1026 l 381 1026 l 460 897 l 594 1026 l 737 1026 l 532 804 z "},"¦":{"ha":453,"x_min":155,"x_max":326,"o":"m 155 464 l 155 1063 l 326 1063 l 326 464 l 155 464 m 155 -326 l 155 281 l 326 281 l 326 -326 l 155 -326 z "},"Ð":{"ha":1046,"x_min":5,"x_max":1017,"o":"m 1017 575 q 981 354 1017 458 q 873 171 946 250 q 689 46 800 92 q 425 0 577 0 l 33 0 l 119 401 l 5 401 l 41 579 l 157 579 l 240 972 l 579 972 q 769 943 687 972 q 906 860 850 913 q 989 734 961 807 q 1017 575 1017 661 m 785 558 q 769 655 785 612 q 723 730 754 699 q 643 778 691 761 q 529 794 595 794 l 422 794 l 376 579 l 562 579 l 525 401 l 339 401 l 292 178 l 418 178 q 573 204 505 178 q 688 279 641 230 q 760 399 735 329 q 785 558 785 470 z "},"ð":{"ha":790,"x_min":41,"x_max":749,"o":"m 583 889 q 647 810 616 854 q 700 713 677 766 q 735 599 722 660 q 749 472 749 538 q 737 347 749 408 q 702 232 726 286 q 645 132 679 177 q 565 53 610 86 q 462 1 519 20 q 338 -17 406 -17 q 208 5 263 -17 q 115 67 152 28 q 60 162 78 107 q 41 281 41 216 q 68 445 41 367 q 142 582 95 523 q 256 676 190 642 q 399 711 321 711 q 473 696 443 711 q 524 659 503 682 l 526 659 q 508 705 519 681 q 481 752 496 729 q 452 794 467 774 q 424 827 437 814 l 229 750 l 183 835 l 351 900 q 318 932 337 915 q 280 966 300 949 q 240 999 260 983 q 201 1028 220 1015 l 433 1028 q 451 1015 441 1023 q 471 999 460 1008 q 493 981 482 990 q 511 964 503 972 l 696 1039 l 739 953 l 583 889 m 533 422 q 528 469 533 446 q 511 509 523 492 q 480 537 500 526 q 432 547 460 547 q 358 522 391 547 q 303 458 326 497 q 269 371 281 419 q 257 275 257 322 q 283 180 257 214 q 354 147 309 147 q 434 174 400 147 q 489 242 467 201 q 522 332 511 283 q 533 422 533 380 z "},"Ý":{"ha":844,"x_min":131,"x_max":975,"o":"m 526 353 l 453 0 l 232 0 l 306 349 l 131 972 l 368 972 l 446 603 q 452 560 451 580 q 454 525 453 541 l 456 525 q 472 564 463 544 q 492 600 481 583 l 729 972 l 975 972 l 526 353 m 589 1063 l 429 1063 l 643 1283 l 839 1283 l 589 1063 z "},"ý":{"ha":747,"x_min":-109,"x_max":815,"o":"m 374 -61 q 302 -171 339 -121 q 222 -254 265 -220 q 126 -308 178 -289 q 7 -326 73 -326 q -48 -322 -16 -326 q -109 -307 -81 -317 l -72 -142 q -37 -157 -58 -152 q 5 -163 -16 -163 q 80 -144 45 -163 q 140 -83 115 -125 l 196 4 l 61 694 l 286 694 l 335 272 q 338 222 337 249 q 336 179 338 196 l 339 179 q 355 221 345 196 q 378 272 364 246 l 590 694 l 815 694 l 374 -61 m 476 804 l 317 804 l 530 1025 l 726 1025 l 476 804 z "},"Þ":{"ha":875,"x_min":33,"x_max":863,"o":"m 863 554 q 838 417 863 482 q 760 301 812 351 q 625 222 707 252 q 431 192 544 192 l 296 192 l 254 0 l 33 0 l 240 972 l 461 972 l 431 829 l 545 829 q 687 808 627 829 q 786 751 747 787 q 844 664 825 714 q 863 554 863 613 m 631 538 q 622 586 631 564 q 594 626 613 609 q 546 652 575 642 q 476 661 517 661 l 395 661 l 330 359 l 432 359 q 522 374 484 359 q 584 413 559 389 q 619 470 608 437 q 631 538 631 503 z "},"þ":{"ha":823,"x_min":-58,"x_max":782,"o":"m 782 454 q 770 340 782 397 q 733 230 758 283 q 673 133 709 178 q 587 54 636 87 q 477 2 538 21 q 342 -17 416 -17 q 282 -13 315 -17 q 227 -3 250 -9 l 158 -319 l -58 -319 l 227 1028 l 443 1028 l 376 715 q 358 641 368 677 q 339 576 349 605 l 342 576 q 385 629 361 605 q 437 672 408 654 q 500 701 466 690 q 574 711 534 711 q 658 694 620 711 q 724 645 696 677 q 767 564 751 612 q 782 454 782 516 m 567 429 q 563 474 567 453 q 547 512 558 496 q 519 538 536 528 q 476 547 502 547 q 408 525 438 547 q 354 468 377 503 q 315 390 331 433 q 290 304 299 347 l 254 146 q 274 141 262 143 q 297 137 285 139 q 320 135 309 136 q 340 134 332 134 q 432 158 391 134 q 504 224 474 183 q 550 319 534 265 q 567 429 567 372 z "},"−":{"ha":983,"x_min":175,"x_max":836,"o":"m 175 329 l 175 467 l 836 467 l 836 329 l 175 329 z "},"×":{"ha":983,"x_min":172,"x_max":829,"o":"m 730 71 l 501 301 l 271 71 l 172 168 l 403 397 l 172 628 l 268 726 l 501 496 l 733 726 l 828 625 l 599 397 l 829 168 l 730 71 z "},"½":{"ha":1339,"x_min":153,"x_max":1272,"o":"m 217 396 l 307 826 q 261 800 285 811 q 217 780 238 788 q 179 766 196 772 q 153 759 161 761 l 179 883 q 240 901 209 889 q 302 928 272 913 q 359 958 332 943 q 404 986 385 973 l 486 986 l 363 396 l 217 396 m 349 0 l 183 0 l 994 972 l 1160 972 l 349 0 m 1185 1 l 775 1 l 787 58 q 823 143 797 106 q 882 208 848 180 q 951 259 915 236 q 1020 306 988 283 q 1076 353 1053 328 q 1106 410 1099 378 q 1096 454 1112 439 q 1048 469 1080 469 q 1011 465 1031 469 q 970 454 991 461 q 929 436 949 446 q 893 413 909 426 l 920 545 q 1010 581 966 571 q 1099 591 1055 591 q 1176 579 1141 591 q 1232 546 1210 568 q 1263 491 1255 524 q 1263 416 1272 458 q 1231 344 1255 378 q 1175 280 1206 310 q 1107 225 1143 250 q 1042 180 1072 200 q 992 146 1012 161 q 970 124 972 132 l 970 121 l 1210 121 l 1185 1 z "},"¼":{"ha":1320,"x_min":143,"x_max":1230,"o":"m 208 396 l 297 826 q 252 800 275 811 q 208 780 229 788 q 169 766 186 772 q 143 759 152 761 l 170 883 q 231 901 199 889 q 293 928 262 913 q 349 958 323 943 q 395 986 376 973 l 476 986 l 353 396 l 208 396 m 342 0 l 176 0 l 987 972 l 1153 972 l 342 0 m 1207 121 l 1133 121 l 1108 1 l 964 1 l 988 121 l 713 121 l 734 216 q 902 384 822 294 q 1053 578 982 474 l 1228 578 l 1155 226 l 1230 226 l 1207 121 m 1010 226 l 1055 441 q 1009 377 1034 409 q 959 318 984 346 q 908 266 933 290 q 863 226 884 242 l 1010 226 z "},"¾":{"ha":1360,"x_min":74,"x_max":1274,"o":"m 511 561 q 498 499 511 531 q 455 441 485 467 q 376 398 425 415 q 255 382 328 382 q 205 384 232 382 q 154 391 179 387 q 108 401 129 395 q 74 414 87 407 l 100 533 q 129 520 111 526 q 167 508 146 513 q 210 499 188 503 q 254 496 233 496 q 304 502 283 496 q 339 518 326 508 q 358 542 352 529 q 364 570 364 555 q 339 616 364 600 q 254 632 315 632 l 182 632 l 208 746 l 280 746 q 331 752 309 746 q 369 768 353 758 q 392 792 384 779 q 399 819 399 805 q 380 858 399 843 q 319 872 361 872 q 249 863 284 872 q 186 840 214 854 l 213 960 q 283 978 241 970 q 368 986 325 986 q 442 976 408 986 q 499 948 475 966 q 535 903 522 930 q 548 844 548 877 q 538 792 548 816 q 509 748 528 768 q 465 715 490 729 q 408 694 439 702 l 408 692 q 484 647 458 680 q 511 561 511 614 m 383 0 l 218 0 l 1029 972 l 1194 972 l 383 0 m 1251 121 l 1177 121 l 1152 1 l 1008 1 l 1032 121 l 758 121 l 778 216 q 946 384 866 294 q 1097 578 1026 474 l 1272 578 l 1199 226 l 1274 226 l 1251 121 m 1055 226 l 1099 441 q 1053 377 1078 409 q 1003 318 1028 346 q 952 266 977 290 q 907 226 928 242 l 1055 226 z "},"₣":{"ha":721,"x_min":-26,"x_max":803,"o":"m 465 151 l 286 151 l 254 0 l 35 0 l 66 151 l -26 151 l 1 279 l 94 279 l 241 972 l 803 972 l 765 795 l 422 795 l 374 566 l 688 566 l 651 389 l 336 389 l 313 279 l 492 279 l 465 151 z "},"Ğ":{"ha":985,"x_min":75,"x_max":972,"o":"m 929 733 q 880 761 908 747 q 820 784 852 774 q 750 800 787 793 q 673 806 713 806 q 520 778 589 806 q 405 701 452 751 q 331 581 357 651 q 306 425 306 511 q 323 315 306 363 q 371 233 340 266 q 448 182 403 199 q 547 164 492 164 q 608 169 584 164 q 652 179 632 173 l 693 376 l 496 376 l 533 551 l 949 551 l 844 58 q 781 31 815 44 q 705 7 746 18 q 618 -11 665 -4 q 517 -17 571 -17 q 330 14 412 -17 q 191 102 248 45 q 105 239 135 159 q 75 415 75 319 q 92 563 75 491 q 143 699 109 635 q 227 816 176 763 q 345 908 277 869 q 497 967 412 946 q 684 989 582 989 q 771 984 730 989 q 850 970 813 979 q 917 952 886 962 q 972 933 948 943 l 929 733 m 928 1271 q 892 1186 915 1225 q 839 1121 870 1148 q 767 1078 807 1093 q 677 1063 726 1063 q 610 1073 642 1063 q 554 1104 578 1084 q 517 1155 531 1124 q 504 1225 504 1185 q 506 1247 504 1236 q 511 1271 507 1258 l 621 1271 q 618 1259 619 1265 q 618 1247 618 1253 q 640 1195 618 1213 q 692 1177 661 1177 q 813 1271 781 1177 l 928 1271 z "},"ğ":{"ha":823,"x_min":-22,"x_max":803,"o":"m 677 83 q 627 -83 659 -7 q 541 -212 595 -158 q 404 -296 486 -266 q 203 -326 322 -326 q 81 -312 137 -326 q -22 -275 26 -298 l 16 -103 q 109 -150 58 -132 q 216 -168 160 -168 q 309 -154 269 -168 q 377 -112 349 -140 q 425 -43 406 -84 q 456 52 444 -2 l 468 113 l 465 113 q 427 63 448 86 q 380 22 406 39 q 324 -6 355 4 q 254 -17 293 -17 q 162 2 201 -17 q 95 56 122 22 q 55 139 68 91 q 41 245 41 187 q 54 361 41 304 q 92 470 66 418 q 155 566 117 522 q 243 643 193 610 q 357 693 294 675 q 496 711 420 711 q 579 708 538 711 q 661 700 621 705 q 736 689 701 695 q 803 676 772 682 l 677 83 m 562 554 q 526 559 547 557 q 482 561 505 561 q 394 538 435 561 q 323 475 353 515 q 275 380 292 435 q 257 264 257 326 q 262 217 257 239 q 278 180 267 196 q 305 156 289 165 q 342 147 321 147 q 392 158 369 147 q 433 188 414 169 q 466 231 452 206 q 492 282 481 255 q 512 337 504 309 q 526 390 521 365 l 562 554 m 781 1013 q 745 928 768 966 q 691 862 723 890 q 620 820 660 835 q 530 804 579 804 q 463 815 494 804 q 407 846 431 825 q 370 896 384 866 q 357 966 357 926 q 358 989 357 978 q 363 1013 360 1000 l 473 1013 q 471 1001 472 1007 q 471 989 471 994 q 492 936 471 954 q 545 918 514 918 q 666 1013 633 918 l 781 1013 z "},"İ":{"ha":440,"x_min":33,"x_max":479,"o":"m 254 0 l 33 0 l 239 972 l 460 972 l 254 0 m 479 1157 q 471 1121 479 1138 q 451 1090 464 1103 q 418 1070 437 1078 q 376 1063 399 1063 q 333 1070 353 1063 q 300 1090 314 1078 q 279 1121 287 1103 q 272 1157 272 1138 q 280 1194 272 1177 q 301 1222 288 1211 q 334 1241 315 1234 q 376 1247 353 1247 q 450 1222 422 1247 q 479 1157 479 1197 z "},"Ş":{"ha":746,"x_min":20,"x_max":761,"o":"m 483 -155 q 469 -214 483 -186 q 427 -263 456 -241 q 356 -297 399 -284 q 254 -310 313 -310 q 215 -309 233 -310 q 179 -306 196 -307 l 200 -212 q 251 -218 229 -218 q 321 -204 296 -218 q 346 -165 346 -189 q 271 -122 346 -122 q 256 -122 263 -122 q 239 -123 248 -122 l 264 -16 q 192 -6 227 -13 q 126 9 157 0 q 68 29 95 18 q 20 52 41 40 l 57 244 q 112 210 82 226 q 173 181 141 193 q 240 162 205 169 q 310 155 275 155 q 376 164 349 155 q 420 187 403 172 q 444 222 437 202 q 452 264 452 241 q 445 304 452 286 q 421 339 437 322 q 378 373 405 355 q 313 414 351 391 q 237 464 271 437 q 179 523 203 490 q 141 596 155 556 q 127 686 127 637 q 149 797 127 743 q 214 894 170 851 q 329 963 259 937 q 494 989 398 989 q 572 984 534 989 q 643 972 609 980 q 707 956 677 965 q 761 936 736 946 l 724 747 q 677 773 703 760 q 623 795 652 785 q 562 810 594 804 q 496 817 530 817 q 431 806 457 817 q 389 780 404 795 q 366 746 373 764 q 359 713 359 728 q 367 672 359 690 q 389 636 374 653 q 429 601 404 618 q 489 561 454 583 q 571 504 535 532 q 631 442 606 475 q 669 370 656 409 q 682 283 682 332 q 677 227 682 257 q 658 165 671 196 q 622 104 644 134 q 564 50 599 74 q 481 8 529 26 q 369 -14 433 -9 l 359 -56 q 409 -63 387 -57 q 448 -82 432 -70 q 474 -113 465 -94 q 483 -155 483 -131 z "},"ş":{"ha":610,"x_min":3,"x_max":587,"o":"m 399 -155 q 385 -214 399 -186 q 343 -263 372 -241 q 272 -297 315 -284 q 170 -310 229 -310 q 131 -309 149 -310 q 95 -306 112 -307 l 116 -212 q 167 -218 144 -218 q 237 -204 212 -218 q 262 -165 262 -189 q 186 -122 262 -122 q 172 -122 179 -122 q 155 -123 164 -122 l 180 -16 q 132 -11 157 -14 q 85 -4 108 -8 q 41 7 62 1 q 3 20 20 13 l 35 183 q 75 164 52 174 q 124 147 98 155 q 178 134 151 139 q 233 129 206 129 q 309 146 284 129 q 334 195 334 164 q 315 240 334 220 q 249 281 296 259 q 181 319 210 299 q 131 362 151 338 q 100 415 111 386 q 90 481 90 444 q 105 561 90 519 q 156 635 121 602 q 249 690 191 669 q 392 711 307 711 q 445 709 418 711 q 498 703 472 707 q 547 693 524 699 q 587 682 570 688 l 554 521 q 521 536 540 528 q 480 549 502 543 q 437 559 459 555 q 393 564 414 564 q 322 545 344 564 q 301 498 301 526 q 322 453 301 471 q 378 418 343 435 q 449 378 418 398 q 500 335 479 359 q 530 282 520 311 q 541 214 541 252 q 527 139 541 176 q 483 71 513 102 q 404 17 453 39 q 285 -13 355 -5 l 275 -56 q 325 -63 302 -57 q 364 -82 348 -70 q 390 -113 380 -94 q 399 -155 399 -131 z "},"Ć":{"ha":882,"x_min":71,"x_max":952,"o":"m 890 737 q 847 759 870 748 q 795 778 823 770 q 735 792 768 787 q 665 798 703 798 q 510 767 577 798 q 396 686 442 737 q 326 568 350 635 q 302 427 302 501 q 321 317 302 365 q 373 238 339 270 q 454 189 407 205 q 561 172 502 172 q 631 177 598 172 q 692 191 663 182 q 748 210 722 199 q 798 233 774 221 l 751 26 q 641 -6 701 5 q 504 -17 580 -17 q 321 13 402 -17 q 185 99 241 43 q 100 232 130 155 q 71 406 71 310 q 87 555 71 482 q 136 693 103 628 q 219 812 169 758 q 336 905 269 866 q 489 967 404 945 q 679 989 575 989 q 755 985 718 989 q 825 974 791 981 q 886 960 858 968 q 936 945 914 952 l 890 737 m 702 1063 l 543 1063 l 756 1283 l 952 1283 l 702 1063 z "},"ć":{"ha":642,"x_min":41,"x_max":757,"o":"m 611 504 q 551 534 588 522 q 472 547 515 547 q 382 524 422 547 q 315 465 342 501 q 272 382 287 428 q 257 293 257 337 q 290 185 257 223 q 387 147 322 147 q 430 151 408 147 q 473 162 452 155 q 515 178 495 170 q 551 197 535 187 l 518 33 q 420 -4 472 9 q 315 -17 368 -17 q 196 4 248 -17 q 111 63 145 25 q 59 154 76 101 q 41 269 41 206 q 55 383 41 328 q 93 487 68 438 q 155 577 118 536 q 240 648 192 618 q 346 695 288 678 q 471 711 404 711 q 530 708 502 711 q 581 698 557 704 q 621 685 604 692 q 650 672 639 678 l 611 504 m 507 804 l 347 804 l 561 1025 l 757 1025 l 507 804 z "},"Č":{"ha":882,"x_min":71,"x_max":965,"o":"m 890 737 q 847 759 870 748 q 795 778 823 770 q 735 792 768 787 q 665 798 703 798 q 510 767 577 798 q 396 686 442 737 q 326 568 350 635 q 302 427 302 501 q 321 317 302 365 q 373 238 339 270 q 454 189 407 205 q 561 172 502 172 q 631 177 598 172 q 692 191 663 182 q 748 210 722 199 q 798 233 774 221 l 751 26 q 641 -6 701 5 q 504 -17 580 -17 q 321 13 402 -17 q 185 99 241 43 q 100 232 130 155 q 71 406 71 310 q 87 555 71 482 q 136 693 103 628 q 219 812 169 758 q 336 905 269 866 q 489 967 404 945 q 679 989 575 989 q 755 985 718 989 q 825 974 791 981 q 886 960 858 968 q 936 945 914 952 l 890 737 m 760 1063 l 590 1063 l 476 1284 l 609 1284 l 688 1156 l 822 1284 l 965 1284 l 760 1063 z "},"č":{"ha":642,"x_min":41,"x_max":776,"o":"m 611 504 q 551 534 588 522 q 472 547 515 547 q 382 524 422 547 q 315 465 342 501 q 272 382 287 428 q 257 293 257 337 q 290 185 257 223 q 387 147 322 147 q 430 151 408 147 q 473 162 452 155 q 515 178 495 170 q 551 197 535 187 l 518 33 q 420 -4 472 9 q 315 -17 368 -17 q 196 4 248 -17 q 111 63 145 25 q 59 154 76 101 q 41 269 41 206 q 55 383 41 328 q 93 487 68 438 q 155 577 118 536 q 240 648 192 618 q 346 695 288 678 q 471 711 404 711 q 530 708 502 711 q 581 698 557 704 q 621 685 604 692 q 650 672 639 678 l 611 504 m 570 804 l 401 804 l 287 1026 l 420 1026 l 499 897 l 633 1026 l 776 1026 l 570 804 z "},"đ":{"ha":823,"x_min":41,"x_max":948,"o":"m 851 907 l 948 907 l 924 800 l 827 800 l 708 229 q 699 178 703 208 q 691 116 694 149 q 685 53 687 84 q 682 0 682 22 l 465 0 q 466 25 465 9 q 469 58 467 41 q 472 91 471 75 q 475 117 474 107 l 472 117 q 428 62 451 87 q 379 20 406 38 q 323 -7 353 3 q 256 -17 292 -17 q 166 1 205 -17 q 98 52 126 18 q 56 135 71 85 q 41 249 41 185 q 72 424 41 340 q 160 572 102 508 q 302 673 218 635 q 492 711 385 711 q 547 709 519 711 q 593 703 575 706 l 613 800 l 389 800 l 413 907 l 637 907 l 663 1028 l 876 1028 l 851 907 m 562 553 q 528 559 547 557 q 492 561 509 561 q 410 545 445 561 q 348 504 374 530 q 304 447 322 479 q 276 381 287 414 q 261 318 266 349 q 257 264 257 287 q 262 217 257 239 q 278 180 268 196 q 306 156 289 165 q 345 147 322 147 q 411 169 382 147 q 464 227 441 191 q 502 307 486 262 q 528 396 517 351 l 562 553 z "},"¯":{"ha":610,"x_min":192,"x_max":614,"o":"m 589 804 l 192 804 l 217 921 l 614 921 l 589 804 z "},"∙":{"ha":376,"x_min":62,"x_max":314,"o":"m 314 443 q 278 362 314 393 q 186 330 243 330 q 97 364 132 330 q 62 443 62 396 q 99 523 62 492 q 189 554 135 554 q 279 523 243 554 q 314 443 314 491 z "},"Ă":{"ha":977,"x_min":-69,"x_max":896,"o":"m 668 0 l 640 216 l 292 216 l 178 0 l -69 0 l 492 972 l 753 972 l 892 0 l 668 0 m 589 713 q 588 737 588 724 q 588 762 587 750 q 589 784 588 774 q 590 799 589 794 l 586 799 q 581 783 585 793 q 573 763 578 774 q 563 739 569 751 q 551 715 557 727 l 374 385 l 624 385 l 589 713 m 896 1271 q 860 1186 882 1225 q 806 1121 838 1148 q 734 1078 774 1093 q 645 1063 694 1063 q 577 1073 609 1063 q 522 1104 545 1084 q 485 1155 498 1124 q 471 1225 471 1185 q 473 1247 471 1236 q 478 1271 475 1258 l 588 1271 q 586 1259 587 1265 q 585 1247 585 1253 q 607 1195 585 1213 q 660 1177 629 1177 q 781 1271 748 1177 l 896 1271 z "},"ă":{"ha":823,"x_min":41,"x_max":803,"o":"m 708 229 q 699 178 703 208 q 691 116 694 149 q 685 53 687 84 q 682 0 682 22 l 465 0 q 466 26 465 10 q 469 59 467 42 q 472 91 470 75 q 475 118 473 107 l 472 118 q 431 67 452 92 q 385 24 410 43 q 327 -6 359 5 q 254 -17 296 -17 q 164 1 203 -17 q 97 54 124 20 q 56 139 70 89 q 41 252 41 189 q 48 330 41 283 q 74 428 56 376 q 126 529 93 479 q 211 621 159 580 q 337 686 263 661 q 510 711 410 711 q 588 708 549 711 q 664 700 627 705 q 737 688 702 695 q 803 675 772 682 l 708 229 m 562 554 q 528 559 547 557 q 492 561 509 561 q 410 545 445 561 q 348 505 374 530 q 304 448 322 479 q 276 383 287 416 q 261 319 266 350 q 257 264 257 288 q 262 217 257 239 q 278 180 267 196 q 305 156 289 165 q 342 147 321 147 q 411 170 380 147 q 464 227 441 192 q 502 306 486 262 q 526 392 517 349 l 562 554 m 795 1013 q 759 928 781 966 q 705 862 736 890 q 633 820 673 835 q 544 804 593 804 q 476 815 508 804 q 421 846 444 825 q 384 896 397 866 q 370 966 370 926 q 372 989 370 978 q 377 1013 374 1000 l 487 1013 q 485 1001 486 1007 q 484 989 484 994 q 506 936 484 954 q 559 918 528 918 q 680 1013 647 918 l 795 1013 z "},"Ą":{"ha":977,"x_min":-69,"x_max":892,"o":"m 772 0 q 721 -51 741 -29 q 688 -91 701 -73 q 671 -121 676 -108 q 666 -147 666 -135 q 718 -196 666 -196 q 752 -191 733 -196 q 783 -179 771 -185 l 763 -275 q 725 -289 749 -283 q 671 -294 701 -294 q 611 -286 636 -294 q 570 -262 586 -277 q 546 -226 553 -247 q 538 -180 538 -205 q 570 -94 538 -136 q 669 0 602 -51 l 668 0 l 640 216 l 292 216 l 178 0 l -69 0 l 492 972 l 753 972 l 892 0 l 772 0 m 589 713 q 588 737 588 724 q 588 762 587 750 q 589 784 588 774 q 590 799 589 794 l 586 799 q 581 783 585 793 q 573 763 578 774 q 563 739 569 751 q 551 715 557 727 l 374 385 l 624 385 l 589 713 z "},"ą":{"ha":823,"x_min":41,"x_max":803,"o":"m 708 229 q 699 178 703 208 q 691 116 694 149 q 685 53 687 84 q 682 0 682 22 l 639 0 q 588 -51 608 -29 q 555 -91 568 -73 q 538 -121 543 -108 q 533 -147 533 -135 q 585 -196 533 -196 q 619 -191 600 -196 q 650 -179 638 -185 l 630 -275 q 592 -289 616 -283 q 538 -294 568 -294 q 478 -286 503 -294 q 437 -262 453 -277 q 413 -226 420 -247 q 406 -180 406 -205 q 437 -94 406 -136 q 536 0 469 -51 l 465 0 q 466 26 465 10 q 469 59 467 42 q 472 91 470 75 q 475 118 473 107 l 472 118 q 431 67 452 92 q 385 24 410 43 q 327 -6 359 5 q 254 -17 296 -17 q 164 1 203 -17 q 97 54 124 20 q 56 139 70 89 q 41 252 41 189 q 48 330 41 283 q 74 428 56 376 q 126 529 93 479 q 211 621 159 580 q 337 686 263 661 q 510 711 410 711 q 588 708 549 711 q 664 700 627 705 q 737 688 702 695 q 803 675 772 682 l 708 229 m 562 554 q 528 559 547 557 q 492 561 509 561 q 410 545 445 561 q 348 505 374 530 q 304 448 322 479 q 276 383 287 416 q 261 319 266 350 q 257 264 257 288 q 262 217 257 239 q 278 180 267 196 q 305 156 289 165 q 342 147 321 147 q 411 170 380 147 q 464 227 441 192 q 502 306 486 262 q 526 392 517 349 l 562 554 z "},"Ď":{"ha":1046,"x_min":33,"x_max":1017,"o":"m 1017 579 q 1001 430 1017 503 q 954 292 985 357 q 874 174 922 228 q 761 82 826 121 q 612 22 695 43 q 427 0 528 0 l 33 0 l 240 972 l 582 972 q 770 943 689 972 q 906 862 851 914 q 989 738 961 810 q 1017 579 1017 666 m 785 562 q 769 660 785 616 q 723 732 754 703 q 643 778 691 762 q 529 794 595 794 l 422 794 l 292 178 l 425 178 q 574 205 508 178 q 688 283 641 233 q 760 405 734 334 q 785 562 785 475 m 701 1063 l 532 1063 l 418 1284 l 551 1284 l 630 1156 l 764 1284 l 907 1284 l 701 1063 z "},"ď":{"ha":1031,"x_min":41,"x_max":1198,"o":"m 708 229 q 699 178 703 208 q 691 116 694 149 q 685 53 687 84 q 682 0 682 22 l 465 0 q 466 25 465 9 q 469 58 467 41 q 472 91 471 75 q 475 117 474 107 l 472 117 q 428 62 451 87 q 379 20 406 38 q 323 -7 353 3 q 256 -17 292 -17 q 166 1 205 -17 q 98 52 126 18 q 56 135 71 85 q 41 249 41 185 q 72 424 41 340 q 160 572 102 508 q 302 673 218 635 q 492 711 385 711 q 547 709 519 711 q 593 703 575 706 l 663 1028 l 876 1028 l 708 229 m 562 553 q 528 559 547 557 q 492 561 509 561 q 410 545 445 561 q 348 504 374 530 q 304 447 322 479 q 276 381 287 414 q 261 318 266 349 q 257 264 257 287 q 262 217 257 239 q 278 180 268 196 q 306 156 289 165 q 345 147 322 147 q 411 169 382 147 q 464 227 441 191 q 502 307 486 262 q 528 396 517 351 l 562 553 m 1198 1029 l 1034 790 l 902 790 l 1014 1029 l 1198 1029 z "},"Đ":{"ha":1046,"x_min":5,"x_max":1017,"o":"m 1017 575 q 981 354 1017 458 q 873 171 946 250 q 689 46 800 92 q 425 0 577 0 l 33 0 l 119 401 l 5 401 l 41 579 l 157 579 l 240 972 l 579 972 q 769 943 687 972 q 906 860 850 913 q 989 734 961 807 q 1017 575 1017 661 m 785 558 q 769 655 785 612 q 723 730 754 699 q 643 778 691 761 q 529 794 595 794 l 422 794 l 376 579 l 562 579 l 525 401 l 339 401 l 292 178 l 418 178 q 573 204 505 178 q 688 279 641 230 q 760 399 735 329 q 785 558 785 470 z "},"Ę":{"ha":736,"x_min":33,"x_max":800,"o":"m 762 794 l 422 794 l 376 575 l 693 575 l 654 396 l 339 396 l 292 178 l 654 178 l 616 0 l 539 0 q 488 -51 509 -29 q 456 -91 468 -73 q 438 -121 444 -108 q 433 -147 433 -135 q 485 -196 433 -196 q 519 -191 500 -196 q 550 -179 538 -185 l 530 -275 q 493 -289 517 -283 q 439 -294 469 -294 q 378 -286 404 -294 q 337 -262 353 -277 q 313 -226 321 -247 q 306 -180 306 -205 q 337 -94 306 -136 q 436 0 369 -51 l 33 0 l 240 972 l 800 972 l 762 794 z "},"ę":{"ha":722,"x_min":41,"x_max":713,"o":"m 713 515 q 690 417 713 462 q 614 340 667 372 q 473 289 561 307 q 253 268 385 270 q 252 261 252 264 q 252 254 252 258 q 258 212 252 233 q 282 174 265 191 q 326 147 298 157 q 393 136 353 136 q 447 141 418 136 q 505 154 475 145 q 565 174 535 162 q 619 200 594 186 l 586 40 q 509 9 554 23 q 410 -12 464 -5 q 366 -58 384 -38 q 337 -94 348 -78 q 322 -122 327 -109 q 317 -147 317 -135 q 369 -196 317 -196 q 404 -191 385 -196 q 434 -179 422 -185 l 414 -275 q 377 -289 401 -283 q 323 -294 353 -294 q 262 -286 288 -294 q 221 -262 237 -277 q 197 -226 205 -247 q 190 -180 190 -205 q 216 -100 190 -140 q 300 -15 243 -61 q 183 15 232 -9 q 102 78 134 40 q 56 166 71 117 q 41 271 41 216 q 71 439 41 359 q 155 580 100 519 q 287 676 210 640 q 458 711 363 711 q 575 695 527 711 q 654 651 623 679 q 699 589 684 624 q 713 515 713 553 m 509 513 q 490 554 509 538 q 437 571 471 571 q 380 558 408 571 q 330 523 353 545 q 291 468 307 500 q 267 400 275 437 q 449 428 389 399 q 509 513 509 457 z "},"Ě":{"ha":736,"x_min":33,"x_max":823,"o":"m 762 794 l 422 794 l 376 575 l 693 575 l 654 396 l 339 396 l 292 178 l 654 178 l 616 0 l 33 0 l 240 972 l 800 972 l 762 794 m 618 1063 l 448 1063 l 334 1284 l 467 1284 l 547 1156 l 680 1284 l 823 1284 l 618 1063 z "},"ě":{"ha":722,"x_min":41,"x_max":731,"o":"m 713 515 q 690 417 713 462 q 614 340 667 372 q 473 289 561 307 q 253 268 385 270 q 252 261 252 264 q 252 254 252 258 q 258 212 252 233 q 282 174 265 191 q 326 147 298 157 q 393 136 353 136 q 447 141 418 136 q 505 154 475 145 q 565 174 535 162 q 619 200 594 186 l 586 40 q 538 19 565 29 q 479 1 511 9 q 412 -12 448 -7 q 339 -17 376 -17 q 204 6 260 -17 q 112 68 148 29 q 58 159 75 107 q 41 271 41 212 q 71 439 41 359 q 155 580 100 519 q 287 676 210 640 q 458 711 363 711 q 575 695 527 711 q 654 651 623 679 q 699 589 684 624 q 713 515 713 553 m 509 513 q 490 554 509 538 q 437 571 471 571 q 380 558 408 571 q 330 523 353 545 q 291 468 307 500 q 267 400 275 437 q 449 428 389 399 q 509 513 509 457 m 526 804 l 356 804 l 242 1026 l 375 1026 l 454 897 l 588 1026 l 731 1026 l 526 804 z "},"Ĺ":{"ha":711,"x_min":33,"x_max":844,"o":"m 614 0 l 33 0 l 240 972 l 461 972 l 293 180 l 652 180 l 614 0 m 593 1063 l 434 1063 l 648 1283 l 844 1283 l 593 1063 z "},"ĺ":{"ha":441,"x_min":54,"x_max":635,"o":"m 363 6 q 335 -1 351 3 q 301 -7 319 -4 q 263 -12 283 -10 q 225 -14 244 -14 q 148 -2 180 -14 q 94 32 115 10 q 63 82 73 53 q 54 147 54 112 q 55 180 54 162 q 60 219 57 199 q 66 259 62 239 q 74 299 70 280 q 83 342 76 308 q 101 427 90 376 q 125 538 112 477 q 152 664 138 600 q 178 789 165 728 q 202 901 191 850 q 220 985 213 951 q 229 1028 227 1019 l 446 1028 l 292 304 q 281 251 287 280 q 275 199 275 221 q 291 163 275 174 q 328 153 307 153 q 364 157 346 153 q 397 167 382 161 q 380 86 388 126 q 363 6 372 47 m 385 1118 l 226 1118 l 439 1339 l 635 1339 l 385 1118 z "},"Ľ":{"ha":711,"x_min":33,"x_max":830,"o":"m 614 0 l 33 0 l 240 972 l 461 972 l 293 180 l 652 180 l 614 0 m 830 972 l 665 734 l 534 734 l 646 972 l 830 972 z "},"ľ":{"ha":600,"x_min":54,"x_max":768,"o":"m 363 6 q 335 -1 351 3 q 301 -7 319 -4 q 263 -12 283 -10 q 225 -14 244 -14 q 148 -2 180 -14 q 94 32 115 10 q 63 82 73 53 q 54 147 54 112 q 55 180 54 162 q 60 219 57 199 q 66 259 62 239 q 74 299 70 280 q 83 342 76 308 q 101 427 90 376 q 125 538 112 477 q 152 664 138 600 q 178 789 165 728 q 202 901 191 850 q 220 985 213 951 q 229 1028 227 1019 l 446 1028 l 292 304 q 281 251 287 280 q 275 199 275 221 q 291 163 275 174 q 328 153 307 153 q 364 157 346 153 q 397 167 382 161 q 380 86 388 126 q 363 6 372 47 m 768 1028 l 603 789 l 471 789 l 583 1028 l 768 1028 z "},"Ŀ":{"ha":711,"x_min":33,"x_max":697,"o":"m 614 0 l 33 0 l 240 972 l 461 972 l 293 180 l 652 180 l 614 0 m 697 534 q 690 498 697 515 q 669 468 682 481 q 637 448 656 455 q 594 440 618 440 q 552 448 571 440 q 519 468 532 455 q 498 498 505 481 q 490 534 490 515 q 498 571 490 555 q 520 600 506 588 q 553 618 534 612 q 594 625 572 625 q 669 600 640 625 q 697 534 697 574 z "},"ŀ":{"ha":602,"x_min":54,"x_max":628,"o":"m 363 6 q 335 -1 351 3 q 301 -7 319 -4 q 263 -12 283 -10 q 225 -14 244 -14 q 148 -2 180 -14 q 94 32 115 10 q 63 82 73 53 q 54 147 54 112 q 55 180 54 162 q 60 219 57 199 q 66 259 62 239 q 74 299 70 280 q 83 342 76 308 q 101 427 90 376 q 125 538 112 477 q 152 664 138 600 q 178 789 165 728 q 202 901 191 850 q 220 985 213 951 q 229 1028 227 1019 l 446 1028 l 292 304 q 281 251 287 280 q 275 199 275 221 q 291 163 275 174 q 328 153 307 153 q 364 157 346 153 q 397 167 382 161 q 380 86 388 126 q 363 6 372 47 m 628 494 q 621 457 628 475 q 600 427 613 440 q 568 407 587 414 q 525 399 549 399 q 483 407 502 399 q 450 427 463 414 q 429 457 436 440 q 421 494 421 475 q 429 531 421 514 q 451 559 437 547 q 484 577 465 571 q 525 584 503 584 q 600 559 571 584 q 628 494 628 534 z "},"Ń":{"ha":1109,"x_min":33,"x_max":1129,"o":"m 924 0 l 724 0 l 419 618 q 410 637 415 626 q 401 659 406 648 q 392 680 396 670 q 386 699 388 690 l 382 699 q 374 642 378 673 q 363 581 370 611 l 239 0 l 33 0 l 239 972 l 456 972 l 747 378 q 756 360 751 370 q 766 338 761 349 q 775 316 771 327 q 782 297 780 305 l 785 297 q 787 320 785 307 q 790 345 788 332 q 794 370 792 358 q 799 392 797 382 l 922 972 l 1129 972 l 924 0 m 723 1063 l 564 1063 l 777 1283 l 973 1283 l 723 1063 z "},"ń":{"ha":831,"x_min":11,"x_max":805,"o":"m 781 529 q 779 502 781 519 q 773 467 777 485 q 767 431 770 448 q 761 401 764 414 l 676 0 l 461 0 l 545 396 q 553 441 549 418 q 557 476 557 464 q 540 528 557 509 q 490 547 524 547 q 432 530 463 547 q 376 484 402 513 q 329 419 349 456 q 301 343 309 382 l 229 0 l 11 0 l 114 476 q 126 539 120 507 q 137 599 132 570 q 145 653 142 628 q 151 694 149 677 l 363 694 q 358 655 361 675 q 354 615 356 634 q 349 582 351 596 q 346 561 347 567 l 349 561 q 402 620 372 592 q 466 667 432 647 q 535 700 499 688 q 607 711 571 711 q 737 664 693 711 q 781 529 781 616 m 555 804 l 395 804 l 609 1025 l 805 1025 l 555 804 z "},"Ň":{"ha":1109,"x_min":33,"x_max":1129,"o":"m 924 0 l 724 0 l 419 618 q 410 637 415 626 q 401 659 406 648 q 392 680 396 670 q 386 699 388 690 l 382 699 q 374 642 378 673 q 363 581 370 611 l 239 0 l 33 0 l 239 972 l 456 972 l 747 378 q 756 360 751 370 q 766 338 761 349 q 775 316 771 327 q 782 297 780 305 l 785 297 q 787 320 785 307 q 790 345 788 332 q 794 370 792 358 q 799 392 797 382 l 922 972 l 1129 972 l 924 0 m 764 1063 l 595 1063 l 481 1284 l 614 1284 l 693 1156 l 827 1284 l 970 1284 l 764 1063 z "},"ň":{"ha":831,"x_min":11,"x_max":800,"o":"m 781 529 q 779 502 781 519 q 773 467 777 485 q 767 431 770 448 q 761 401 764 414 l 676 0 l 461 0 l 545 396 q 553 441 549 418 q 557 476 557 464 q 540 528 557 509 q 490 547 524 547 q 432 530 463 547 q 376 484 402 513 q 329 419 349 456 q 301 343 309 382 l 229 0 l 11 0 l 114 476 q 126 539 120 507 q 137 599 132 570 q 145 653 142 628 q 151 694 149 677 l 363 694 q 358 655 361 675 q 354 615 356 634 q 349 582 351 596 q 346 561 347 567 l 349 561 q 402 620 372 592 q 466 667 432 647 q 535 700 499 688 q 607 711 571 711 q 737 664 693 711 q 781 529 781 616 m 595 804 l 425 804 l 311 1026 l 444 1026 l 524 897 l 657 1026 l 800 1026 l 595 804 z "},"Ő":{"ha":1054,"x_min":75,"x_max":1025,"o":"m 1025 571 q 1015 454 1025 513 q 984 339 1004 395 q 934 233 964 284 q 864 140 904 182 q 790 75 830 104 q 703 26 750 46 q 601 -6 656 5 q 482 -17 546 -17 q 310 15 386 -17 q 182 103 235 47 q 103 235 130 159 q 75 401 75 312 q 86 526 75 465 q 119 644 97 587 q 174 752 141 701 q 250 846 207 803 q 323 904 284 878 q 408 949 363 930 q 506 979 454 968 q 618 989 558 989 q 783 960 708 989 q 911 878 858 932 q 995 746 965 824 q 1025 571 1025 669 m 793 564 q 779 662 793 618 q 739 735 765 705 q 676 782 713 766 q 593 798 640 798 q 490 772 538 798 q 403 703 441 747 q 362 640 380 675 q 332 566 345 605 q 314 485 320 526 q 307 404 307 444 q 321 306 307 349 q 361 233 335 262 q 423 188 387 203 q 504 172 459 172 q 610 197 559 172 q 699 269 661 221 q 740 333 722 298 q 769 408 758 369 q 787 486 781 446 q 793 564 793 526 m 798 1063 l 652 1063 l 814 1283 l 988 1283 l 798 1063 m 538 1063 l 392 1063 l 555 1283 l 726 1283 l 538 1063 z "},"ő":{"ha":799,"x_min":41,"x_max":847,"o":"m 757 419 q 747 320 757 371 q 718 221 738 269 q 665 129 697 172 q 587 53 633 85 q 481 2 541 21 q 345 -17 421 -17 q 210 5 267 -17 q 115 67 153 28 q 60 160 78 106 q 41 277 41 214 q 52 379 41 327 q 83 479 62 431 q 138 569 104 527 q 217 643 171 612 q 322 693 263 675 q 456 711 382 711 q 584 691 528 711 q 679 632 640 670 q 737 539 717 593 q 757 419 757 486 m 541 416 q 534 469 541 445 q 514 510 527 493 q 481 537 500 528 q 437 547 463 547 q 361 523 395 547 q 304 460 328 498 q 269 373 281 421 q 257 277 257 325 q 286 181 257 215 q 361 147 315 147 q 438 171 405 147 q 495 233 472 195 q 529 319 517 271 q 541 416 541 368 m 656 804 l 511 804 l 673 1025 l 847 1025 l 656 804 m 397 804 l 251 804 l 414 1025 l 585 1025 l 397 804 z "},"Ŕ":{"ha":889,"x_min":33,"x_max":885,"o":"m 885 725 q 863 613 885 663 q 802 527 840 564 q 711 467 763 490 q 600 436 659 444 l 600 433 q 672 382 642 420 q 717 281 702 344 l 785 0 l 550 0 l 497 250 q 454 341 485 311 q 371 372 424 372 l 334 372 l 254 0 l 33 0 l 240 972 l 572 972 q 717 952 657 972 q 814 898 777 932 q 868 819 851 864 q 885 725 885 774 m 652 689 q 618 777 652 745 q 518 808 585 808 l 427 808 l 368 538 l 457 538 q 544 550 507 538 q 604 584 581 563 q 640 632 628 604 q 652 689 652 659 m 607 1063 l 448 1063 l 661 1283 l 857 1283 l 607 1063 z "},"ŕ":{"ha":555,"x_min":11,"x_max":732,"o":"m 564 497 l 562 497 q 526 511 548 505 q 485 517 504 517 q 413 499 445 517 q 357 450 381 481 q 316 379 332 420 q 289 292 299 338 l 228 0 l 11 0 l 106 443 q 119 509 113 475 q 131 575 125 543 q 141 639 137 608 q 149 694 146 669 l 361 694 q 356 654 359 675 q 352 613 354 633 q 347 578 349 594 q 343 554 345 563 l 346 554 q 434 672 388 632 q 542 711 481 711 q 576 708 559 711 q 607 703 593 705 l 564 497 m 482 804 l 323 804 l 536 1025 l 732 1025 l 482 804 z "},"Ř":{"ha":889,"x_min":33,"x_max":885,"o":"m 885 725 q 863 613 885 663 q 802 527 840 564 q 711 467 763 490 q 600 436 659 444 l 600 433 q 672 382 642 420 q 717 281 702 344 l 785 0 l 550 0 l 497 250 q 454 341 485 311 q 371 372 424 372 l 334 372 l 254 0 l 33 0 l 240 972 l 572 972 q 717 952 657 972 q 814 898 777 932 q 868 819 851 864 q 885 725 885 774 m 652 689 q 618 777 652 745 q 518 808 585 808 l 427 808 l 368 538 l 457 538 q 544 550 507 538 q 604 584 581 563 q 640 632 628 604 q 652 689 652 659 m 647 1063 l 477 1063 l 363 1284 l 496 1284 l 576 1156 l 709 1284 l 852 1284 l 647 1063 z "},"ř":{"ha":555,"x_min":11,"x_max":702,"o":"m 564 497 l 562 497 q 526 511 548 505 q 485 517 504 517 q 413 499 445 517 q 357 450 381 481 q 316 379 332 420 q 289 292 299 338 l 228 0 l 11 0 l 106 443 q 119 509 113 475 q 131 575 125 543 q 141 639 137 608 q 149 694 146 669 l 361 694 q 356 654 359 675 q 352 613 354 633 q 347 578 349 594 q 343 554 345 563 l 346 554 q 434 672 388 632 q 542 711 481 711 q 576 708 559 711 q 607 703 593 705 l 564 497 m 496 804 l 327 804 l 213 1026 l 346 1026 l 425 897 l 559 1026 l 702 1026 l 496 804 z "},"Ś":{"ha":746,"x_min":20,"x_max":810,"o":"m 724 747 q 677 773 703 760 q 623 795 652 785 q 562 810 594 804 q 496 817 530 817 q 431 806 457 817 q 389 780 404 795 q 366 746 373 764 q 359 713 359 728 q 367 672 359 690 q 389 636 374 653 q 429 601 404 618 q 489 561 454 583 q 571 504 535 532 q 631 442 606 475 q 669 370 656 409 q 682 283 682 332 q 676 222 682 256 q 654 156 669 189 q 611 91 638 122 q 542 36 583 60 q 443 -2 500 12 q 307 -17 385 -17 q 223 -11 264 -17 q 145 4 182 -5 q 76 26 108 14 q 20 52 44 39 l 57 244 q 112 210 82 226 q 173 181 141 193 q 240 162 205 169 q 310 155 275 155 q 376 164 349 155 q 420 187 403 172 q 444 222 437 202 q 452 264 452 241 q 445 304 452 286 q 421 339 437 322 q 378 373 405 355 q 313 414 351 391 q 237 464 271 437 q 179 523 203 490 q 141 596 155 556 q 127 686 127 637 q 149 797 127 743 q 214 894 170 851 q 329 963 259 937 q 494 989 398 989 q 572 984 534 989 q 643 972 609 980 q 707 956 677 965 q 761 936 736 946 l 724 747 m 559 1063 l 400 1063 l 614 1283 l 810 1283 l 559 1063 z "},"ś":{"ha":610,"x_min":3,"x_max":704,"o":"m 554 521 q 521 536 540 528 q 480 549 502 543 q 437 559 459 555 q 393 564 414 564 q 322 545 344 564 q 301 498 301 526 q 322 453 301 471 q 378 418 343 435 q 449 378 418 398 q 500 335 479 359 q 530 282 520 311 q 541 214 541 252 q 524 131 541 172 q 469 57 507 90 q 369 3 431 24 q 216 -17 307 -17 q 161 -14 191 -17 q 104 -7 132 -12 q 49 5 75 -2 q 3 20 23 12 l 35 183 q 75 164 52 174 q 124 147 98 155 q 178 134 151 139 q 233 129 206 129 q 309 146 284 129 q 334 195 334 164 q 315 240 334 220 q 249 281 296 259 q 181 319 210 299 q 131 362 151 338 q 100 415 111 386 q 90 481 90 444 q 105 561 90 519 q 156 635 121 602 q 249 690 191 669 q 392 711 307 711 q 445 709 418 711 q 498 703 472 707 q 547 693 524 699 q 587 682 570 688 l 554 521 m 454 804 l 294 804 l 508 1025 l 704 1025 l 454 804 z "},"Ţ":{"ha":815,"x_min":111,"x_max":922,"o":"m 473 -155 q 460 -214 473 -186 q 418 -263 446 -241 q 346 -297 389 -284 q 244 -310 303 -310 q 205 -309 224 -310 q 170 -306 186 -307 l 191 -212 q 241 -218 219 -218 q 311 -204 286 -218 q 336 -165 336 -189 q 261 -122 336 -122 q 246 -122 254 -122 q 229 -123 239 -122 l 258 0 l 221 0 l 389 794 l 111 794 l 150 972 l 922 972 l 884 794 l 610 794 l 441 0 l 363 0 l 350 -56 q 400 -63 377 -57 q 439 -82 422 -70 q 464 -113 455 -94 q 473 -155 473 -131 z "},"ţ":{"ha":521,"x_min":43,"x_max":564,"o":"m 378 -155 q 365 -214 378 -186 q 323 -263 351 -241 q 251 -297 294 -284 q 149 -310 208 -310 q 110 -309 129 -310 q 75 -306 92 -307 l 96 -212 q 146 -218 124 -218 q 216 -204 191 -218 q 241 -165 241 -189 q 166 -122 241 -122 q 151 -122 159 -122 q 134 -123 144 -122 l 163 0 l 165 0 q 124 26 140 10 q 97 62 107 41 q 82 106 87 82 q 78 157 78 130 q 79 182 78 168 q 83 211 81 196 q 89 241 85 226 q 94 269 92 256 l 150 536 l 43 536 l 81 694 l 183 694 l 218 857 l 444 913 l 399 694 l 564 694 l 526 536 l 364 536 l 309 277 q 305 258 307 268 q 301 237 303 248 q 298 218 300 227 q 297 203 297 209 q 311 163 297 176 q 355 150 324 150 q 376 152 363 150 q 402 157 389 154 q 427 164 415 161 q 447 171 439 168 l 414 12 q 385 3 402 7 q 349 -6 368 -2 q 307 -12 329 -9 q 264 -16 286 -15 l 255 -56 q 305 -63 282 -57 q 344 -82 328 -70 q 369 -113 360 -94 q 378 -155 378 -131 z "},"Ť":{"ha":815,"x_min":111,"x_max":922,"o":"m 884 794 l 610 794 l 441 0 l 221 0 l 389 794 l 111 794 l 150 972 l 922 972 l 884 794 m 623 1063 l 453 1063 l 339 1284 l 472 1284 l 551 1156 l 685 1284 l 828 1284 l 623 1063 z "},"ť":{"ha":701,"x_min":43,"x_max":869,"o":"m 526 536 l 364 536 l 309 277 q 305 258 307 268 q 301 237 303 248 q 298 218 300 227 q 297 203 297 209 q 311 163 297 176 q 355 150 324 150 q 376 152 363 150 q 402 157 389 154 q 427 164 415 161 q 447 171 439 168 l 414 12 q 384 3 401 7 q 345 -6 366 -2 q 301 -13 324 -10 q 257 -16 279 -16 q 171 -2 205 -16 q 116 34 136 11 q 86 89 95 58 q 78 157 78 120 q 79 182 78 168 q 83 211 81 196 q 89 241 85 226 q 94 269 92 256 l 150 536 l 43 536 l 81 694 l 183 694 l 218 857 l 444 913 l 399 694 l 564 694 l 526 536 m 869 1029 l 705 790 l 573 790 l 685 1029 l 869 1029 z "},"Ů":{"ha":1004,"x_min":102,"x_max":1035,"o":"m 911 396 q 859 224 890 300 q 774 94 827 147 q 644 12 722 40 q 453 -17 566 -17 q 307 5 372 -17 q 196 70 241 28 q 126 173 151 113 q 102 311 102 234 q 107 389 102 347 q 121 468 113 431 l 229 972 l 450 972 l 340 467 q 327 395 333 431 q 321 334 321 359 q 333 264 321 294 q 366 214 345 234 q 416 183 387 193 q 478 172 445 172 q 550 184 517 172 q 610 222 583 195 q 656 292 636 248 q 690 400 677 336 l 814 972 l 1035 972 l 911 396 m 821 1193 q 806 1128 821 1156 q 769 1082 792 1101 q 716 1053 746 1063 q 655 1043 686 1043 q 593 1053 622 1043 q 542 1082 564 1063 q 508 1128 521 1101 q 496 1189 496 1156 q 510 1255 496 1227 q 547 1302 524 1283 q 600 1330 570 1320 q 659 1339 629 1339 q 725 1328 695 1339 q 777 1298 755 1317 q 809 1252 798 1278 q 821 1193 821 1225 m 725 1192 q 706 1236 725 1217 q 655 1255 688 1255 q 627 1250 640 1255 q 607 1235 615 1244 q 594 1214 599 1225 q 590 1192 590 1203 q 607 1146 590 1164 q 655 1128 624 1128 q 705 1145 685 1128 q 725 1192 725 1163 z "},"ů":{"ha":831,"x_min":45,"x_max":812,"o":"m 713 231 q 701 167 707 200 q 692 104 696 134 q 685 46 688 73 q 681 0 682 20 l 464 0 q 468 40 466 20 q 473 78 471 60 q 478 111 476 96 q 481 131 480 125 l 478 131 q 421 71 452 98 q 358 24 391 43 q 291 -6 326 5 q 220 -17 256 -17 q 89 31 134 -17 q 45 165 45 79 q 47 193 45 176 q 52 228 49 210 q 58 263 55 246 q 64 293 61 281 l 149 694 l 364 694 l 281 302 q 276 279 278 292 q 272 256 273 267 q 269 235 270 244 q 268 220 268 225 q 284 172 268 190 q 332 154 300 154 q 397 173 366 154 q 455 222 429 192 q 499 291 481 253 q 526 367 518 329 l 596 694 l 812 694 l 713 231 m 677 935 q 663 870 677 898 q 626 823 649 842 q 573 794 603 804 q 512 785 543 785 q 450 795 479 785 q 399 824 420 805 q 365 870 378 843 q 353 930 353 897 q 367 997 353 968 q 404 1043 381 1025 q 456 1071 427 1062 q 515 1080 486 1080 q 582 1069 552 1080 q 633 1039 612 1059 q 666 993 654 1020 q 677 935 677 966 m 582 933 q 563 978 582 959 q 512 997 545 997 q 484 991 496 997 q 464 976 472 985 q 451 956 456 967 q 447 933 447 945 q 464 888 447 906 q 512 869 481 869 q 562 887 542 869 q 582 933 582 905 z "},"Ű":{"ha":1004,"x_min":102,"x_max":1035,"o":"m 911 396 q 859 224 890 300 q 774 94 827 147 q 644 12 722 40 q 453 -17 566 -17 q 307 5 372 -17 q 196 70 241 28 q 126 173 151 113 q 102 311 102 234 q 107 389 102 347 q 121 468 113 431 l 229 972 l 450 972 l 340 467 q 327 395 333 431 q 321 334 321 359 q 333 264 321 294 q 366 214 345 234 q 416 183 387 193 q 478 172 445 172 q 550 184 517 172 q 610 222 583 195 q 656 292 636 248 q 690 400 677 336 l 814 972 l 1035 972 l 911 396 m 792 1063 l 646 1063 l 809 1283 l 983 1283 l 792 1063 m 532 1063 l 387 1063 l 549 1283 l 720 1283 l 532 1063 z "},"ű":{"ha":831,"x_min":45,"x_max":878,"o":"m 713 231 q 701 167 707 200 q 692 104 696 134 q 685 46 688 73 q 681 0 682 20 l 464 0 q 468 40 466 20 q 473 78 471 60 q 478 111 476 96 q 481 131 480 125 l 478 131 q 421 71 452 98 q 358 24 391 43 q 291 -6 326 5 q 220 -17 256 -17 q 89 31 134 -17 q 45 165 45 79 q 47 193 45 176 q 52 228 49 210 q 58 263 55 246 q 64 293 61 281 l 149 694 l 364 694 l 281 302 q 276 279 278 292 q 272 256 273 267 q 269 235 270 244 q 268 220 268 225 q 284 172 268 190 q 332 154 300 154 q 397 173 366 154 q 455 222 429 192 q 499 291 481 253 q 526 367 518 329 l 596 694 l 812 694 l 713 231 m 688 804 l 542 804 l 705 1025 l 878 1025 l 688 804 m 428 804 l 282 804 l 445 1025 l 616 1025 l 428 804 z "},"Ź":{"ha":843,"x_min":-47,"x_max":942,"o":"m 916 850 l 298 178 l 774 178 l 736 0 l -47 0 l -21 126 l 604 794 l 157 794 l 195 972 l 942 972 l 916 850 m 610 1063 l 451 1063 l 665 1283 l 861 1283 l 610 1063 z "},"ź":{"ha":675,"x_min":-57,"x_max":741,"o":"m 696 586 l 285 158 l 607 158 l 574 0 l -57 0 l -39 90 l 399 536 l 92 536 l 125 694 l 720 694 l 696 586 m 491 804 l 332 804 l 545 1025 l 741 1025 l 491 804 z "},"Ż":{"ha":843,"x_min":-47,"x_max":942,"o":"m 916 850 l 298 178 l 774 178 l 736 0 l -47 0 l -21 126 l 604 794 l 157 794 l 195 972 l 942 972 l 916 850 m 684 1157 q 676 1121 684 1138 q 655 1090 669 1103 q 623 1070 642 1078 q 581 1063 604 1063 q 538 1070 557 1063 q 505 1090 519 1078 q 484 1121 492 1103 q 477 1157 477 1138 q 485 1194 477 1177 q 506 1222 492 1211 q 539 1241 520 1234 q 581 1247 558 1247 q 655 1222 627 1247 q 684 1157 684 1197 z "},"ż":{"ha":675,"x_min":-57,"x_max":720,"o":"m 696 586 l 285 158 l 607 158 l 574 0 l -57 0 l -39 90 l 399 536 l 92 536 l 125 694 l 720 694 l 696 586 m 543 899 q 536 862 543 880 q 515 832 528 845 q 483 812 502 819 q 440 804 464 804 q 398 812 417 804 q 365 832 378 819 q 344 862 351 845 q 336 899 336 880 q 344 936 336 919 q 366 964 352 952 q 399 982 380 976 q 440 989 418 989 q 515 964 486 989 q 543 899 543 939 z "},"Γ":{"ha":736,"x_min":33,"x_max":820,"o":"m 781 792 l 420 792 l 252 0 l 33 0 l 240 972 l 820 972 l 781 792 z "},"Θ":{"ha":1054,"x_min":75,"x_max":1025,"o":"m 1025 571 q 1015 454 1025 513 q 984 339 1004 395 q 934 233 964 284 q 864 140 904 182 q 790 75 830 104 q 703 26 750 46 q 601 -6 656 5 q 482 -17 546 -17 q 310 15 386 -17 q 182 103 235 47 q 103 235 130 159 q 75 401 75 312 q 86 526 75 465 q 119 644 97 587 q 174 752 141 701 q 250 846 207 803 q 323 904 284 878 q 408 949 363 930 q 506 979 454 968 q 618 989 558 989 q 783 960 708 989 q 911 878 858 932 q 995 746 965 824 q 1025 571 1025 669 m 793 564 q 779 662 793 618 q 739 735 765 705 q 676 782 713 766 q 593 798 640 798 q 490 772 538 798 q 403 703 441 747 q 362 640 380 675 q 332 566 345 605 q 314 485 320 526 q 307 404 307 444 q 321 306 307 349 q 361 233 335 262 q 423 188 387 203 q 504 172 459 172 q 610 197 559 172 q 699 269 661 221 q 740 333 722 298 q 769 408 758 369 q 787 486 781 446 q 793 564 793 526 m 679 405 l 383 405 l 418 567 l 713 567 l 679 405 z "},"Φ":{"ha":1146,"x_min":53,"x_max":1143,"o":"m 1143 549 q 1132 452 1143 502 q 1099 354 1122 401 q 1041 264 1076 307 q 957 190 1006 222 q 844 140 908 159 q 701 122 781 122 l 623 122 l 595 -16 l 386 -16 l 414 122 l 378 122 q 246 143 306 122 q 143 206 186 165 q 77 307 100 247 q 53 444 53 366 q 64 546 53 494 q 98 646 75 597 q 156 738 121 695 q 242 812 192 780 q 356 862 292 844 q 502 880 421 880 l 580 880 l 602 987 l 805 987 l 783 880 l 819 880 q 951 859 891 880 q 1053 797 1010 838 q 1119 693 1096 755 q 1143 549 1143 631 m 926 545 q 915 620 926 588 q 882 674 903 652 q 833 707 861 696 q 770 718 804 718 l 749 718 l 657 284 l 691 284 q 795 308 751 284 q 869 368 840 331 q 912 452 898 405 q 926 545 926 498 m 506 718 q 402 694 446 718 q 329 634 358 671 q 286 550 300 597 q 271 456 271 503 q 283 381 271 414 q 315 328 294 349 q 365 295 336 306 q 427 284 393 284 l 448 284 l 541 718 l 506 718 z "},"α":{"ha":904,"x_min":41,"x_max":932,"o":"m 537 346 q 530 426 535 389 q 516 491 526 463 q 489 534 506 518 q 447 549 473 549 q 373 523 408 549 q 313 454 338 496 q 272 359 287 412 q 258 254 258 307 q 263 213 258 231 q 279 180 269 194 q 303 159 289 167 q 336 152 318 152 q 432 192 385 152 q 516 304 478 233 l 537 346 m 552 166 q 428 31 496 79 q 273 -17 360 -17 q 178 1 220 -17 q 105 52 135 18 q 58 134 75 85 q 41 244 41 182 q 55 368 41 309 q 95 479 69 427 q 158 574 121 531 q 239 647 194 616 q 335 694 283 677 q 444 711 387 711 q 519 701 487 711 q 576 671 552 690 q 616 624 600 652 q 644 562 633 596 l 647 562 q 681 628 663 592 q 713 694 699 663 l 932 694 q 824 519 871 596 q 785 454 804 486 q 750 397 766 422 q 716 342 732 368 q 738 208 721 254 q 794 161 755 161 q 822 164 808 161 q 850 172 837 166 q 831 91 841 132 q 812 8 822 50 q 770 -4 797 2 q 706 -10 743 -10 q 599 33 637 -10 q 555 166 561 75 l 552 166 z "},"δ":{"ha":854,"x_min":41,"x_max":867,"o":"m 830 809 q 773 837 804 824 q 711 858 743 849 q 648 873 679 867 q 591 878 617 878 q 508 861 538 878 q 478 810 478 844 q 491 771 478 790 q 525 733 503 752 q 575 694 546 714 q 635 650 604 674 q 707 591 675 622 q 760 525 738 561 q 793 447 782 490 q 805 352 805 405 q 778 197 805 266 q 697 81 750 129 q 566 8 644 33 q 387 -18 488 -18 q 239 5 304 -18 q 131 68 175 28 q 64 163 87 109 q 41 283 41 218 q 55 381 41 337 q 93 460 69 425 q 148 522 117 495 q 215 569 180 549 q 287 604 250 589 q 358 627 324 618 q 319 665 337 644 q 288 710 301 686 q 267 760 275 734 q 259 814 259 786 q 289 927 259 883 q 368 997 319 972 q 478 1032 417 1023 q 601 1042 539 1042 q 669 1039 633 1042 q 741 1029 705 1036 q 808 1015 776 1023 q 867 995 841 1006 l 830 809 m 470 529 q 384 494 422 515 q 316 444 345 473 q 273 376 288 414 q 258 292 258 338 q 296 185 258 224 q 403 146 335 146 q 477 159 443 146 q 536 195 511 171 q 575 254 561 218 q 589 337 589 290 q 575 407 589 376 q 542 462 561 438 q 503 503 523 486 q 470 529 483 520 z "},"ε":{"ha":658,"x_min":11,"x_max":653,"o":"m 548 19 q 438 -6 497 4 q 304 -17 380 -17 q 180 -3 235 -17 q 89 36 126 10 q 31 97 51 61 q 11 177 11 132 q 29 254 11 222 q 75 308 47 286 q 139 341 104 329 q 210 360 175 354 q 210 361 210 361 q 211 363 210 362 q 170 384 189 371 q 136 415 151 397 q 113 456 121 433 q 104 505 104 478 q 128 596 104 557 q 195 660 151 635 q 301 699 239 686 q 440 711 363 711 q 500 709 470 711 q 557 702 530 707 q 610 692 585 698 q 653 680 634 686 q 638 606 646 642 q 623 532 631 569 q 581 547 604 540 q 536 559 559 554 q 491 566 513 564 q 450 569 469 569 q 404 565 427 569 q 362 551 380 560 q 332 527 343 542 q 320 492 320 513 q 330 458 320 472 q 356 434 339 444 q 397 421 374 425 q 448 416 420 416 q 469 417 456 416 q 493 418 481 417 q 517 420 506 419 q 536 422 529 421 q 523 354 529 387 q 509 286 516 321 q 471 289 496 288 q 410 291 446 291 q 341 286 373 291 q 286 271 309 281 q 249 242 262 260 q 236 200 236 225 q 267 146 236 165 q 362 127 298 127 q 416 131 388 127 q 471 140 444 134 q 527 155 499 146 q 579 173 554 163 q 564 96 572 134 q 548 19 555 58 z "},"σ":{"ha":861,"x_min":41,"x_max":918,"o":"m 884 540 l 736 540 q 755 479 747 515 q 762 399 762 443 q 732 219 762 296 q 649 89 703 141 q 520 9 595 36 q 355 -17 446 -17 q 223 3 281 -17 q 124 61 165 23 q 63 152 84 98 q 41 274 41 206 q 72 447 41 370 q 159 580 102 525 q 300 665 216 635 q 491 694 384 694 l 918 694 l 884 540 m 547 421 q 543 488 547 456 q 534 539 540 519 l 486 539 q 394 521 436 539 q 321 470 352 503 q 274 388 291 436 q 257 277 257 339 q 266 221 257 245 q 291 180 275 197 q 328 155 307 163 q 375 146 350 146 q 449 167 417 146 q 503 224 481 187 q 536 311 525 260 q 547 421 547 361 z "},"τ":{"ha":767,"x_min":39,"x_max":808,"o":"m 539 6 q 489 -7 521 -1 q 416 -14 458 -14 q 337 -1 371 -14 q 280 33 303 11 q 246 85 258 55 q 235 150 235 115 q 241 225 235 187 q 255 300 247 262 q 260 326 256 308 q 270 369 264 345 q 280 419 275 393 q 291 470 286 446 q 300 512 296 494 q 306 537 304 530 l 246 537 q 191 532 220 537 q 135 518 163 526 q 82 498 107 509 q 39 476 58 488 q 57 562 48 519 q 76 648 66 605 q 122 667 96 659 q 178 682 149 676 q 239 691 208 688 q 300 694 271 694 l 808 694 q 790 616 799 655 q 774 537 782 576 l 517 537 q 489 398 503 467 q 460 260 475 330 q 454 228 457 246 q 451 196 451 210 q 467 163 451 173 q 505 153 484 153 q 541 157 523 153 q 573 167 558 161 q 556 86 564 126 q 539 6 548 47 z "},"φ":{"ha":1082,"x_min":41,"x_max":1040,"o":"m 1040 429 q 1022 288 1040 351 q 975 174 1005 224 q 903 89 945 125 q 811 29 861 53 q 706 -6 762 5 q 594 -17 651 -17 l 560 -17 l 496 -321 l 296 -321 l 360 -17 l 342 -17 q 216 3 272 -17 q 121 61 160 24 q 62 151 83 98 q 41 267 41 203 q 58 398 41 335 q 102 516 75 461 q 163 616 129 571 q 233 694 197 662 l 452 694 q 378 613 414 660 q 313 512 341 566 q 267 400 284 458 q 249 285 249 342 q 260 220 249 247 q 290 177 271 193 q 332 152 308 160 q 382 144 356 144 l 395 144 l 456 437 q 495 557 471 506 q 555 643 519 608 q 643 694 592 677 q 764 711 694 711 q 879 690 828 711 q 965 631 930 669 q 1020 542 1001 593 q 1040 429 1040 490 m 834 425 q 811 517 834 485 q 750 550 789 550 q 694 528 717 550 q 660 452 671 506 l 595 144 l 610 144 q 688 160 648 144 q 760 209 728 176 q 813 296 793 243 q 834 425 834 349 z "},"‗":{"ha":576,"x_min":0,"x_max":576,"o":"m 0 -188 l 0 -107 l 576 -107 l 576 -188 l 0 -188 m 0 -349 l 0 -268 l 576 -268 l 576 -349 l 0 -349 z "},"‼":{"ha":806,"x_min":65,"x_max":870,"o":"m 702 302 l 528 302 l 645 972 l 870 972 l 702 302 m 703 102 q 693 54 703 75 q 666 17 683 33 q 625 -7 648 1 q 574 -16 601 -16 q 526 -7 548 -16 q 488 15 504 1 q 462 48 471 29 q 453 90 453 68 q 463 139 453 117 q 491 176 473 161 q 532 200 509 191 q 584 208 556 208 q 631 200 610 208 q 669 178 653 192 q 694 144 685 163 q 703 102 703 125 m 314 302 l 140 302 l 257 972 l 482 972 l 314 302 m 315 102 q 305 54 315 75 q 278 17 295 33 q 237 -7 260 1 q 186 -16 213 -16 q 138 -7 160 -16 q 100 15 116 1 q 74 48 83 29 q 65 90 65 68 q 75 139 65 117 q 103 176 85 161 q 144 200 121 191 q 196 208 168 208 q 243 200 222 208 q 281 178 265 192 q 306 144 297 163 q 315 102 315 125 z "},"ⁿ":{"ha":600,"x_min":92,"x_max":623,"o":"m 235 486 l 92 486 l 196 973 l 339 973 l 319 882 l 321 882 q 355 921 336 903 q 397 954 374 939 q 446 976 420 968 q 500 985 471 985 q 591 950 559 985 q 623 858 623 916 q 622 837 623 849 q 620 812 621 825 q 616 787 618 800 q 612 762 614 774 l 553 486 l 410 486 l 469 766 q 475 797 473 780 q 477 823 477 814 q 464 860 477 845 q 423 874 450 874 q 377 863 399 874 q 338 833 355 851 q 308 793 320 815 q 292 751 296 772 l 235 486 z "},"₧":{"ha":1787,"x_min":33,"x_max":1746,"o":"m 1161 9 q 1098 -7 1138 0 q 1010 -15 1058 -15 q 929 -3 962 -15 q 875 30 896 8 q 844 81 854 51 q 835 147 835 111 q 838 189 835 167 q 845 232 840 211 q 849 252 846 237 q 857 287 852 267 q 866 329 861 307 q 874 371 870 351 q 882 406 879 391 q 886 426 885 420 l 779 426 q 789 472 784 449 q 798 517 793 494 q 775 481 789 498 q 746 449 762 465 q 607 364 691 393 q 414 335 524 335 l 316 335 q 281 168 298 250 q 245 0 263 85 l 33 0 l 239 972 l 511 972 q 659 951 597 972 q 761 892 721 930 q 821 802 802 854 q 840 687 840 749 q 836 630 840 659 q 823 574 832 600 l 918 574 q 931 637 925 606 q 945 700 938 668 q 996 714 967 706 q 1054 730 1024 722 q 1113 747 1084 739 q 1163 761 1141 755 q 1144 668 1154 714 q 1124 574 1134 621 l 1275 574 q 1259 500 1267 537 q 1243 426 1251 463 l 1092 426 q 1076 348 1084 387 q 1059 270 1067 309 q 1053 238 1056 256 q 1050 208 1050 220 q 1106 148 1050 148 q 1147 153 1125 148 q 1194 168 1169 159 q 1177 89 1185 128 q 1161 9 1169 50 m 1709 191 q 1692 110 1709 147 q 1640 44 1676 72 q 1547 1 1604 16 q 1409 -15 1490 -15 q 1353 -13 1382 -15 q 1296 -6 1324 -10 q 1244 5 1268 -1 q 1202 18 1219 11 l 1232 171 q 1271 154 1249 162 q 1318 141 1293 146 q 1368 133 1342 136 q 1418 130 1393 130 q 1493 141 1468 130 q 1519 172 1519 153 q 1513 191 1519 183 q 1494 207 1507 199 q 1461 222 1480 214 q 1413 241 1441 231 q 1317 306 1350 267 q 1284 397 1284 345 q 1304 482 1284 446 q 1361 542 1324 518 q 1451 578 1398 566 q 1567 590 1503 590 q 1616 588 1591 590 q 1665 582 1641 585 q 1710 573 1689 578 q 1746 563 1731 568 l 1718 422 q 1685 431 1705 427 q 1643 439 1665 435 q 1597 445 1620 443 q 1557 448 1575 448 q 1528 446 1542 448 q 1502 440 1514 444 q 1485 429 1491 436 q 1478 411 1478 422 q 1485 394 1478 401 q 1504 380 1491 387 q 1535 366 1516 373 q 1577 350 1554 359 q 1634 323 1609 338 q 1675 289 1658 308 q 1700 245 1691 270 q 1709 191 1709 221 m 406 500 q 558 547 505 500 q 611 679 611 594 q 606 707 611 695 q 560 781 599 756 q 464 806 522 806 l 416 806 l 351 500 l 406 500 z "},"Ĳ":{"ha":1059,"x_min":33,"x_max":1085,"o":"m 254 0 l 33 0 l 239 972 l 460 972 l 254 0 m 960 389 q 906 220 941 295 q 819 92 871 145 q 696 11 767 39 q 532 -17 625 -17 q 495 -14 516 -17 q 453 -7 474 -12 q 414 2 433 -3 q 385 12 396 7 l 425 215 q 450 199 435 207 q 480 185 464 191 q 512 176 496 180 q 543 172 528 172 q 668 226 620 172 q 741 395 717 280 l 865 972 l 1085 972 l 960 389 z "},"ĳ":{"ha":806,"x_min":54,"x_max":874,"o":"m 433 918 q 423 871 433 892 q 396 834 413 850 q 355 811 378 819 q 304 803 332 803 q 257 811 279 803 q 219 832 235 819 q 194 865 203 846 q 184 907 184 884 q 194 954 184 933 q 221 990 204 975 q 262 1014 239 1006 q 314 1022 286 1022 q 361 1014 340 1022 q 399 992 383 1006 q 424 960 415 979 q 433 918 433 941 m 363 6 q 335 -1 351 3 q 301 -7 319 -4 q 263 -12 283 -10 q 225 -14 244 -14 q 148 -2 180 -14 q 94 32 115 10 q 63 82 73 53 q 54 147 54 112 q 55 180 54 162 q 60 219 57 199 q 66 259 62 239 q 74 299 70 280 q 83 341 77 311 q 98 412 90 372 q 116 497 106 452 q 134 581 125 541 q 149 652 142 621 q 158 694 155 683 l 375 694 l 292 304 q 281 251 287 280 q 275 199 275 221 q 291 163 275 174 q 328 153 307 153 q 364 157 346 153 q 397 167 382 161 q 380 86 388 126 q 363 6 372 47 m 874 918 q 864 871 874 892 q 837 834 854 850 q 796 811 819 819 q 745 803 772 803 q 697 811 720 803 q 660 832 675 819 q 634 865 644 846 q 625 907 625 884 q 635 954 625 933 q 662 990 645 975 q 703 1014 680 1006 q 755 1022 727 1022 q 802 1014 781 1022 q 840 992 824 1006 q 865 960 856 979 q 874 918 874 941 m 675 36 q 634 -103 660 -37 q 565 -218 608 -169 q 462 -297 523 -268 q 316 -326 401 -326 q 256 -320 286 -326 q 208 -304 227 -314 l 242 -140 q 257 -149 248 -144 q 275 -156 265 -153 q 295 -161 285 -159 q 313 -163 305 -163 q 399 -121 364 -163 q 454 14 435 -80 l 599 694 l 816 694 l 675 36 z "},"ŉ":{"ha":994,"x_min":78,"x_max":944,"o":"m 944 529 q 942 502 944 519 q 937 467 940 485 q 930 431 934 448 q 924 401 927 414 l 840 0 l 625 0 l 708 396 q 716 441 712 418 q 720 476 720 464 q 704 528 720 509 q 654 547 687 547 q 596 530 626 547 q 539 484 566 513 q 493 419 513 456 q 465 343 473 382 l 393 0 l 174 0 l 277 476 q 290 539 283 507 q 300 599 296 570 q 309 653 305 628 q 315 694 313 677 l 526 694 q 522 655 524 675 q 517 615 519 634 q 513 582 515 596 q 509 561 511 567 l 512 561 q 566 620 536 592 q 629 667 595 647 q 699 700 663 688 q 770 711 734 711 q 900 664 857 711 q 944 529 944 616 m 210 684 l 78 684 l 185 985 l 355 985 l 210 684 z "},"′":{"ha":407,"x_min":103,"x_max":323,"o":"m 323 985 l 239 685 l 103 685 l 147 985 l 323 985 z "},"″":{"ha":685,"x_min":107,"x_max":597,"o":"m 597 985 l 513 684 l 376 684 l 420 985 l 597 985 m 330 985 l 245 685 l 107 685 l 151 985 l 330 985 z "},"℅":{"ha":1115,"x_min":58,"x_max":1092,"o":"m 1092 285 q 1088 231 1092 259 q 1075 175 1084 203 q 1052 119 1066 146 q 1016 68 1038 92 q 933 8 981 30 q 822 -14 886 -14 q 724 3 766 -14 q 654 52 683 20 q 616 116 629 80 q 604 194 604 152 q 608 247 604 219 q 621 302 612 274 q 645 356 630 330 q 681 407 659 383 q 765 469 716 447 q 880 491 813 491 q 970 477 931 491 q 1037 435 1009 463 q 1092 285 1092 380 m 226 0 l 58 0 l 890 972 l 1058 972 l 226 0 m 947 281 q 929 348 947 323 q 873 374 911 374 q 822 360 844 374 q 784 323 800 347 q 758 261 766 295 q 749 195 749 228 q 769 127 749 151 q 827 104 789 104 q 876 117 854 104 q 912 154 897 130 q 939 215 931 182 q 947 281 947 249 m 485 955 q 475 894 479 924 q 465 833 470 864 q 409 862 436 853 q 353 871 381 871 q 292 855 318 871 q 249 810 267 839 q 225 755 233 785 q 218 694 218 725 q 219 679 218 686 q 222 665 220 671 q 248 615 228 633 q 300 597 267 597 q 358 607 325 597 q 431 639 392 617 q 419 576 425 607 q 408 513 414 545 q 346 489 378 498 q 279 481 315 481 q 193 494 231 481 q 127 536 155 508 q 86 601 100 563 q 72 688 72 639 q 92 805 72 751 q 149 899 111 858 q 240 964 188 941 q 355 986 292 986 q 427 978 394 986 q 485 955 460 970 z "},"ℓ":{"ha":449,"x_min":9,"x_max":437,"o":"m 9 286 l 131 446 l 131 754 q 154 926 131 871 q 289 1011 190 1011 q 399 964 358 1011 q 437 848 437 919 q 244 452 437 720 l 244 170 q 254 95 244 110 q 283 81 264 81 q 418 153 315 81 l 418 43 q 265 -17 342 -17 q 131 147 131 -17 l 131 300 l 77 233 l 9 286 m 244 610 q 328 769 313 728 q 343 848 343 809 q 292 929 343 929 q 261 913 271 929 q 244 764 244 884 l 244 610 z "},"□":{"ha":839,"x_min":98,"x_max":739,"o":"m 739 640 l 739 0 l 98 0 l 98 640 l 739 640 m 150 52 l 688 52 l 688 589 l 150 589 l 150 52 z "},"▪":{"ha":492,"x_min":89,"x_max":403,"o":"m 403 301 l 89 301 l 89 615 l 403 615 l 403 301 z "},"▫":{"ha":492,"x_min":89,"x_max":403,"o":"m 403 301 l 89 301 l 89 615 l 403 615 l 403 301 m 140 564 l 140 353 l 351 353 l 351 564 l 140 564 z "},"●":{"ha":839,"x_min":121,"x_max":718,"o":"m 419 690 q 566 652 495 690 q 677 542 641 610 q 718 392 718 468 q 631 181 718 269 q 421 93 545 93 q 209 180 297 93 q 121 392 121 267 q 161 543 121 472 q 273 652 202 613 q 419 690 343 690 z "},"◦":{"ha":492,"x_min":77,"x_max":416,"o":"m 245 629 q 367 580 317 629 q 416 460 416 530 q 367 339 416 389 q 245 289 317 289 q 126 339 175 289 q 77 460 77 389 q 126 579 77 530 q 245 629 176 629 m 245 578 q 162 543 197 578 q 127 460 127 509 q 162 375 127 410 q 248 340 197 340 q 331 375 297 340 q 366 460 366 410 q 331 543 366 507 q 245 578 297 578 z "},"Ā":{"ha":977,"x_min":-69,"x_max":892,"o":"m 668 0 l 640 216 l 292 216 l 178 0 l -69 0 l 492 972 l 753 972 l 892 0 l 668 0 m 589 713 q 588 737 588 724 q 588 762 587 750 q 589 784 588 774 q 590 799 589 794 l 586 799 q 581 783 585 793 q 573 763 578 774 q 563 739 569 751 q 551 715 557 727 l 374 385 l 624 385 l 589 713 m 828 1063 l 431 1063 l 456 1179 l 853 1179 l 828 1063 z "},"ā":{"ha":823,"x_min":41,"x_max":803,"o":"m 708 229 q 699 178 703 208 q 691 116 694 149 q 685 53 687 84 q 682 0 682 22 l 465 0 q 466 26 465 10 q 469 59 467 42 q 472 91 470 75 q 475 118 473 107 l 472 118 q 431 67 452 92 q 385 24 410 43 q 327 -6 359 5 q 254 -17 296 -17 q 164 1 203 -17 q 97 54 124 20 q 56 139 70 89 q 41 252 41 189 q 48 330 41 283 q 74 428 56 376 q 126 529 93 479 q 211 621 159 580 q 337 686 263 661 q 510 711 410 711 q 588 708 549 711 q 664 700 627 705 q 737 688 702 695 q 803 675 772 682 l 708 229 m 562 554 q 528 559 547 557 q 492 561 509 561 q 410 545 445 561 q 348 505 374 530 q 304 448 322 479 q 276 383 287 416 q 261 319 266 350 q 257 264 257 288 q 262 217 257 239 q 278 180 267 196 q 305 156 289 165 q 342 147 321 147 q 411 170 380 147 q 464 227 441 192 q 502 306 486 262 q 526 392 517 349 l 562 554 m 743 804 l 346 804 l 371 921 l 768 921 l 743 804 z "},"Ĉ":{"ha":882,"x_min":71,"x_max":936,"o":"m 890 737 q 847 759 870 748 q 795 778 823 770 q 735 792 768 787 q 665 798 703 798 q 510 767 577 798 q 396 686 442 737 q 326 568 350 635 q 302 427 302 501 q 321 317 302 365 q 373 238 339 270 q 454 189 407 205 q 561 172 502 172 q 631 177 598 172 q 692 191 663 182 q 748 210 722 199 q 798 233 774 221 l 751 26 q 641 -6 701 5 q 504 -17 580 -17 q 321 13 402 -17 q 185 99 241 43 q 100 232 130 155 q 71 406 71 310 q 87 555 71 482 q 136 693 103 628 q 219 812 169 758 q 336 905 269 866 q 489 967 404 945 q 679 989 575 989 q 755 985 718 989 q 825 974 791 981 q 886 960 858 968 q 936 945 914 952 l 890 737 m 791 1063 l 712 1192 l 578 1063 l 435 1063 l 641 1284 l 810 1284 l 924 1063 l 791 1063 z "},"ĉ":{"ha":642,"x_min":41,"x_max":708,"o":"m 611 504 q 551 534 588 522 q 472 547 515 547 q 382 524 422 547 q 315 465 342 501 q 272 382 287 428 q 257 293 257 337 q 290 185 257 223 q 387 147 322 147 q 430 151 408 147 q 473 162 452 155 q 515 178 495 170 q 551 197 535 187 l 518 33 q 420 -4 472 9 q 315 -17 368 -17 q 196 4 248 -17 q 111 63 145 25 q 59 154 76 101 q 41 269 41 206 q 55 383 41 328 q 93 487 68 438 q 155 577 118 536 q 240 648 192 618 q 346 695 288 678 q 471 711 404 711 q 530 708 502 711 q 581 698 557 704 q 621 685 604 692 q 650 672 639 678 l 611 504 m 574 804 l 496 933 l 362 804 l 219 804 l 425 1026 l 594 1026 l 708 804 l 574 804 z "},"Ċ":{"ha":882,"x_min":71,"x_max":936,"o":"m 890 737 q 847 759 870 748 q 795 778 823 770 q 735 792 768 787 q 665 798 703 798 q 510 767 577 798 q 396 686 442 737 q 326 568 350 635 q 302 427 302 501 q 321 317 302 365 q 373 238 339 270 q 454 189 407 205 q 561 172 502 172 q 631 177 598 172 q 692 191 663 182 q 748 210 722 199 q 798 233 774 221 l 751 26 q 641 -6 701 5 q 504 -17 580 -17 q 321 13 402 -17 q 185 99 241 43 q 100 232 130 155 q 71 406 71 310 q 87 555 71 482 q 136 693 103 628 q 219 812 169 758 q 336 905 269 866 q 489 967 404 945 q 679 989 575 989 q 755 985 718 989 q 825 974 791 981 q 886 960 858 968 q 936 945 914 952 l 890 737 m 808 1157 q 801 1121 808 1138 q 780 1090 793 1103 q 748 1070 767 1078 q 705 1063 729 1063 q 663 1070 682 1063 q 630 1090 644 1078 q 609 1121 616 1103 q 602 1157 602 1138 q 609 1194 602 1177 q 631 1222 617 1211 q 664 1241 645 1234 q 705 1247 683 1247 q 780 1222 751 1247 q 808 1157 808 1197 z "},"ċ":{"ha":642,"x_min":41,"x_max":650,"o":"m 611 504 q 551 534 588 522 q 472 547 515 547 q 382 524 422 547 q 315 465 342 501 q 272 382 287 428 q 257 293 257 337 q 290 185 257 223 q 387 147 322 147 q 430 151 408 147 q 473 162 452 155 q 515 178 495 170 q 551 197 535 187 l 518 33 q 420 -4 472 9 q 315 -17 368 -17 q 196 4 248 -17 q 111 63 145 25 q 59 154 76 101 q 41 269 41 206 q 55 383 41 328 q 93 487 68 438 q 155 577 118 536 q 240 648 192 618 q 346 695 288 678 q 471 711 404 711 q 530 708 502 711 q 581 698 557 704 q 621 685 604 692 q 650 672 639 678 l 611 504 m 597 899 q 590 862 597 880 q 569 832 583 845 q 537 812 556 819 q 494 804 518 804 q 452 812 471 804 q 419 832 433 819 q 398 862 406 845 q 391 899 391 880 q 398 936 391 919 q 420 964 406 952 q 453 982 434 976 q 494 989 472 989 q 569 964 541 989 q 597 899 597 939 z "},"Ē":{"ha":736,"x_min":33,"x_max":800,"o":"m 762 794 l 422 794 l 376 575 l 693 575 l 654 396 l 339 396 l 292 178 l 654 178 l 616 0 l 33 0 l 240 972 l 800 972 l 762 794 m 735 1063 l 338 1063 l 363 1179 l 760 1179 l 735 1063 z "},"ē":{"ha":722,"x_min":41,"x_max":713,"o":"m 713 515 q 690 417 713 462 q 614 340 667 372 q 473 289 561 307 q 253 268 385 270 q 252 261 252 264 q 252 254 252 258 q 258 212 252 233 q 282 174 265 191 q 326 147 298 157 q 393 136 353 136 q 447 141 418 136 q 505 154 475 145 q 565 174 535 162 q 619 200 594 186 l 586 40 q 538 19 565 29 q 479 1 511 9 q 412 -12 448 -7 q 339 -17 376 -17 q 204 6 260 -17 q 112 68 148 29 q 58 159 75 107 q 41 271 41 212 q 71 439 41 359 q 155 580 100 519 q 287 676 210 640 q 458 711 363 711 q 575 695 527 711 q 654 651 623 679 q 699 589 684 624 q 713 515 713 553 m 509 513 q 490 554 509 538 q 437 571 471 571 q 380 558 408 571 q 330 523 353 545 q 291 468 307 500 q 267 400 275 437 q 449 428 389 399 q 509 513 509 457 m 634 804 l 237 804 l 262 921 l 659 921 l 634 804 z "},"Ĕ":{"ha":736,"x_min":33,"x_max":807,"o":"m 762 794 l 422 794 l 376 575 l 693 575 l 654 396 l 339 396 l 292 178 l 654 178 l 616 0 l 33 0 l 240 972 l 800 972 l 762 794 m 807 1271 q 771 1186 793 1225 q 717 1121 749 1148 q 645 1078 686 1093 q 556 1063 605 1063 q 488 1073 520 1063 q 433 1104 456 1084 q 396 1155 410 1124 q 382 1225 382 1185 q 384 1247 382 1236 q 389 1271 386 1258 l 499 1271 q 497 1259 498 1265 q 496 1247 496 1253 q 518 1195 496 1213 q 571 1177 540 1177 q 692 1271 659 1177 l 807 1271 z "},"ĕ":{"ha":722,"x_min":41,"x_max":713,"o":"m 713 515 q 690 417 713 462 q 614 340 667 372 q 473 289 561 307 q 253 268 385 270 q 252 261 252 264 q 252 254 252 258 q 258 212 252 233 q 282 174 265 191 q 326 147 298 157 q 393 136 353 136 q 447 141 418 136 q 505 154 475 145 q 565 174 535 162 q 619 200 594 186 l 586 40 q 538 19 565 29 q 479 1 511 9 q 412 -12 448 -7 q 339 -17 376 -17 q 204 6 260 -17 q 112 68 148 29 q 58 159 75 107 q 41 271 41 212 q 71 439 41 359 q 155 580 100 519 q 287 676 210 640 q 458 711 363 711 q 575 695 527 711 q 654 651 623 679 q 699 589 684 624 q 713 515 713 553 m 509 513 q 490 554 509 538 q 437 571 471 571 q 380 558 408 571 q 330 523 353 545 q 291 468 307 500 q 267 400 275 437 q 449 428 389 399 q 509 513 509 457 m 708 1013 q 672 928 694 966 q 618 862 650 890 q 546 820 587 835 q 457 804 506 804 q 389 815 421 804 q 334 846 357 825 q 297 896 311 866 q 283 966 283 926 q 285 989 283 978 q 290 1013 287 1000 l 400 1013 q 398 1001 399 1007 q 397 989 397 994 q 419 936 397 954 q 472 918 441 918 q 593 1013 560 918 l 708 1013 z "},"Ė":{"ha":736,"x_min":33,"x_max":800,"o":"m 762 794 l 422 794 l 376 575 l 693 575 l 654 396 l 339 396 l 292 178 l 654 178 l 616 0 l 33 0 l 240 972 l 800 972 l 762 794 m 665 1157 q 657 1121 665 1138 q 636 1090 650 1103 q 604 1070 623 1078 q 562 1063 585 1063 q 519 1070 538 1063 q 486 1090 500 1078 q 465 1121 473 1103 q 458 1157 458 1138 q 466 1194 458 1177 q 487 1222 473 1211 q 520 1241 501 1234 q 562 1247 539 1247 q 636 1222 608 1247 q 665 1157 665 1197 z "},"ė":{"ha":722,"x_min":41,"x_max":713,"o":"m 713 515 q 690 417 713 462 q 614 340 667 372 q 473 289 561 307 q 253 268 385 270 q 252 261 252 264 q 252 254 252 258 q 258 212 252 233 q 282 174 265 191 q 326 147 298 157 q 393 136 353 136 q 447 141 418 136 q 505 154 475 145 q 565 174 535 162 q 619 200 594 186 l 586 40 q 538 19 565 29 q 479 1 511 9 q 412 -12 448 -7 q 339 -17 376 -17 q 204 6 260 -17 q 112 68 148 29 q 58 159 75 107 q 41 271 41 212 q 71 439 41 359 q 155 580 100 519 q 287 676 210 640 q 458 711 363 711 q 575 695 527 711 q 654 651 623 679 q 699 589 684 624 q 713 515 713 553 m 509 513 q 490 554 509 538 q 437 571 471 571 q 380 558 408 571 q 330 523 353 545 q 291 468 307 500 q 267 400 275 437 q 449 428 389 399 q 509 513 509 457 m 580 899 q 572 862 580 880 q 552 832 565 845 q 519 812 538 819 q 477 804 500 804 q 434 812 454 804 q 401 832 415 819 q 380 862 388 845 q 373 899 373 880 q 381 936 373 919 q 402 964 389 952 q 435 982 416 976 q 477 989 454 989 q 551 964 523 989 q 580 899 580 939 z "},"Ĝ":{"ha":985,"x_min":75,"x_max":972,"o":"m 929 733 q 880 761 908 747 q 820 784 852 774 q 750 800 787 793 q 673 806 713 806 q 520 778 589 806 q 405 701 452 751 q 331 581 357 651 q 306 425 306 511 q 323 315 306 363 q 371 233 340 266 q 448 182 403 199 q 547 164 492 164 q 608 169 584 164 q 652 179 632 173 l 693 376 l 496 376 l 533 551 l 949 551 l 844 58 q 781 31 815 44 q 705 7 746 18 q 618 -11 665 -4 q 517 -17 571 -17 q 330 14 412 -17 q 191 102 248 45 q 105 239 135 159 q 75 415 75 319 q 92 563 75 491 q 143 699 109 635 q 227 816 176 763 q 345 908 277 869 q 497 967 412 946 q 684 989 582 989 q 771 984 730 989 q 850 970 813 979 q 917 952 886 962 q 972 933 948 943 l 929 733 m 790 1063 l 711 1192 l 578 1063 l 435 1063 l 640 1284 l 810 1284 l 924 1063 l 790 1063 z "},"ĝ":{"ha":823,"x_min":-22,"x_max":803,"o":"m 677 83 q 627 -83 659 -7 q 541 -212 595 -158 q 404 -296 486 -266 q 203 -326 322 -326 q 81 -312 137 -326 q -22 -275 26 -298 l 16 -103 q 109 -150 58 -132 q 216 -168 160 -168 q 309 -154 269 -168 q 377 -112 349 -140 q 425 -43 406 -84 q 456 52 444 -2 l 468 113 l 465 113 q 427 63 448 86 q 380 22 406 39 q 324 -6 355 4 q 254 -17 293 -17 q 162 2 201 -17 q 95 56 122 22 q 55 139 68 91 q 41 245 41 187 q 54 361 41 304 q 92 470 66 418 q 155 566 117 522 q 243 643 193 610 q 357 693 294 675 q 496 711 420 711 q 579 708 538 711 q 661 700 621 705 q 736 689 701 695 q 803 676 772 682 l 677 83 m 562 554 q 526 559 547 557 q 482 561 505 561 q 394 538 435 561 q 323 475 353 515 q 275 380 292 435 q 257 264 257 326 q 262 217 257 239 q 278 180 267 196 q 305 156 289 165 q 342 147 321 147 q 392 158 369 147 q 433 188 414 169 q 466 231 452 206 q 492 282 481 255 q 512 337 504 309 q 526 390 521 365 l 562 554 m 646 804 l 567 933 l 433 804 l 290 804 l 496 1026 l 665 1026 l 779 804 l 646 804 z "},"Ġ":{"ha":985,"x_min":75,"x_max":972,"o":"m 929 733 q 880 761 908 747 q 820 784 852 774 q 750 800 787 793 q 673 806 713 806 q 520 778 589 806 q 405 701 452 751 q 331 581 357 651 q 306 425 306 511 q 323 315 306 363 q 371 233 340 266 q 448 182 403 199 q 547 164 492 164 q 608 169 584 164 q 652 179 632 173 l 693 376 l 496 376 l 533 551 l 949 551 l 844 58 q 781 31 815 44 q 705 7 746 18 q 618 -11 665 -4 q 517 -17 571 -17 q 330 14 412 -17 q 191 102 248 45 q 105 239 135 159 q 75 415 75 319 q 92 563 75 491 q 143 699 109 635 q 227 816 176 763 q 345 908 277 869 q 497 967 412 946 q 684 989 582 989 q 771 984 730 989 q 850 970 813 979 q 917 952 886 962 q 972 933 948 943 l 929 733 m 819 1157 q 811 1121 819 1138 q 790 1090 804 1103 q 758 1070 777 1078 q 715 1063 739 1063 q 673 1070 692 1063 q 640 1090 654 1078 q 619 1121 627 1103 q 612 1157 612 1138 q 620 1194 612 1177 q 641 1222 627 1211 q 674 1241 655 1234 q 715 1247 693 1247 q 790 1222 762 1247 q 819 1157 819 1197 z "},"ġ":{"ha":823,"x_min":-22,"x_max":803,"o":"m 677 83 q 627 -83 659 -7 q 541 -212 595 -158 q 404 -296 486 -266 q 203 -326 322 -326 q 81 -312 137 -326 q -22 -275 26 -298 l 16 -103 q 109 -150 58 -132 q 216 -168 160 -168 q 309 -154 269 -168 q 377 -112 349 -140 q 425 -43 406 -84 q 456 52 444 -2 l 468 113 l 465 113 q 427 63 448 86 q 380 22 406 39 q 324 -6 355 4 q 254 -17 293 -17 q 162 2 201 -17 q 95 56 122 22 q 55 139 68 91 q 41 245 41 187 q 54 361 41 304 q 92 470 66 418 q 155 566 117 522 q 243 643 193 610 q 357 693 294 675 q 496 711 420 711 q 579 708 538 711 q 661 700 621 705 q 736 689 701 695 q 803 676 772 682 l 677 83 m 562 554 q 526 559 547 557 q 482 561 505 561 q 394 538 435 561 q 323 475 353 515 q 275 380 292 435 q 257 264 257 326 q 262 217 257 239 q 278 180 267 196 q 305 156 289 165 q 342 147 321 147 q 392 158 369 147 q 433 188 414 169 q 466 231 452 206 q 492 282 481 255 q 512 337 504 309 q 526 390 521 365 l 562 554 m 642 899 q 635 862 642 880 q 614 832 627 845 q 582 812 601 819 q 539 804 563 804 q 497 812 516 804 q 464 832 477 819 q 443 862 450 845 q 435 899 435 880 q 443 936 435 919 q 465 964 451 952 q 498 982 479 976 q 539 989 517 989 q 614 964 585 989 q 642 899 642 939 z "},"Ģ":{"ha":985,"x_min":75,"x_max":972,"o":"m 929 733 q 880 761 908 747 q 820 784 852 774 q 750 800 787 793 q 673 806 713 806 q 520 778 589 806 q 405 701 452 751 q 331 581 357 651 q 306 425 306 511 q 323 315 306 363 q 371 233 340 266 q 448 182 403 199 q 547 164 492 164 q 608 169 584 164 q 652 179 632 173 l 693 376 l 496 376 l 533 551 l 949 551 l 844 58 q 781 31 815 44 q 705 7 746 18 q 618 -11 665 -4 q 517 -17 571 -17 q 330 14 412 -17 q 191 102 248 45 q 105 239 135 159 q 75 415 75 319 q 92 563 75 491 q 143 699 109 635 q 227 816 176 763 q 345 908 277 869 q 497 967 412 946 q 684 989 582 989 q 771 984 730 989 q 850 970 813 979 q 917 952 886 962 q 972 933 948 943 l 929 733 m 573 -75 l 459 -314 l 328 -314 l 389 -75 l 573 -75 z "},"ģ":{"ha":823,"x_min":-22,"x_max":803,"o":"m 677 83 q 627 -83 659 -7 q 541 -212 595 -158 q 404 -296 486 -266 q 203 -326 322 -326 q 81 -312 137 -326 q -22 -275 26 -298 l 16 -103 q 109 -150 58 -132 q 216 -168 160 -168 q 309 -154 269 -168 q 377 -112 349 -140 q 425 -43 406 -84 q 456 52 444 -2 l 468 113 l 465 113 q 427 63 448 86 q 380 22 406 39 q 324 -6 355 4 q 254 -17 293 -17 q 162 2 201 -17 q 95 56 122 22 q 55 139 68 91 q 41 245 41 187 q 54 361 41 304 q 92 470 66 418 q 155 566 117 522 q 243 643 193 610 q 357 693 294 675 q 496 711 420 711 q 579 708 538 711 q 661 700 621 705 q 736 689 701 695 q 803 676 772 682 l 677 83 m 562 554 q 526 559 547 557 q 482 561 505 561 q 394 538 435 561 q 323 475 353 515 q 275 380 292 435 q 257 264 257 326 q 262 217 257 239 q 278 180 267 196 q 305 156 289 165 q 342 147 321 147 q 392 158 369 147 q 433 188 414 169 q 466 231 452 206 q 492 282 481 255 q 512 337 504 309 q 526 390 521 365 l 562 554 m 406 804 l 570 1043 l 702 1043 l 590 804 l 406 804 z "},"Ĥ":{"ha":1061,"x_min":33,"x_max":1082,"o":"m 875 0 l 654 0 l 737 393 l 338 393 l 254 0 l 33 0 l 240 972 l 461 972 l 378 585 l 778 585 l 861 972 l 1082 972 l 875 0 m 777 1063 l 698 1192 l 564 1063 l 421 1063 l 627 1284 l 796 1284 l 910 1063 l 777 1063 z "},"ĥ":{"ha":831,"x_min":11,"x_max":824,"o":"m 781 529 q 779 502 781 519 q 773 467 777 485 q 767 431 770 448 q 761 401 764 414 l 676 0 l 461 0 l 545 396 q 553 441 549 418 q 557 476 557 464 q 539 529 557 510 q 489 547 522 547 q 433 531 463 547 q 377 486 404 514 q 330 421 351 458 q 300 342 309 384 l 228 0 l 11 0 l 229 1028 l 446 1028 l 346 561 l 349 561 q 404 621 374 593 q 468 668 434 648 q 537 700 501 688 q 607 711 572 711 q 736 664 692 711 q 781 529 781 617 m 690 1118 l 612 1247 l 478 1118 l 335 1118 l 541 1340 l 710 1340 l 824 1118 l 690 1118 z "},"Ħ":{"ha":1061,"x_min":33,"x_max":1163,"o":"m 875 0 l 654 0 l 737 393 l 338 393 l 254 0 l 33 0 l 180 690 l 69 690 l 99 829 l 210 829 l 240 972 l 461 972 l 430 829 l 830 829 l 861 972 l 1082 972 l 1051 829 l 1163 829 l 1133 690 l 1021 690 l 875 0 m 778 585 l 800 690 l 400 690 l 378 585 l 778 585 z "},"ħ":{"ha":831,"x_min":11,"x_max":781,"o":"m 781 529 q 779 502 781 519 q 773 467 777 485 q 767 431 770 448 q 761 401 764 414 l 676 0 l 461 0 l 545 396 q 553 441 549 418 q 557 476 557 464 q 539 529 557 510 q 489 547 522 547 q 433 531 463 547 q 377 486 404 514 q 330 421 351 458 q 300 342 309 384 l 228 0 l 11 0 l 181 800 l 105 800 l 127 907 l 203 907 l 229 1028 l 446 1028 l 420 907 l 642 907 l 620 800 l 397 800 l 346 561 l 349 561 q 404 621 374 593 q 468 668 434 648 q 537 700 501 688 q 607 711 572 711 q 736 664 692 711 q 781 529 781 617 z "},"Ĩ":{"ha":440,"x_min":33,"x_max":633,"o":"m 254 0 l 33 0 l 239 972 l 460 972 l 254 0 m 633 1255 q 610 1170 627 1206 q 571 1110 594 1134 q 518 1075 547 1086 q 457 1063 490 1063 q 398 1072 422 1063 q 356 1090 374 1080 q 320 1109 337 1101 q 283 1118 304 1118 q 254 1113 267 1118 q 232 1097 241 1107 q 218 1076 223 1088 q 210 1050 212 1063 l 106 1050 q 125 1127 111 1092 q 162 1187 140 1162 q 216 1227 185 1213 q 285 1242 247 1242 q 341 1233 319 1242 q 382 1214 363 1224 q 418 1195 400 1204 q 458 1186 435 1186 q 505 1204 486 1186 q 528 1255 524 1222 l 633 1255 z "},"ĩ":{"ha":441,"x_min":35,"x_max":562,"o":"m 363 6 q 335 -1 351 3 q 301 -7 319 -4 q 263 -12 283 -10 q 225 -14 244 -14 q 148 -2 180 -14 q 94 32 115 10 q 63 82 73 53 q 54 147 54 112 q 55 180 54 162 q 60 219 57 199 q 66 259 62 239 q 74 299 70 280 q 83 341 77 311 q 98 412 90 372 q 116 497 106 452 q 134 581 125 541 q 149 652 142 621 q 158 694 155 683 l 375 694 l 292 304 q 281 251 287 280 q 275 199 275 221 q 291 163 275 174 q 328 153 307 153 q 364 157 346 153 q 397 167 382 161 q 380 86 388 126 q 363 6 372 47 m 562 1008 q 539 924 555 960 q 499 864 523 888 q 447 828 476 840 q 386 817 418 817 q 327 825 351 817 q 284 844 303 834 q 249 863 266 854 q 212 872 233 872 q 182 866 195 872 q 161 851 170 861 q 146 829 152 842 q 139 804 141 817 l 35 804 q 54 881 39 846 q 91 941 68 916 q 145 981 114 966 q 214 996 176 996 q 270 987 248 996 q 311 968 292 978 q 347 949 329 958 q 387 940 364 940 q 434 958 415 940 q 457 1008 452 976 l 562 1008 z "},"Ī":{"ha":440,"x_min":33,"x_max":581,"o":"m 254 0 l 33 0 l 239 972 l 460 972 l 254 0 m 555 1063 l 158 1063 l 183 1179 l 581 1179 l 555 1063 z "},"ī":{"ha":441,"x_min":54,"x_max":496,"o":"m 363 6 q 335 -1 351 3 q 301 -7 319 -4 q 263 -12 283 -10 q 225 -14 244 -14 q 148 -2 180 -14 q 94 32 115 10 q 63 82 73 53 q 54 147 54 112 q 55 180 54 162 q 60 219 57 199 q 66 259 62 239 q 74 299 70 280 q 83 341 77 311 q 98 412 90 372 q 116 497 106 452 q 134 581 125 541 q 149 652 142 621 q 158 694 155 683 l 375 694 l 292 304 q 281 251 287 280 q 275 199 275 221 q 291 163 275 174 q 328 153 307 153 q 364 157 346 153 q 397 167 382 161 q 380 86 388 126 q 363 6 372 47 m 471 804 l 74 804 l 99 921 l 496 921 l 471 804 z "},"Ĭ":{"ha":440,"x_min":33,"x_max":634,"o":"m 254 0 l 33 0 l 239 972 l 460 972 l 254 0 m 634 1271 q 598 1186 621 1225 q 544 1121 576 1148 q 472 1078 513 1093 q 383 1063 432 1063 q 315 1073 347 1063 q 260 1104 283 1084 q 223 1155 237 1124 q 210 1225 210 1185 q 211 1247 210 1236 q 216 1271 213 1258 l 326 1271 q 324 1259 325 1265 q 323 1247 323 1253 q 345 1195 323 1213 q 398 1177 367 1177 q 519 1271 486 1177 l 634 1271 z "}}}
